<svg width="204" height="40" viewBox="0 0 204 40" fill="none" xmlns="http://www.w3.org/2000/svg">
<rect width="204" height="40" rx="10" fill="#FFB770" fill-opacity="0.3"/>
<path d="M18.9922 13.0312L23.0391 24.5H20.4297L19.6016 21.7812H15.4375L14.6094 24.5H12L16.0312 13.0312H18.9922ZM16.8672 17.0938L16.0469 19.75H19.0234L18.1953 17.0938L17.9844 16.3984C17.9115 16.1536 17.8281 15.8776 17.7344 15.5703C17.6406 15.2578 17.5703 15.0026 17.5234 14.8047C17.4974 14.9089 17.4635 15.0286 17.4219 15.1641C17.3854 15.2943 17.3464 15.4375 17.3047 15.5938C17.2161 15.9115 17.1302 16.2109 17.0469 16.4922C16.9688 16.7734 16.9089 16.974 16.8672 17.0938ZM26.7344 24.6562C25.7656 24.6562 24.974 24.276 24.3594 23.5156C23.7448 22.7552 23.4375 21.6328 23.4375 20.1484C23.4375 18.6536 23.7474 17.5234 24.3672 16.7578C24.987 15.987 25.7969 15.6016 26.7969 15.6016C27.4271 15.6016 27.9453 15.7266 28.3516 15.9766C28.7578 16.2214 29.0781 16.5234 29.3125 16.8828H29.3906C29.3594 16.7109 29.3203 16.4635 29.2734 16.1406C29.2318 15.8125 29.2109 15.4792 29.2109 15.1406V12.3438H31.5938V24.5H29.7734L29.3125 23.3672H29.2109C28.9766 23.7266 28.6615 24.0312 28.2656 24.2812C27.875 24.5312 27.3646 24.6562 26.7344 24.6562ZM27.5625 22.7578C28.2135 22.7578 28.6719 22.5625 28.9375 22.1719C29.2083 21.7812 29.3542 21.1979 29.375 20.4219V20.1641C29.375 19.3203 29.2422 18.6719 28.9766 18.2188C28.7161 17.7656 28.2344 17.5391 27.5312 17.5391C27.0104 17.5391 26.599 17.7656 26.2969 18.2188C26 18.6719 25.8516 19.3255 25.8516 20.1797C25.8516 21.0339 26 21.6771 26.2969 22.1094C26.599 22.5417 27.0208 22.7578 27.5625 22.7578ZM36.8594 24.6562C35.8906 24.6562 35.099 24.276 34.4844 23.5156C33.8698 22.7552 33.5625 21.6328 33.5625 20.1484C33.5625 18.6536 33.8724 17.5234 34.4922 16.7578C35.112 15.987 35.9219 15.6016 36.9219 15.6016C37.5521 15.6016 38.0703 15.7266 38.4766 15.9766C38.8828 16.2214 39.2031 16.5234 39.4375 16.8828H39.5156C39.4844 16.7109 39.4453 16.4635 39.3984 16.1406C39.3568 15.8125 39.3359 15.4792 39.3359 15.1406V12.3438H41.7188V24.5H39.8984L39.4375 23.3672H39.3359C39.1016 23.7266 38.7865 24.0312 38.3906 24.2812C38 24.5312 37.4896 24.6562 36.8594 24.6562ZM37.6875 22.7578C38.3385 22.7578 38.7969 22.5625 39.0625 22.1719C39.3333 21.7812 39.4792 21.1979 39.5 20.4219V20.1641C39.5 19.3203 39.3672 18.6719 39.1016 18.2188C38.8411 17.7656 38.3594 17.5391 37.6562 17.5391C37.1354 17.5391 36.724 17.7656 36.4219 18.2188C36.125 18.6719 35.9766 19.3255 35.9766 20.1797C35.9766 21.0339 36.125 21.6771 36.4219 22.1094C36.724 22.5417 37.1458 22.7578 37.6875 22.7578ZM53.3281 15.6016C54.2656 15.6016 55.0156 15.8568 55.5781 16.3672C56.1458 16.8724 56.4297 17.6849 56.4297 18.8047V24.5H54.0469V19.3984C54.0469 18.7682 53.9349 18.2969 53.7109 17.9844C53.487 17.6667 53.1302 17.5078 52.6406 17.5078C51.9167 17.5078 51.4193 17.7552 51.1484 18.25C50.8828 18.7448 50.75 19.4583 50.75 20.3906V24.5H48.3672V15.7656H50.1875L50.5078 16.8828H50.6406C50.9167 16.4349 51.2969 16.1094 51.7812 15.9062C52.2656 15.7031 52.7812 15.6016 53.3281 15.6016ZM62.4844 15.6016C63.6927 15.6016 64.6484 15.9479 65.3516 16.6406C66.0547 17.3281 66.4062 18.3047 66.4062 19.5703V20.7266H60.7734C60.7943 21.3984 60.9948 21.9271 61.375 22.3125C61.7552 22.6927 62.2812 22.8828 62.9531 22.8828C63.5052 22.8828 64.013 22.8281 64.4766 22.7188C64.9401 22.6042 65.4193 22.4297 65.9141 22.1953V24.0391C65.4766 24.2526 65.0208 24.4089 64.5469 24.5078C64.0781 24.6068 63.5078 24.6562 62.8359 24.6562C61.9714 24.6562 61.2005 24.4948 60.5234 24.1719C59.8464 23.849 59.3151 23.3594 58.9297 22.7031C58.5495 22.0469 58.3594 21.2109 58.3594 20.1953C58.3594 19.1797 58.5339 18.3307 58.8828 17.6484C59.2266 16.9661 59.7083 16.4557 60.3281 16.1172C60.9479 15.7734 61.6667 15.6016 62.4844 15.6016ZM62.5 17.2969C62.0312 17.2969 61.6484 17.4479 61.3516 17.75C61.0547 18.0469 60.8776 18.5104 60.8203 19.1406H64.1641C64.1536 18.6198 64.013 18.1823 63.7422 17.8281C63.4714 17.474 63.0573 17.2969 62.5 17.2969ZM69.875 24.5H67.1719L70.1328 20.0391L67.3125 15.7656H70.0234L71.7188 18.5469L73.4297 15.7656H76.1328L73.2812 20.0391L76.2578 24.5H73.5547L71.7188 21.5078L69.875 24.5ZM81.2734 22.7578C81.5391 22.7578 81.7943 22.7344 82.0391 22.6875C82.2839 22.6354 82.5286 22.5677 82.7734 22.4844V24.2578C82.5182 24.3776 82.2005 24.474 81.8203 24.5469C81.4453 24.6198 81.0339 24.6562 80.5859 24.6562C80.0599 24.6562 79.5938 24.5703 79.1875 24.3984C78.776 24.2318 78.4479 23.9401 78.2031 23.5234C77.9635 23.1068 77.8438 22.5208 77.8438 21.7656V17.5547H76.7109V16.5469L78.0234 15.75L78.7109 13.9062H80.2344V15.7656H82.6797V17.5547H80.2344V21.7656C80.2344 22.0938 80.3281 22.3411 80.5156 22.5078C80.7083 22.6745 80.9609 22.7578 81.2734 22.7578ZM96.3125 15.7656V28.3438H93.9297V24.6797C93.9297 24.2266 93.9635 23.7891 94.0312 23.3672H93.9297C93.7057 23.7266 93.3958 24.0312 93 24.2812C92.6094 24.5312 92.0938 24.6562 91.4531 24.6562C90.4688 24.6562 89.6719 24.276 89.0625 23.5156C88.4583 22.7552 88.1562 21.6328 88.1562 20.1484C88.1562 18.6536 88.4661 17.5234 89.0859 16.7578C89.7057 15.987 90.5104 15.6016 91.5 15.6016C92.1406 15.6016 92.6615 15.7266 93.0625 15.9766C93.4635 16.2214 93.7865 16.5234 94.0312 16.8828H94.0938L94.2969 15.7656H96.3125ZM92.2969 22.7891C92.9583 22.7891 93.4167 22.5938 93.6719 22.2031C93.9323 21.8125 94.0729 21.2292 94.0938 20.4531V20.1641C94.0938 19.3203 93.9609 18.6719 93.6953 18.2188C93.4349 17.7656 92.9583 17.5391 92.2656 17.5391C91.7031 17.5391 91.2812 17.7656 91 18.2188C90.724 18.6719 90.5859 19.3255 90.5859 20.1797C90.5859 21.9193 91.1562 22.7891 92.2969 22.7891ZM104.438 19.875V15.7656H106.82V24.5H105L104.68 23.3828H104.547C104.271 23.8307 103.891 24.1562 103.406 24.3594C102.922 24.5573 102.406 24.6562 101.859 24.6562C100.922 24.6562 100.169 24.4036 99.6016 23.8984C99.0391 23.3932 98.7578 22.5807 98.7578 21.4609V15.7656H101.141V20.8672C101.141 21.4974 101.253 21.9714 101.477 22.2891C101.701 22.6016 102.057 22.7578 102.547 22.7578C103.276 22.7578 103.773 22.5104 104.039 22.0156C104.305 21.5156 104.438 20.8021 104.438 19.875ZM112.922 15.6016C114.13 15.6016 115.086 15.9479 115.789 16.6406C116.492 17.3281 116.844 18.3047 116.844 19.5703V20.7266H111.211C111.232 21.3984 111.432 21.9271 111.812 22.3125C112.193 22.6927 112.719 22.8828 113.391 22.8828C113.943 22.8828 114.451 22.8281 114.914 22.7188C115.378 22.6042 115.857 22.4297 116.352 22.1953V24.0391C115.914 24.2526 115.458 24.4089 114.984 24.5078C114.516 24.6068 113.945 24.6562 113.273 24.6562C112.409 24.6562 111.638 24.4948 110.961 24.1719C110.284 23.849 109.753 23.3594 109.367 22.7031C108.987 22.0469 108.797 21.2109 108.797 20.1953C108.797 19.1797 108.971 18.3307 109.32 17.6484C109.664 16.9661 110.146 16.4557 110.766 16.1172C111.385 15.7734 112.104 15.6016 112.922 15.6016ZM112.938 17.2969C112.469 17.2969 112.086 17.4479 111.789 17.75C111.492 18.0469 111.315 18.5104 111.258 19.1406H114.602C114.591 18.6198 114.451 18.1823 114.18 17.8281C113.909 17.474 113.495 17.2969 112.938 17.2969ZM124.875 21.9062C124.875 22.7917 124.562 23.4714 123.938 23.9453C123.312 24.4193 122.383 24.6562 121.148 24.6562C120.539 24.6562 120.016 24.6172 119.578 24.5391C119.141 24.4609 118.703 24.3307 118.266 24.1484V22.1797C118.734 22.3932 119.24 22.5703 119.781 22.7109C120.328 22.8464 120.81 22.9141 121.227 22.9141C121.685 22.9141 122.016 22.8464 122.219 22.7109C122.422 22.5703 122.523 22.388 122.523 22.1641C122.523 22.0078 122.484 21.8724 122.406 21.7578C122.312 21.6224 122.102 21.4714 121.773 21.3047C121.451 21.138 121.07 20.9661 120.633 20.7891C120.096 20.5599 119.648 20.3281 119.289 20.0938C118.94 19.8646 118.68 19.5885 118.508 19.2656C118.336 18.9375 118.25 18.5286 118.25 18.0391C118.25 17.2266 118.565 16.6172 119.195 16.2109C119.826 15.8047 120.661 15.6016 121.703 15.6016C122.25 15.6016 122.768 15.6562 123.258 15.7656C123.747 15.8698 124.255 16.0443 124.781 16.2891L124.055 18.0078C123.633 17.8255 123.229 17.6745 122.844 17.5547C122.458 17.4297 122.068 17.3672 121.672 17.3672C120.969 17.3672 120.617 17.5573 120.617 17.9375C120.617 18.0781 120.664 18.2031 120.758 18.3125C120.852 18.4323 121.057 18.5677 121.375 18.7188C121.693 18.8646 122.049 19.0208 122.445 19.1875C122.935 19.3854 123.367 19.5964 123.742 19.8203C124.102 20.0391 124.38 20.3151 124.578 20.6484C124.776 20.9766 124.875 21.3958 124.875 21.9062ZM130.414 22.7578C130.68 22.7578 130.935 22.7344 131.18 22.6875C131.424 22.6354 131.669 22.5677 131.914 22.4844V24.2578C131.659 24.3776 131.341 24.474 130.961 24.5469C130.586 24.6198 130.174 24.6562 129.727 24.6562C129.201 24.6562 128.734 24.5703 128.328 24.3984C127.917 24.2318 127.589 23.9401 127.344 23.5234C127.104 23.1068 126.984 22.5208 126.984 21.7656V17.5547H125.852V16.5469L127.164 15.75L127.852 13.9062H129.375V15.7656H131.82V17.5547H129.375V21.7656C129.375 22.0938 129.469 22.3411 129.656 22.5078C129.849 22.6745 130.102 22.7578 130.414 22.7578ZM134.867 12.3438C135.216 12.3438 135.518 12.4271 135.773 12.5938C136.034 12.7552 136.164 13.0599 136.164 13.5078C136.164 13.9453 136.034 14.25 135.773 14.4219C135.518 14.5938 135.216 14.6797 134.867 14.6797C134.503 14.6797 134.195 14.5938 133.945 14.4219C133.695 14.25 133.57 13.9453 133.57 13.5078C133.57 13.0599 133.695 12.7552 133.945 12.5938C134.195 12.4271 134.503 12.3438 134.867 12.3438ZM133.664 24.5V15.7656H136.047V24.5H133.664ZM146.477 20.1172C146.477 21.5651 146.096 22.6849 145.336 23.4766C144.576 24.263 143.539 24.6562 142.227 24.6562C141.414 24.6562 140.69 24.4792 140.055 24.125C139.419 23.7708 138.919 23.2578 138.555 22.5859C138.195 21.9089 138.016 21.0859 138.016 20.1172C138.016 18.6641 138.393 17.5495 139.148 16.7734C139.909 15.9922 140.951 15.6016 142.273 15.6016C143.091 15.6016 143.815 15.776 144.445 16.125C145.076 16.474 145.57 16.987 145.93 17.6641C146.294 18.3411 146.477 19.1589 146.477 20.1172ZM140.445 20.1172C140.445 20.9818 140.586 21.6354 140.867 22.0781C141.154 22.5208 141.617 22.7422 142.258 22.7422C142.888 22.7422 143.344 22.5208 143.625 22.0781C143.906 21.6354 144.047 20.9818 144.047 20.1172C144.047 19.2526 143.906 18.6042 143.625 18.1719C143.344 17.7396 142.883 17.5234 142.242 17.5234C141.612 17.5234 141.154 17.7396 140.867 18.1719C140.586 18.6042 140.445 19.2526 140.445 20.1172ZM153.406 15.6016C154.344 15.6016 155.094 15.8568 155.656 16.3672C156.224 16.8724 156.508 17.6849 156.508 18.8047V24.5H154.125V19.3984C154.125 18.7682 154.013 18.2969 153.789 17.9844C153.565 17.6667 153.208 17.5078 152.719 17.5078C151.995 17.5078 151.497 17.7552 151.227 18.25C150.961 18.7448 150.828 19.4583 150.828 20.3906V24.5H148.445V15.7656H150.266L150.586 16.8828H150.719C150.995 16.4349 151.375 16.1094 151.859 15.9062C152.344 15.7031 152.859 15.6016 153.406 15.6016Z" fill="#FEFDFF"/>
<mask id="mask0_70_2852" style="mask-type:alpha" maskUnits="userSpaceOnUse" x="168" y="8" width="24" height="24">
<rect x="168" y="8" width="24" height="24" fill="#914EA5"/>
</mask>
<g mask="url(#mask0_70_2852)">
<path d="M179 21V24C179 24.2833 179.096 24.5208 179.288 24.7125C179.479 24.9042 179.717 25 180 25C180.283 25 180.521 24.9042 180.713 24.7125C180.904 24.5208 181 24.2833 181 24V21H184C184.283 21 184.521 20.9042 184.713 20.7125C184.904 20.5208 185 20.2833 185 20C185 19.7167 184.904 19.4792 184.713 19.2875C184.521 19.0958 184.283 19 184 19H181V16C181 15.7167 180.904 15.4792 180.713 15.2875C180.521 15.0958 180.283 15 180 15C179.717 15 179.479 15.0958 179.288 15.2875C179.096 15.4792 179 15.7167 179 16V19H176C175.717 19 175.479 19.0958 175.287 19.2875C175.096 19.4792 175 19.7167 175 20C175 20.2833 175.096 20.5208 175.287 20.7125C175.479 20.9042 175.717 21 176 21H179ZM180 30C178.617 30 177.317 29.7375 176.1 29.2125C174.883 28.6875 173.825 27.975 172.925 27.075C172.025 26.175 171.312 25.1167 170.788 23.9C170.262 22.6833 170 21.3833 170 20C170 18.6167 170.262 17.3167 170.788 16.1C171.312 14.8833 172.025 13.825 172.925 12.925C173.825 12.025 174.883 11.3125 176.1 10.7875C177.317 10.2625 178.617 10 180 10C181.383 10 182.683 10.2625 183.9 10.7875C185.117 11.3125 186.175 12.025 187.075 12.925C187.975 13.825 188.688 14.8833 189.212 16.1C189.737 17.3167 190 18.6167 190 20C190 21.3833 189.737 22.6833 189.212 23.9C188.688 25.1167 187.975 26.175 187.075 27.075C186.175 27.975 185.117 28.6875 183.9 29.2125C182.683 29.7375 181.383 30 180 30ZM180 28C182.233 28 184.125 27.225 185.675 25.675C187.225 24.125 188 22.2333 188 20C188 17.7667 187.225 15.875 185.675 14.325C184.125 12.775 182.233 12 180 12C177.767 12 175.875 12.775 174.325 14.325C172.775 15.875 172 17.7667 172 20C172 22.2333 172.775 24.125 174.325 25.675C175.875 27.225 177.767 28 180 28Z" fill="#FEFDFF"/>
</g>
</svg>
