<svg width="112" height="37" viewBox="0 0 112 37" fill="none" xmlns="http://www.w3.org/2000/svg">
<rect width="112" height="37" rx="10" fill="#FFB770" fill-opacity="0.3"/>
<path d="M18.9922 11.5312L23.0391 23H20.4297L19.6016 20.2812H15.4375L14.6094 23H12L16.0312 11.5312H18.9922ZM16.8672 15.5938L16.0469 18.25H19.0234L18.1953 15.5938L17.9844 14.8984C17.9115 14.6536 17.8281 14.3776 17.7344 14.0703C17.6406 13.7578 17.5703 13.5026 17.5234 13.3047C17.4974 13.4089 17.4635 13.5286 17.4219 13.6641C17.3854 13.7943 17.3464 13.9375 17.3047 14.0938C17.2161 14.4115 17.1302 14.7109 17.0469 14.9922C16.9688 15.2734 16.9089 15.474 16.8672 15.5938ZM26.7344 23.1562C25.7656 23.1562 24.974 22.776 24.3594 22.0156C23.7448 21.2552 23.4375 20.1328 23.4375 18.6484C23.4375 17.1536 23.7474 16.0234 24.3672 15.2578C24.987 14.487 25.7969 14.1016 26.7969 14.1016C27.4271 14.1016 27.9453 14.2266 28.3516 14.4766C28.7578 14.7214 29.0781 15.0234 29.3125 15.3828H29.3906C29.3594 15.2109 29.3203 14.9635 29.2734 14.6406C29.2318 14.3125 29.2109 13.9792 29.2109 13.6406V10.8438H31.5938V23H29.7734L29.3125 21.8672H29.2109C28.9766 22.2266 28.6615 22.5312 28.2656 22.7812C27.875 23.0312 27.3646 23.1562 26.7344 23.1562ZM27.5625 21.2578C28.2135 21.2578 28.6719 21.0625 28.9375 20.6719C29.2083 20.2812 29.3542 19.6979 29.375 18.9219V18.6641C29.375 17.8203 29.2422 17.1719 28.9766 16.7188C28.7161 16.2656 28.2344 16.0391 27.5312 16.0391C27.0104 16.0391 26.599 16.2656 26.2969 16.7188C26 17.1719 25.8516 17.8255 25.8516 18.6797C25.8516 19.5339 26 20.1771 26.2969 20.6094C26.599 21.0417 27.0208 21.2578 27.5625 21.2578ZM36.8594 23.1562C35.8906 23.1562 35.099 22.776 34.4844 22.0156C33.8698 21.2552 33.5625 20.1328 33.5625 18.6484C33.5625 17.1536 33.8724 16.0234 34.4922 15.2578C35.112 14.487 35.9219 14.1016 36.9219 14.1016C37.5521 14.1016 38.0703 14.2266 38.4766 14.4766C38.8828 14.7214 39.2031 15.0234 39.4375 15.3828H39.5156C39.4844 15.2109 39.4453 14.9635 39.3984 14.6406C39.3568 14.3125 39.3359 13.9792 39.3359 13.6406V10.8438H41.7188V23H39.8984L39.4375 21.8672H39.3359C39.1016 22.2266 38.7865 22.5312 38.3906 22.7812C38 23.0312 37.4896 23.1562 36.8594 23.1562ZM37.6875 21.2578C38.3385 21.2578 38.7969 21.0625 39.0625 20.6719C39.3333 20.2812 39.4792 19.6979 39.5 18.9219V18.6641C39.5 17.8203 39.3672 17.1719 39.1016 16.7188C38.8411 16.2656 38.3594 16.0391 37.6562 16.0391C37.1354 16.0391 36.724 16.2656 36.4219 16.7188C36.125 17.1719 35.9766 17.8255 35.9766 18.6797C35.9766 19.5339 36.125 20.1771 36.4219 20.6094C36.724 21.0417 37.1458 21.2578 37.6875 21.2578ZM56.3047 18.6172C56.3047 20.0651 55.9245 21.1849 55.1641 21.9766C54.4036 22.763 53.3672 23.1562 52.0547 23.1562C51.2422 23.1562 50.5182 22.9792 49.8828 22.625C49.2474 22.2708 48.7474 21.7578 48.3828 21.0859C48.0234 20.4089 47.8438 19.5859 47.8438 18.6172C47.8438 17.1641 48.2214 16.0495 48.9766 15.2734C49.737 14.4922 50.7786 14.1016 52.1016 14.1016C52.9193 14.1016 53.6432 14.276 54.2734 14.625C54.9036 14.974 55.3984 15.487 55.7578 16.1641C56.1224 16.8411 56.3047 17.6589 56.3047 18.6172ZM50.2734 18.6172C50.2734 19.4818 50.4141 20.1354 50.6953 20.5781C50.9818 21.0208 51.4453 21.2422 52.0859 21.2422C52.7161 21.2422 53.1719 21.0208 53.4531 20.5781C53.7344 20.1354 53.875 19.4818 53.875 18.6172C53.875 17.7526 53.7344 17.1042 53.4531 16.6719C53.1719 16.2396 52.7109 16.0234 52.0703 16.0234C51.4401 16.0234 50.9818 16.2396 50.6953 16.6719C50.4141 17.1042 50.2734 17.7526 50.2734 18.6172ZM63.1406 14.1016C64.1198 14.1016 64.9115 14.4844 65.5156 15.25C66.125 16.0104 66.4297 17.1328 66.4297 18.6172C66.4297 20.112 66.1146 21.2422 65.4844 22.0078C64.8594 22.7734 64.0547 23.1562 63.0703 23.1562C62.4453 23.1562 61.9453 23.0417 61.5703 22.8125C61.1953 22.5833 60.8906 22.3255 60.6562 22.0391H60.5312C60.6146 22.4714 60.6562 22.8984 60.6562 23.3203V26.8438H58.2734V14.2656H60.2109L60.5469 15.3984H60.6562C60.8906 15.0495 61.2057 14.7474 61.6016 14.4922C61.9974 14.2318 62.5104 14.1016 63.1406 14.1016ZM62.3672 16.0078C61.7526 16.0078 61.3151 16.2031 61.0547 16.5938C60.7995 16.9844 60.6667 17.5677 60.6562 18.3438V18.6016C60.6562 19.4453 60.7812 20.0938 61.0312 20.5469C61.2812 21 61.737 21.2266 62.3984 21.2266C62.9453 21.2266 63.349 21 63.6094 20.5469C63.8698 20.0938 64 19.4401 64 18.5859C64 16.8672 63.4557 16.0078 62.3672 16.0078ZM72.0859 21.2578C72.3516 21.2578 72.6068 21.2344 72.8516 21.1875C73.0964 21.1354 73.3411 21.0677 73.5859 20.9844V22.7578C73.3307 22.8776 73.013 22.974 72.6328 23.0469C72.2578 23.1198 71.8464 23.1562 71.3984 23.1562C70.8724 23.1562 70.4062 23.0703 70 22.8984C69.5885 22.7318 69.2604 22.4401 69.0156 22.0234C68.776 21.6068 68.6562 21.0208 68.6562 20.2656V16.0547H67.5234V15.0469L68.8359 14.25L69.5234 12.4062H71.0469V14.2656H73.4922V16.0547H71.0469V20.2656C71.0469 20.5938 71.1406 20.8411 71.3281 21.0078C71.5208 21.1745 71.7734 21.2578 72.0859 21.2578ZM76.5391 10.8438C76.888 10.8438 77.1901 10.9271 77.4453 11.0938C77.7057 11.2552 77.8359 11.5599 77.8359 12.0078C77.8359 12.4453 77.7057 12.75 77.4453 12.9219C77.1901 13.0938 76.888 13.1797 76.5391 13.1797C76.1745 13.1797 75.8672 13.0938 75.6172 12.9219C75.3672 12.75 75.2422 12.4453 75.2422 12.0078C75.2422 11.5599 75.3672 11.2552 75.6172 11.0938C75.8672 10.9271 76.1745 10.8438 76.5391 10.8438ZM75.3359 23V14.2656H77.7188V23H75.3359ZM88.1484 18.6172C88.1484 20.0651 87.7682 21.1849 87.0078 21.9766C86.2474 22.763 85.2109 23.1562 83.8984 23.1562C83.0859 23.1562 82.362 22.9792 81.7266 22.625C81.0911 22.2708 80.5911 21.7578 80.2266 21.0859C79.8672 20.4089 79.6875 19.5859 79.6875 18.6172C79.6875 17.1641 80.0651 16.0495 80.8203 15.2734C81.5807 14.4922 82.6224 14.1016 83.9453 14.1016C84.763 14.1016 85.487 14.276 86.1172 14.625C86.7474 14.974 87.2422 15.487 87.6016 16.1641C87.9661 16.8411 88.1484 17.6589 88.1484 18.6172ZM82.1172 18.6172C82.1172 19.4818 82.2578 20.1354 82.5391 20.5781C82.8255 21.0208 83.2891 21.2422 83.9297 21.2422C84.5599 21.2422 85.0156 21.0208 85.2969 20.5781C85.5781 20.1354 85.7188 19.4818 85.7188 18.6172C85.7188 17.7526 85.5781 17.1042 85.2969 16.6719C85.0156 16.2396 84.5547 16.0234 83.9141 16.0234C83.2839 16.0234 82.8255 16.2396 82.5391 16.6719C82.2578 17.1042 82.1172 17.7526 82.1172 18.6172ZM95.0781 14.1016C96.0156 14.1016 96.7656 14.3568 97.3281 14.8672C97.8958 15.3724 98.1797 16.1849 98.1797 17.3047V23H95.7969V17.8984C95.7969 17.2682 95.6849 16.7969 95.4609 16.4844C95.237 16.1667 94.8802 16.0078 94.3906 16.0078C93.6667 16.0078 93.1693 16.2552 92.8984 16.75C92.6328 17.2448 92.5 17.9583 92.5 18.8906V23H90.1172V14.2656H91.9375L92.2578 15.3828H92.3906C92.6667 14.9349 93.0469 14.6094 93.5312 14.4062C94.0156 14.2031 94.5312 14.1016 95.0781 14.1016Z" fill="#FEFDFF"/>
</svg>
