<svg width="111" height="40" viewBox="0 0 111 40" fill="none" xmlns="http://www.w3.org/2000/svg">
<rect width="111" height="40" rx="10" fill="#FFB770" fill-opacity="0.3"/>
<path d="M18.2812 14.9297C17.3542 14.9297 16.6432 15.2786 16.1484 15.9766C15.6589 16.6693 15.4141 17.6172 15.4141 18.8203C15.4141 20.0339 15.6406 20.974 16.0938 21.6406C16.5521 22.3073 17.2812 22.6406 18.2812 22.6406C18.7396 22.6406 19.2031 22.5885 19.6719 22.4844C20.1406 22.375 20.6484 22.2266 21.1953 22.0391V24.0703C20.6953 24.2734 20.1979 24.4219 19.7031 24.5156C19.2135 24.6094 18.6641 24.6562 18.0547 24.6562C16.8776 24.6562 15.9089 24.4141 15.1484 23.9297C14.3932 23.4453 13.8333 22.763 13.4688 21.8828C13.1042 21.0026 12.9219 19.9766 12.9219 18.8047C12.9219 17.6589 13.1302 16.6406 13.5469 15.75C13.9635 14.8646 14.5677 14.1719 15.3594 13.6719C16.1562 13.1667 17.1302 12.9141 18.2812 12.9141C18.849 12.9141 19.4167 12.987 19.9844 13.1328C20.5573 13.2786 21.1042 13.474 21.625 13.7188L20.8438 15.6875C20.4167 15.4844 19.987 15.3073 19.5547 15.1562C19.1224 15.0052 18.6979 14.9297 18.2812 14.9297ZM27.0156 15.5859C28.1927 15.5859 29.0911 15.8411 29.7109 16.3516C30.3359 16.8568 30.6484 17.6328 30.6484 18.6797V24.5H28.9844L28.5234 23.3125H28.4609C28.0859 23.7865 27.6901 24.1302 27.2734 24.3438C26.8568 24.5521 26.2865 24.6562 25.5625 24.6562C24.7865 24.6562 24.1406 24.4323 23.625 23.9844C23.1146 23.5365 22.8594 22.8385 22.8594 21.8906C22.8594 20.9635 23.1849 20.2812 23.8359 19.8438C24.487 19.4062 25.4635 19.1615 26.7656 19.1094L28.2812 19.0625V18.6797C28.2812 18.2161 28.1615 17.8802 27.9219 17.6719C27.6823 17.4583 27.349 17.3516 26.9219 17.3516C26.4948 17.3516 26.0781 17.4141 25.6719 17.5391C25.2708 17.6589 24.8672 17.8073 24.4609 17.9844L23.6719 16.375C24.1354 16.1406 24.6536 15.9505 25.2266 15.8047C25.8047 15.6589 26.401 15.5859 27.0156 15.5859ZM28.2812 21.1719V20.4531L27.3516 20.4844C26.5859 20.5052 26.0521 20.6432 25.75 20.8984C25.4531 21.1536 25.3047 21.4896 25.3047 21.9062C25.3047 22.2708 25.4115 22.5312 25.625 22.6875C25.8385 22.8385 26.1172 22.9141 26.4609 22.9141C26.9714 22.9141 27.401 22.763 27.75 22.4609C28.1042 22.1589 28.2812 21.7292 28.2812 21.1719ZM38.0469 15.6016C38.9844 15.6016 39.7344 15.8568 40.2969 16.3672C40.8646 16.8724 41.1484 17.6849 41.1484 18.8047V24.5H38.7656V19.3984C38.7656 18.7682 38.6536 18.2969 38.4297 17.9844C38.2057 17.6667 37.849 17.5078 37.3594 17.5078C36.6354 17.5078 36.138 17.7552 35.8672 18.25C35.6016 18.7448 35.4688 19.4583 35.4688 20.3906V24.5H33.0859V15.7656H34.9062L35.2266 16.8828H35.3594C35.6354 16.4349 36.0156 16.1094 36.5 15.9062C36.9844 15.7031 37.5 15.6016 38.0469 15.6016ZM47.1562 24.6562C45.8542 24.6562 44.849 24.2995 44.1406 23.5859C43.4323 22.8724 43.0781 21.737 43.0781 20.1797C43.0781 19.1068 43.2604 18.237 43.625 17.5703C43.9844 16.8984 44.487 16.4036 45.1328 16.0859C45.7786 15.763 46.5234 15.6016 47.3672 15.6016C47.9661 15.6016 48.487 15.6615 48.9297 15.7812C49.3724 15.8958 49.7578 16.0339 50.0859 16.1953L49.3828 18.0391C49.0078 17.888 48.6562 17.7656 48.3281 17.6719C48.0052 17.5729 47.6849 17.5234 47.3672 17.5234C46.1276 17.5234 45.5078 18.4036 45.5078 20.1641C45.5078 21.0391 45.6693 21.6849 45.9922 22.1016C46.3203 22.5182 46.7786 22.7266 47.3672 22.7266C47.8672 22.7266 48.3099 22.6589 48.6953 22.5234C49.0807 22.388 49.4531 22.2031 49.8125 21.9688V24.0078C49.4531 24.2422 49.0729 24.4089 48.6719 24.5078C48.2708 24.6068 47.7656 24.6562 47.1562 24.6562ZM55.4219 15.6016C56.6302 15.6016 57.5859 15.9479 58.2891 16.6406C58.9922 17.3281 59.3438 18.3047 59.3438 19.5703V20.7266H53.7109C53.7318 21.3984 53.9323 21.9271 54.3125 22.3125C54.6927 22.6927 55.2188 22.8828 55.8906 22.8828C56.4427 22.8828 56.9505 22.8281 57.4141 22.7188C57.8776 22.6042 58.3568 22.4297 58.8516 22.1953V24.0391C58.4141 24.2526 57.9583 24.4089 57.4844 24.5078C57.0156 24.6068 56.4453 24.6562 55.7734 24.6562C54.9089 24.6562 54.138 24.4948 53.4609 24.1719C52.7839 23.849 52.2526 23.3594 51.8672 22.7031C51.487 22.0469 51.2969 21.2109 51.2969 20.1953C51.2969 19.1797 51.4714 18.3307 51.8203 17.6484C52.1641 16.9661 52.6458 16.4557 53.2656 16.1172C53.8854 15.7734 54.6042 15.6016 55.4219 15.6016ZM55.4375 17.2969C54.9688 17.2969 54.5859 17.4479 54.2891 17.75C53.9922 18.0469 53.8151 18.5104 53.7578 19.1406H57.1016C57.0911 18.6198 56.9505 18.1823 56.6797 17.8281C56.4089 17.474 55.9948 17.2969 55.4375 17.2969ZM61.2734 12.3438H63.6562V24.5H61.2734V12.3438Z" fill="#FEFDFF"/>
<mask id="mask0_56_839" style="mask-type:alpha" maskUnits="userSpaceOnUse" x="75" y="8" width="24" height="24">
<rect x="75" y="8" width="24" height="24" fill="#713A82"/>
</mask>
<g mask="url(#mask0_56_839)">
<path d="M86.9998 21.3998L82.0998 26.2998C81.9165 26.4831 81.6831 26.5748 81.3998 26.5748C81.1165 26.5748 80.8831 26.4831 80.6998 26.2998C80.5165 26.1165 80.4248 25.8831 80.4248 25.5998C80.4248 25.3165 80.5165 25.0831 80.6998 24.8998L85.5998 19.9998L80.6998 15.0998C80.5165 14.9165 80.4248 14.6831 80.4248 14.3998C80.4248 14.1165 80.5165 13.8831 80.6998 13.6998C80.8831 13.5165 81.1165 13.4248 81.3998 13.4248C81.6831 13.4248 81.9165 13.5165 82.0998 13.6998L86.9998 18.5998L91.8998 13.6998C92.0831 13.5165 92.3165 13.4248 92.5998 13.4248C92.8831 13.4248 93.1165 13.5165 93.2998 13.6998C93.4831 13.8831 93.5748 14.1165 93.5748 14.3998C93.5748 14.6831 93.4831 14.9165 93.2998 15.0998L88.3998 19.9998L93.2998 24.8998C93.4831 25.0831 93.5748 25.3165 93.5748 25.5998C93.5748 25.8831 93.4831 26.1165 93.2998 26.2998C93.1165 26.4831 92.8831 26.5748 92.5998 26.5748C92.3165 26.5748 92.0831 26.4831 91.8998 26.2998L86.9998 21.3998Z" fill="#FEFDFF"/>
</g>
</svg>
