<svg width="422" height="47" viewBox="0 0 422 47" fill="none" xmlns="http://www.w3.org/2000/svg">
<path d="M22.6239 26.7682C22.6239 26.7682 22.5679 27.0109 22.4559 27.4962C22.3439 27.9815 22.1013 28.5789 21.7279 29.2882C21.3546 29.9975 20.7759 30.7255 19.9919 31.4722C19.2453 32.1815 18.2186 32.7789 16.9119 33.2642C15.6053 33.7495 13.9626 33.9922 11.9839 33.9922C9.59461 33.9922 7.63461 33.6189 6.10395 32.8722C4.61061 32.1255 3.43461 31.1175 2.57595 29.8482C1.71728 28.5415 1.10128 27.1042 0.727945 25.5362C0.354612 23.9309 0.130612 22.2695 0.0559454 20.5522C0.018612 18.8349 0.0372787 17.1735 0.111945 15.5682C0.186612 13.9255 0.242612 12.4509 0.279945 11.1442C0.317279 9.16552 0.671945 7.57885 1.34395 6.38419C2.05328 5.15219 2.91195 4.21885 3.91995 3.58419C4.96528 2.91218 6.04795 2.44552 7.16795 2.18419C8.28795 1.92285 9.29595 1.77352 10.1919 1.73619C12.0213 1.62418 13.8693 1.94152 15.7359 2.68819C17.6026 3.43485 19.1146 4.81619 20.2719 6.83219C20.8693 7.84019 21.0373 8.64285 20.7759 9.24019C20.5519 9.80019 20.1226 10.2109 19.4879 10.4722C18.8906 10.7335 18.2746 10.9015 17.6399 10.9762C17.0053 11.0509 16.5946 11.0882 16.4079 11.0882C15.2133 11.0882 14.2986 10.9202 13.6639 10.5842C13.0666 10.2482 12.6373 9.85619 12.3759 9.40819C12.1519 8.92285 12.0399 8.49352 12.0399 8.12019C12.0399 7.82152 11.9466 7.52285 11.7599 7.22419C11.6106 6.88819 11.4053 6.66419 11.1439 6.55219C10.9199 6.44019 10.6773 6.57085 10.4159 6.94419C10.1919 7.31752 10.0053 8.04552 9.85595 9.12819C9.74395 9.98685 9.66928 11.1255 9.63195 12.5442C9.63195 13.9255 9.65061 15.4002 9.68795 16.9682C9.72528 18.4989 9.76261 19.9549 9.79995 21.3362C9.87461 22.7175 9.93061 23.8562 9.96795 24.7522C10.0426 25.6109 10.0799 26.0402 10.0799 26.0402C10.0799 26.0402 10.1173 26.3202 10.1919 26.8802C10.3039 27.4402 10.5093 28.0002 10.8079 28.5602C11.1439 29.1202 11.6293 29.4189 12.2639 29.4562C12.7493 29.4935 13.1226 29.3442 13.3839 29.0082C13.6826 28.6349 13.8879 28.2242 13.9999 27.7762C14.1493 27.2909 14.2426 26.8802 14.2799 26.5442C14.3173 26.1709 14.3359 25.9842 14.3359 25.9842C14.3359 25.9842 14.3173 25.8349 14.2799 25.5362C14.2799 25.2375 14.3733 24.9015 14.5599 24.5282C14.7466 24.1175 15.1386 23.7815 15.7359 23.5202C16.3333 23.2215 17.2479 23.0909 18.4799 23.1282C19.7119 23.1655 20.6266 23.3709 21.2239 23.7442C21.8213 24.0802 22.2133 24.4909 22.3999 24.9762C22.5866 25.4242 22.6613 25.8349 22.6239 26.2082C22.6239 26.5815 22.6239 26.7682 22.6239 26.7682ZM27.1214 30.1842C27.1214 29.7735 27.0654 29.0642 26.9534 28.0562C26.8414 27.0482 26.6921 25.9095 26.5054 24.6402C26.3561 23.3335 26.1881 22.0455 26.0014 20.7762C25.8148 19.4695 25.6094 18.3122 25.3854 17.3042C25.1988 16.2589 25.0308 15.5122 24.8814 15.0642C24.5081 13.9442 24.7134 13.1602 25.4974 12.7122C26.3188 12.2269 27.4574 11.9095 28.9134 11.7602C30.3694 11.6109 31.4148 11.7229 32.0494 12.0962C32.7214 12.4322 33.0574 12.6002 33.0574 12.6002C33.6174 12.0402 34.5321 11.6482 35.8014 11.4242C37.1081 11.2002 38.4708 11.1069 39.8894 11.1442C41.7188 11.1815 43.0441 11.4615 43.8654 11.9842C44.6868 12.5069 45.0974 13.0669 45.0974 13.6642C45.0974 14.1122 45.0414 14.4482 44.9294 14.6722C44.8174 14.8962 44.3694 15.1202 43.5854 15.3442C42.8388 15.5309 41.4761 15.8669 39.4974 16.3522C38.3401 16.6135 37.4814 17.2482 36.9214 18.2562C36.3614 19.2269 36.0068 20.3655 35.8574 21.6722C35.7454 22.9415 35.7454 24.2109 35.8574 25.4802C35.9694 26.7122 36.1001 27.7575 36.2494 28.6162C36.3988 29.4375 36.4734 29.8855 36.4734 29.9602C36.4734 30.0349 36.4921 30.2962 36.5294 30.7442C36.6041 31.1549 36.5481 31.6215 36.3614 32.1442C36.2121 32.6295 35.8201 33.0589 35.1854 33.4322C34.5508 33.8055 33.5428 33.9922 32.1614 33.9922C30.7801 33.9922 29.7348 33.8055 29.0254 33.4322C28.3161 33.0215 27.8308 32.5735 27.5694 32.0882C27.3081 31.6029 27.1588 31.1735 27.1214 30.8002C27.1214 30.3895 27.1214 30.1842 27.1214 30.1842ZM70.1408 17.0802C70.0288 18.9469 69.5062 20.4589 68.5728 21.6162C67.6395 22.7362 66.5008 23.5949 65.1568 24.1922C63.8502 24.7522 62.5435 25.1442 61.2368 25.3682C59.9302 25.5549 58.8288 25.6482 57.9328 25.6482C57.0742 25.6482 56.6448 25.6482 56.6448 25.6482C56.8688 26.9549 57.1862 27.8882 57.5968 28.4482C58.0075 29.0082 58.4555 29.3255 58.9408 29.4002C59.4635 29.4749 59.9488 29.4375 60.3968 29.2882C60.8448 29.1015 61.1995 28.8962 61.4608 28.6722C61.7595 28.4482 61.9088 28.3362 61.9088 28.3362C61.9088 28.3362 62.1142 28.1682 62.5248 27.8322C62.9355 27.4962 63.5702 27.1789 64.4288 26.8802C65.3248 26.5442 66.4448 26.3762 67.7888 26.3762C69.3195 26.3762 70.3462 26.5815 70.8688 26.9922C71.4288 27.3655 71.6902 27.8135 71.6528 28.3362C71.6528 28.8215 71.5408 29.2695 71.3168 29.6802C71.1302 30.0535 71.0368 30.2402 71.0368 30.2402C71.0368 30.2402 70.8688 30.4269 70.5328 30.8002C70.2342 31.1362 69.6742 31.5469 68.8528 32.0322C68.0315 32.5175 66.8928 32.9655 65.4368 33.3762C63.9808 33.7495 62.1142 33.9549 59.8368 33.9922C57.6342 34.0295 55.7862 33.7309 54.2928 33.0962C52.7995 32.4615 51.5675 31.6402 50.5968 30.6322C49.6262 29.5869 48.8795 28.5042 48.3568 27.3842C47.8715 26.2269 47.5168 25.1629 47.2928 24.1922C47.1062 23.1842 47.0128 22.4002 47.0128 21.8402C47.0128 21.2802 47.0502 20.5522 47.1248 19.6562C47.2368 18.7602 47.4795 17.8269 47.8528 16.8562C48.2635 15.8482 48.8795 14.8962 49.7008 14.0002C50.5222 13.1042 51.6422 12.3762 53.0608 11.8162C54.5168 11.2562 56.3648 10.9575 58.6048 10.9202C61.4048 10.8829 63.5888 11.1255 65.1568 11.6482C66.7248 12.1709 67.8635 12.8055 68.5728 13.5522C69.2822 14.2989 69.7115 15.0082 69.8608 15.6802C70.0475 16.3522 70.1408 16.8189 70.1408 17.0802ZM55.8608 21.7842C58.1382 21.5975 59.8368 21.1122 60.9568 20.3282C62.0768 19.5442 62.7302 18.6669 62.9168 17.6962C63.1035 16.7255 62.9168 15.9042 62.3568 15.2322C61.8342 14.5229 61.0315 14.2055 59.9488 14.2802C58.8662 14.3175 58.0448 14.7282 57.4848 15.5122C56.9248 16.2589 56.5328 17.1362 56.3088 18.1442C56.0848 19.1149 55.9542 19.9735 55.9168 20.7202C55.8795 21.4295 55.8608 21.7842 55.8608 21.7842ZM85.9018 10.8642C87.7684 10.8269 89.3551 10.9949 90.6618 11.3682C91.9684 11.7042 93.0511 12.1149 93.9098 12.6002C94.7684 13.0855 95.4404 13.5149 95.9258 13.8882C96.4111 14.2615 96.7658 14.4482 96.9898 14.4482C97.4004 14.4855 97.6991 14.6909 97.8858 15.0642C98.0724 15.4002 98.1658 15.5682 98.1658 15.5682C98.1658 15.5682 98.2218 15.9415 98.3338 16.6882C98.4458 17.4349 98.5764 18.3869 98.7258 19.5442C98.9124 20.7015 99.0804 21.9149 99.2298 23.1842C99.3791 24.4535 99.5098 25.6482 99.6218 26.7682C99.7338 27.8882 99.7898 28.7655 99.7898 29.4002C99.7898 30.4455 99.7151 31.2855 99.5658 31.9202C99.4538 32.5549 99.0804 33.0402 98.4458 33.3762C97.8111 33.6749 96.7658 33.8802 95.3098 33.9922C94.2271 34.0669 93.4431 34.0482 92.9578 33.9362C92.4724 33.8242 92.1738 33.6935 92.0618 33.5442C91.9498 33.3949 91.8938 33.3202 91.8938 33.3202C91.5578 33.5815 90.9978 33.7682 90.2138 33.8802C89.4671 33.9549 88.7578 33.9922 88.0858 33.9922C87.4138 33.9922 87.0778 33.9922 87.0778 33.9922C87.0778 33.9922 86.6484 33.9362 85.7898 33.8242C84.9311 33.6749 83.8671 33.3949 82.5978 32.9842C81.3658 32.5362 80.1151 31.8829 78.8458 31.0242C77.6138 30.1282 76.5871 28.9522 75.7658 27.4962C74.9444 26.0029 74.5524 24.1549 74.5898 21.9522C74.6271 19.7495 75.0378 17.9575 75.8218 16.5762C76.6058 15.1575 77.5578 14.0562 78.6778 13.2722C79.7978 12.4882 80.8991 11.9282 81.9818 11.5922C83.1018 11.2562 84.0351 11.0509 84.7818 10.9762C85.5284 10.9015 85.9018 10.8642 85.9018 10.8642ZM90.1018 16.6322C89.9151 16.3709 89.5044 16.0909 88.8698 15.7922C88.2724 15.4562 87.6938 15.1762 87.1338 14.9522C86.6111 14.7282 86.3498 14.6535 86.3498 14.7282C86.3498 14.7655 86.1444 15.0829 85.7338 15.6802C85.3604 16.2402 84.9684 17.0802 84.5578 18.2002C84.1844 19.2829 83.9791 20.5895 83.9418 22.1202C83.9044 23.6509 84.1098 24.9762 84.5578 26.0962C85.0058 27.2162 85.5471 28.0749 86.1818 28.6722C86.8538 29.2695 87.4698 29.5682 88.0298 29.5682C88.4404 29.5682 88.8324 29.3815 89.2058 29.0082C89.5791 28.5975 89.8964 28.1495 90.1578 27.6642C90.4191 27.1415 90.6244 26.6935 90.7738 26.3202C90.9231 25.9469 90.9978 25.7602 90.9978 25.7602L90.1018 16.6322ZM102.372 3.41619C102.335 2.48285 102.615 1.73619 103.212 1.17619C103.81 0.578852 105.135 0.224185 107.188 0.112186C108.57 0.0375185 109.578 0.205519 110.212 0.616187C110.847 1.02685 111.239 1.45619 111.388 1.90419C111.575 2.31485 111.668 2.52019 111.668 2.52019L112.004 7.50419C112.004 7.50419 112.303 7.50419 112.9 7.50419C113.535 7.50419 114.244 7.57885 115.028 7.72819C115.85 7.84019 116.559 8.08285 117.156 8.45619C117.791 8.82952 118.108 9.40819 118.108 10.1922C118.108 10.9762 117.81 11.5549 117.212 11.9282C116.615 12.3015 115.924 12.5629 115.14 12.7122C114.356 12.8242 113.647 12.8802 113.012 12.8802C112.415 12.8802 112.116 12.8802 112.116 12.8802C112.116 12.8802 112.116 13.3095 112.116 14.1682C112.154 14.9895 112.172 16.0722 112.172 17.4162C112.172 18.7229 112.191 20.1229 112.228 21.6162C112.266 23.1095 112.284 24.5469 112.284 25.9282C112.284 27.2722 112.284 28.4109 112.284 29.3442C112.322 30.2402 112.34 30.7629 112.34 30.9122C112.34 31.1735 112.247 31.5469 112.06 32.0322C111.911 32.5175 111.482 32.9655 110.772 33.3762C110.1 33.7869 108.98 33.9922 107.412 33.9922C106.255 33.9922 105.359 33.8615 104.724 33.6002C104.09 33.3015 103.623 32.9842 103.324 32.6482C103.063 32.2749 102.914 31.9575 102.876 31.6962C102.839 31.3975 102.82 31.2482 102.82 31.2482L102.372 3.41619ZM143.094 17.0802C142.982 18.9469 142.459 20.4589 141.526 21.6162C140.593 22.7362 139.454 23.5949 138.11 24.1922C136.803 24.7522 135.497 25.1442 134.19 25.3682C132.883 25.5549 131.782 25.6482 130.886 25.6482C130.027 25.6482 129.598 25.6482 129.598 25.6482C129.822 26.9549 130.139 27.8882 130.55 28.4482C130.961 29.0082 131.409 29.3255 131.894 29.4002C132.417 29.4749 132.902 29.4375 133.35 29.2882C133.798 29.1015 134.153 28.8962 134.414 28.6722C134.713 28.4482 134.862 28.3362 134.862 28.3362C134.862 28.3362 135.067 28.1682 135.478 27.8322C135.889 27.4962 136.523 27.1789 137.382 26.8802C138.278 26.5442 139.398 26.3762 140.742 26.3762C142.273 26.3762 143.299 26.5815 143.822 26.9922C144.382 27.3655 144.643 27.8135 144.606 28.3362C144.606 28.8215 144.494 29.2695 144.27 29.6802C144.083 30.0535 143.99 30.2402 143.99 30.2402C143.99 30.2402 143.822 30.4269 143.486 30.8002C143.187 31.1362 142.627 31.5469 141.806 32.0322C140.985 32.5175 139.846 32.9655 138.39 33.3762C136.934 33.7495 135.067 33.9549 132.79 33.9922C130.587 34.0295 128.739 33.7309 127.246 33.0962C125.753 32.4615 124.521 31.6402 123.55 30.6322C122.579 29.5869 121.833 28.5042 121.31 27.3842C120.825 26.2269 120.47 25.1629 120.246 24.1922C120.059 23.1842 119.966 22.4002 119.966 21.8402C119.966 21.2802 120.003 20.5522 120.078 19.6562C120.19 18.7602 120.433 17.8269 120.806 16.8562C121.217 15.8482 121.833 14.8962 122.654 14.0002C123.475 13.1042 124.595 12.3762 126.014 11.8162C127.47 11.2562 129.318 10.9575 131.558 10.9202C134.358 10.8829 136.542 11.1255 138.11 11.6482C139.678 12.1709 140.817 12.8055 141.526 13.5522C142.235 14.2989 142.665 15.0082 142.814 15.6802C143.001 16.3522 143.094 16.8189 143.094 17.0802ZM128.814 21.7842C131.091 21.5975 132.79 21.1122 133.91 20.3282C135.03 19.5442 135.683 18.6669 135.87 17.6962C136.057 16.7255 135.87 15.9042 135.31 15.2322C134.787 14.5229 133.985 14.2055 132.902 14.2802C131.819 14.3175 130.998 14.7282 130.438 15.5122C129.878 16.2589 129.486 17.1362 129.262 18.1442C129.038 19.1149 128.907 19.9735 128.87 20.7202C128.833 21.4295 128.814 21.7842 128.814 21.7842ZM168.418 33.9922C168.418 33.9922 168.175 33.9922 167.69 33.9922C167.204 33.9922 166.644 33.9175 166.01 33.7682C165.412 33.6189 164.871 33.3202 164.386 32.8722C163.9 32.4242 163.62 31.7709 163.546 30.9122C163.508 30.2029 163.434 29.1949 163.322 27.8882C163.21 26.5815 163.079 25.1629 162.93 23.6322C162.818 22.0642 162.706 20.5895 162.594 19.2082C162.482 17.7895 162.388 16.6322 162.314 15.7362C162.239 14.8402 162.202 14.3922 162.202 14.3922C162.202 14.3922 162.22 14.2429 162.258 13.9442C162.295 13.6082 162.426 13.2349 162.65 12.8242C162.911 12.4135 163.34 12.0402 163.938 11.7042C164.572 11.3682 165.45 11.1815 166.57 11.1442C167.69 11.1069 168.567 11.2189 169.202 11.4802C169.836 11.7415 170.284 12.0589 170.546 12.4322C170.844 12.7682 171.012 13.0855 171.05 13.3842C171.124 13.6455 171.162 13.7762 171.162 13.7762C171.162 13.7762 171.498 13.6082 172.17 13.2722C172.879 12.8989 173.775 12.5255 174.858 12.1522C175.978 11.7789 177.154 11.5549 178.386 11.4802C178.572 11.4802 178.927 11.4802 179.45 11.4802C180.01 11.4802 180.607 11.6109 181.242 11.8722C181.914 12.0962 182.567 12.5442 183.202 13.2162C183.874 13.8882 184.434 14.8775 184.882 16.1842C185.33 17.4535 185.591 19.1335 185.666 21.2242C185.778 23.8375 185.852 25.9842 185.89 27.6642C185.964 29.3442 185.908 30.6509 185.722 31.5842C185.572 32.4802 185.199 33.1149 184.602 33.4882C184.042 33.8242 183.146 33.9922 181.914 33.9922C180.719 33.9922 179.842 33.8242 179.282 33.4882C178.722 33.1522 178.367 32.7602 178.218 32.3122C178.068 31.8269 177.994 31.3975 177.994 31.0242C177.994 30.8002 178.031 30.2029 178.106 29.2322C178.18 28.2242 178.236 27.0855 178.274 25.8162C178.311 24.5095 178.292 23.2402 178.218 22.0082C178.18 20.7389 178.031 19.7122 177.77 18.9282C177.546 18.1069 177.172 17.7149 176.65 17.7522C176.015 17.7895 175.418 18.0322 174.858 18.4802C174.335 18.8909 173.868 19.3762 173.458 19.9362C173.047 20.4589 172.73 20.9255 172.506 21.3362C172.282 21.7095 172.17 21.8962 172.17 21.8962L172.73 30.3522C172.73 30.3522 172.73 30.5389 172.73 30.9122C172.73 31.2855 172.618 31.7149 172.394 32.2002C172.17 32.6482 171.74 33.0589 171.106 33.4322C170.508 33.8055 169.612 33.9922 168.418 33.9922ZM211.016 17.0802C210.904 18.9469 210.381 20.4589 209.448 21.6162C208.514 22.7362 207.376 23.5949 206.032 24.1922C204.725 24.7522 203.418 25.1442 202.112 25.3682C200.805 25.5549 199.704 25.6482 198.808 25.6482C197.949 25.6482 197.52 25.6482 197.52 25.6482C197.744 26.9549 198.061 27.8882 198.472 28.4482C198.882 29.0082 199.33 29.3255 199.816 29.4002C200.338 29.4749 200.824 29.4375 201.272 29.2882C201.72 29.1015 202.074 28.8962 202.336 28.6722C202.634 28.4482 202.784 28.3362 202.784 28.3362C202.784 28.3362 202.989 28.1682 203.4 27.8322C203.81 27.4962 204.445 27.1789 205.304 26.8802C206.2 26.5442 207.32 26.3762 208.664 26.3762C210.194 26.3762 211.221 26.5815 211.744 26.9922C212.304 27.3655 212.565 27.8135 212.528 28.3362C212.528 28.8215 212.416 29.2695 212.192 29.6802C212.005 30.0535 211.912 30.2402 211.912 30.2402C211.912 30.2402 211.744 30.4269 211.408 30.8002C211.109 31.1362 210.549 31.5469 209.728 32.0322C208.906 32.5175 207.768 32.9655 206.312 33.3762C204.856 33.7495 202.989 33.9549 200.712 33.9922C198.509 34.0295 196.661 33.7309 195.168 33.0962C193.674 32.4615 192.442 31.6402 191.472 30.6322C190.501 29.5869 189.754 28.5042 189.232 27.3842C188.746 26.2269 188.392 25.1629 188.168 24.1922C187.981 23.1842 187.888 22.4002 187.888 21.8402C187.888 21.2802 187.925 20.5522 188 19.6562C188.112 18.7602 188.354 17.8269 188.728 16.8562C189.138 15.8482 189.754 14.8962 190.576 14.0002C191.397 13.1042 192.517 12.3762 193.936 11.8162C195.392 11.2562 197.24 10.9575 199.48 10.9202C202.28 10.8829 204.464 11.1255 206.032 11.6482C207.6 12.1709 208.738 12.8055 209.448 13.5522C210.157 14.2989 210.586 15.0082 210.736 15.6802C210.922 16.3522 211.016 16.8189 211.016 17.0802ZM196.736 21.7842C199.013 21.5975 200.712 21.1122 201.832 20.3282C202.952 19.5442 203.605 18.6669 203.792 17.6962C203.978 16.7255 203.792 15.9042 203.232 15.2322C202.709 14.5229 201.906 14.2055 200.824 14.2802C199.741 14.3175 198.92 14.7282 198.36 15.5122C197.8 16.2589 197.408 17.1362 197.184 18.1442C196.96 19.1149 196.829 19.9735 196.792 20.7202C196.754 21.4295 196.736 21.7842 196.736 21.7842ZM219.273 11.8722C220.542 11.7602 221.531 11.8162 222.241 12.0402C222.987 12.2269 223.529 12.4882 223.865 12.8242C224.238 13.1602 224.462 13.4775 224.537 13.7762C224.649 14.0375 224.705 14.1682 224.705 14.1682L227.561 24.5842L228.961 20.4962C228.961 20.4962 229.073 20.2722 229.297 19.8242C229.558 19.3762 230.025 18.9282 230.697 18.4802C231.369 18.0322 232.339 17.8269 233.609 17.8642C234.915 17.8642 235.867 18.0695 236.465 18.4802C237.099 18.8909 237.51 19.3015 237.697 19.7122C237.921 20.1229 238.033 20.3282 238.033 20.3282L239.489 24.4722C239.489 24.4722 239.582 24.1362 239.769 23.4642C239.993 22.7549 240.273 21.8775 240.609 20.8322C240.945 19.7495 241.281 18.6669 241.617 17.5842C241.953 16.5015 242.233 15.5495 242.457 14.7282C242.718 13.8695 242.886 13.3282 242.961 13.1042C243.073 12.7309 243.278 12.3575 243.577 11.9842C243.875 11.6109 244.398 11.3122 245.145 11.0882C245.929 10.8269 247.067 10.7522 248.561 10.8642C249.681 10.9389 250.502 11.1255 251.025 11.4242C251.547 11.7229 251.883 12.0589 252.033 12.4322C252.182 12.8055 252.238 13.1229 252.201 13.3842C252.163 13.6455 252.145 13.7762 252.145 13.7762C252.145 13.7762 251.995 14.1682 251.697 14.9522C251.435 15.7362 251.081 16.7442 250.633 17.9762C250.185 19.2082 249.699 20.5335 249.177 21.9522C248.691 23.3709 248.206 24.7335 247.721 26.0402C247.273 27.3469 246.881 28.4669 246.545 29.4002C246.209 30.2962 246.003 30.8375 245.929 31.0242C245.779 31.3975 245.537 31.8269 245.201 32.3122C244.902 32.7602 244.435 33.1522 243.801 33.4882C243.203 33.8242 242.326 33.9922 241.169 33.9922C240.049 33.9922 239.134 33.8615 238.425 33.6002C237.753 33.3389 237.249 33.0775 236.913 32.8162C236.614 32.5549 236.465 32.4242 236.465 32.4242L233.329 27.7202L230.697 31.8642C230.697 31.8642 230.585 32.0509 230.361 32.4242C230.137 32.7602 229.67 33.1149 228.961 33.4882C228.251 33.8242 227.15 33.9922 225.657 33.9922C224.537 33.9922 223.659 33.8242 223.025 33.4882C222.39 33.1522 221.905 32.7789 221.569 32.3682C221.27 31.9575 221.065 31.5842 220.953 31.2482C220.878 30.9122 220.841 30.7442 220.841 30.7442C220.841 30.7442 220.71 30.3335 220.449 29.5122C220.187 28.6909 219.833 27.6455 219.385 26.3762C218.974 25.1069 218.526 23.7815 218.041 22.4002C217.593 20.9815 217.145 19.6562 216.697 18.4242C216.286 17.1922 215.95 16.2215 215.689 15.5122C215.353 14.6535 215.297 13.9815 215.521 13.4962C215.782 13.0109 216.155 12.6562 216.641 12.4322C217.126 12.2082 217.63 12.0775 218.153 12.0402C218.675 11.9655 219.049 11.9095 219.273 11.8722ZM281.54 25.0322C278.74 24.9575 276.556 24.6775 274.988 24.1922C273.42 23.7069 272.3 23.1282 271.628 22.4562C270.993 21.7842 270.601 21.1309 270.452 20.4962C270.303 19.8242 270.228 19.3015 270.228 18.9282C270.228 18.5549 270.284 17.9762 270.396 17.1922C270.508 16.4082 270.863 15.5869 271.46 14.7282C272.057 13.8695 273.084 13.1229 274.54 12.4882C276.033 11.8535 278.143 11.4989 280.868 11.4242C283.855 11.3495 286.151 11.5175 287.756 11.9282C289.361 12.3389 290.5 12.8242 291.172 13.3842C291.881 13.9442 292.311 14.4482 292.46 14.8962C292.609 15.3069 292.684 15.5122 292.684 15.5122C292.684 15.9975 292.628 16.5015 292.516 17.0242C292.404 17.5095 292.068 17.9202 291.508 18.2562C290.985 18.5549 290.071 18.6855 288.764 18.6482C287.719 18.6109 286.935 18.5175 286.412 18.3682C285.889 18.2189 285.497 18.0509 285.236 17.8642C285.012 17.6402 284.769 17.4162 284.508 17.1922C284.284 16.9682 283.929 16.7815 283.444 16.6322C282.996 16.4829 282.268 16.3895 281.26 16.3522C280.028 16.3149 279.095 16.4082 278.46 16.6322C277.863 16.8189 277.452 17.0615 277.228 17.3602C277.041 17.6589 276.929 17.9202 276.892 18.1442C276.892 18.3309 276.892 18.4242 276.892 18.4242C276.892 18.4242 276.929 18.5735 277.004 18.8722C277.116 19.1709 277.489 19.4695 278.124 19.7682C278.796 20.0669 279.991 20.2349 281.708 20.2722C284.956 20.3842 287.439 20.7015 289.156 21.2242C290.911 21.7095 292.143 22.2882 292.852 22.9602C293.599 23.6322 294.028 24.3042 294.14 24.9762C294.289 25.6109 294.364 26.1149 294.364 26.4882C294.364 26.8615 294.233 27.4402 293.972 28.2242C293.748 29.0082 293.244 29.8295 292.46 30.6882C291.676 31.5469 290.463 32.2935 288.82 32.9282C287.215 33.5629 285.049 33.9175 282.324 33.9922C279.375 34.0669 277.079 33.8989 275.436 33.4882C273.831 33.0775 272.673 32.5922 271.964 32.0322C271.292 31.4722 270.881 30.9869 270.732 30.5762C270.583 30.1282 270.508 29.9042 270.508 29.9042C270.508 29.3815 270.564 28.8775 270.676 28.3922C270.825 27.9069 271.161 27.5149 271.684 27.2162C272.244 26.8802 273.159 26.7309 274.428 26.7682C275.511 26.8055 276.295 26.8989 276.78 27.0482C277.303 27.1975 277.695 27.3842 277.956 27.6082C278.217 27.7949 278.46 28.0002 278.684 28.2242C278.908 28.4482 279.263 28.6349 279.748 28.7842C280.233 28.9335 280.961 29.0269 281.932 29.0642C283.164 29.1015 284.079 29.0269 284.676 28.8402C285.311 28.6162 285.74 28.3549 285.964 28.0562C286.188 27.7575 286.3 27.5149 286.3 27.3282C286.3 27.1042 286.3 26.9922 286.3 26.9922C286.3 26.9922 286.263 26.8429 286.188 26.5442C286.113 26.2082 285.74 25.8909 285.068 25.5922C284.433 25.2562 283.257 25.0695 281.54 25.0322ZM296.84 14.6162C296.84 14.6162 296.84 14.4482 296.84 14.1122C296.877 13.7762 297.008 13.4029 297.232 12.9922C297.456 12.5442 297.866 12.1522 298.464 11.8162C299.098 11.4802 299.994 11.3122 301.152 11.3122C302.57 11.3122 303.578 11.5175 304.176 11.9282C304.81 12.3015 305.184 12.7682 305.296 13.3282C305.445 13.8509 305.482 14.3735 305.408 14.8962C305.333 15.3815 305.296 15.7175 305.296 15.9042C305.296 16.0535 305.296 16.6135 305.296 17.5842C305.333 18.5175 305.408 19.6375 305.52 20.9442C305.632 22.2509 305.818 23.5389 306.08 24.8082C306.341 26.0775 306.714 27.1415 307.2 28.0002C307.685 28.8215 308.32 29.2135 309.104 29.1762C309.888 29.1389 310.41 28.7282 310.672 27.9442C310.933 27.1602 311.026 26.1895 310.952 25.0322C310.914 23.8749 310.784 22.7175 310.56 21.5602C310.336 20.4029 310.112 19.4135 309.888 18.5922C309.664 17.7335 309.552 17.2482 309.552 17.1362C309.552 16.9869 309.496 16.7255 309.384 16.3522C309.309 15.9415 309.309 15.4935 309.384 15.0082C309.496 14.5229 309.813 14.0749 310.336 13.6642C310.858 13.2535 311.717 12.9922 312.912 12.8802C314.106 12.7682 315.04 12.8429 315.712 13.1042C316.421 13.3282 316.925 13.6269 317.224 14.0002C317.56 14.3735 317.765 14.7282 317.84 15.0642C317.914 15.3629 317.952 15.5122 317.952 15.5122C317.952 15.5122 318.082 15.9602 318.344 16.8562C318.605 17.7522 318.848 18.9095 319.072 20.3282C319.296 21.7095 319.37 23.1842 319.296 24.7522C319.258 26.3202 318.922 27.8135 318.288 29.2322C317.69 30.6135 316.682 31.7522 315.264 32.6482C313.882 33.5442 311.941 33.9922 309.44 33.9922C306.938 33.9922 304.885 33.5255 303.28 32.5922C301.674 31.6589 300.405 30.4642 299.472 29.0082C298.576 27.5149 297.922 25.9469 297.512 24.3042C297.101 22.6615 296.858 21.1122 296.784 19.6562C296.709 18.1629 296.69 16.9495 296.728 16.0162C296.802 15.0829 296.84 14.6162 296.84 14.6162ZM324.129 30.1842C324.129 29.7735 324.073 29.0642 323.961 28.0562C323.849 27.0482 323.7 25.9095 323.513 24.6402C323.364 23.3335 323.196 22.0455 323.009 20.7762C322.823 19.4695 322.617 18.3122 322.393 17.3042C322.207 16.2589 322.039 15.5122 321.889 15.0642C321.516 13.9442 321.721 13.1602 322.505 12.7122C323.327 12.2269 324.465 11.9095 325.921 11.7602C327.377 11.6109 328.423 11.7229 329.057 12.0962C329.729 12.4322 330.065 12.6002 330.065 12.6002C330.625 12.0402 331.54 11.6482 332.809 11.4242C334.116 11.2002 335.479 11.1069 336.897 11.1442C338.727 11.1815 340.052 11.4615 340.873 11.9842C341.695 12.5069 342.105 13.0669 342.105 13.6642C342.105 14.1122 342.049 14.4482 341.937 14.6722C341.825 14.8962 341.377 15.1202 340.593 15.3442C339.847 15.5309 338.484 15.8669 336.505 16.3522C335.348 16.6135 334.489 17.2482 333.929 18.2562C333.369 19.2269 333.015 20.3655 332.865 21.6722C332.753 22.9415 332.753 24.2109 332.865 25.4802C332.977 26.7122 333.108 27.7575 333.257 28.6162C333.407 29.4375 333.481 29.8855 333.481 29.9602C333.481 30.0349 333.5 30.2962 333.537 30.7442C333.612 31.1549 333.556 31.6215 333.369 32.1442C333.22 32.6295 332.828 33.0589 332.193 33.4322C331.559 33.8055 330.551 33.9922 329.169 33.9922C327.788 33.9922 326.743 33.8055 326.033 33.4322C325.324 33.0215 324.839 32.5735 324.577 32.0882C324.316 31.6029 324.167 31.1735 324.129 30.8002C324.129 30.3895 324.129 30.1842 324.129 30.1842ZM350.013 30.2962C349.49 28.7282 348.949 27.1229 348.389 25.4802C347.829 23.8002 347.287 22.2135 346.765 20.7202C346.279 19.1895 345.85 17.8642 345.477 16.7442C345.103 15.6242 344.842 14.8402 344.693 14.3922C344.394 13.4589 344.562 12.6749 345.197 12.0402C345.831 11.4055 347.063 11.0882 348.893 11.0882C350.125 11.0882 351.039 11.2749 351.637 11.6482C352.234 11.9842 352.607 12.3389 352.757 12.7122C352.943 13.0482 353.037 13.2162 353.037 13.2162L355.389 22.8482L355.781 26.0962L356.677 21.5602C356.677 21.5602 356.77 21.2989 356.957 20.7762C357.143 20.2162 357.386 19.5442 357.685 18.7602C357.983 17.9389 358.282 17.1175 358.581 16.2962C358.879 15.4375 359.141 14.7095 359.365 14.1122C359.813 12.9175 360.41 12.1335 361.157 11.7602C361.941 11.3495 363.303 11.1815 365.245 11.2562C366.215 11.2935 366.925 11.4802 367.373 11.8162C367.821 12.1149 368.082 12.4695 368.157 12.8802C368.269 13.2535 368.287 13.5895 368.213 13.8882C368.175 14.1869 368.157 14.3362 368.157 14.3362L360.261 31.1362C360.261 31.1362 360.111 31.3789 359.813 31.8642C359.514 32.3122 359.01 32.7789 358.301 33.2642C357.629 33.7495 356.658 33.9922 355.389 33.9922C354.343 33.9922 353.466 33.8055 352.757 33.4322C352.085 33.0589 351.543 32.6295 351.133 32.1442C350.722 31.6589 350.423 31.2295 350.237 30.8562C350.087 30.4829 350.013 30.2962 350.013 30.2962ZM393.563 17.0802C393.451 18.9469 392.928 20.4589 391.995 21.6162C391.061 22.7362 389.923 23.5949 388.579 24.1922C387.272 24.7522 385.965 25.1442 384.659 25.3682C383.352 25.5549 382.251 25.6482 381.355 25.6482C380.496 25.6482 380.067 25.6482 380.067 25.6482C380.291 26.9549 380.608 27.8882 381.019 28.4482C381.429 29.0082 381.877 29.3255 382.363 29.4002C382.885 29.4749 383.371 29.4375 383.819 29.2882C384.267 29.1015 384.621 28.8962 384.883 28.6722C385.181 28.4482 385.331 28.3362 385.331 28.3362C385.331 28.3362 385.536 28.1682 385.947 27.8322C386.357 27.4962 386.992 27.1789 387.851 26.8802C388.747 26.5442 389.867 26.3762 391.211 26.3762C392.741 26.3762 393.768 26.5815 394.291 26.9922C394.851 27.3655 395.112 27.8135 395.075 28.3362C395.075 28.8215 394.963 29.2695 394.739 29.6802C394.552 30.0535 394.459 30.2402 394.459 30.2402C394.459 30.2402 394.291 30.4269 393.955 30.8002C393.656 31.1362 393.096 31.5469 392.275 32.0322C391.453 32.5175 390.315 32.9655 388.859 33.3762C387.403 33.7495 385.536 33.9549 383.259 33.9922C381.056 34.0295 379.208 33.7309 377.715 33.0962C376.221 32.4615 374.989 31.6402 374.019 30.6322C373.048 29.5869 372.301 28.5042 371.779 27.3842C371.293 26.2269 370.939 25.1629 370.715 24.1922C370.528 23.1842 370.435 22.4002 370.435 21.8402C370.435 21.2802 370.472 20.5522 370.547 19.6562C370.659 18.7602 370.901 17.8269 371.275 16.8562C371.685 15.8482 372.301 14.8962 373.123 14.0002C373.944 13.1042 375.064 12.3762 376.483 11.8162C377.939 11.2562 379.787 10.9575 382.027 10.9202C384.827 10.8829 387.011 11.1255 388.579 11.6482C390.147 12.1709 391.285 12.8055 391.995 13.5522C392.704 14.2989 393.133 15.0082 393.283 15.6802C393.469 16.3522 393.563 16.8189 393.563 17.0802ZM379.283 21.7842C381.56 21.5975 383.259 21.1122 384.379 20.3282C385.499 19.5442 386.152 18.6669 386.339 17.6962C386.525 16.7255 386.339 15.9042 385.779 15.2322C385.256 14.5229 384.453 14.2055 383.371 14.2802C382.288 14.3175 381.467 14.7282 380.907 15.5122C380.347 16.2589 379.955 17.1362 379.731 18.1442C379.507 19.1149 379.376 19.9735 379.339 20.7202C379.301 21.4295 379.283 21.7842 379.283 21.7842ZM401.26 30.2402C401.26 30.2029 401.11 29.9789 400.812 29.5682C400.55 29.1202 400.233 28.3922 399.86 27.3842C399.486 26.3389 399.132 24.9015 398.796 23.0722C398.46 21.2055 398.198 18.8535 398.012 16.0162C397.937 14.5229 398.142 13.4589 398.628 12.8242C399.15 12.1895 399.804 11.7975 400.588 11.6482C401.372 11.4615 402.118 11.3682 402.828 11.3682C402.828 11.3682 403.033 11.3682 403.444 11.3682C403.892 11.3309 404.396 11.3682 404.956 11.4802C405.516 11.5549 406.001 11.7975 406.412 12.2082C406.86 12.5815 407.102 13.1789 407.14 14.0002C407.177 14.6722 407.214 15.5869 407.252 16.7442C407.289 17.9015 407.345 19.1522 407.42 20.4962C407.532 21.8029 407.7 23.0722 407.924 24.3042C408.148 25.5362 408.428 26.5629 408.764 27.3842C409.137 28.1682 409.604 28.5975 410.164 28.6722C410.724 28.7469 411.097 28.4295 411.284 27.7202C411.47 26.9735 411.526 26.0402 411.452 24.9202C411.414 23.8002 411.302 22.6802 411.116 21.5602C410.966 20.4029 410.817 19.4322 410.668 18.6482C410.518 17.8642 410.444 17.4722 410.444 17.4722C410.444 17.4722 410.369 17.2482 410.22 16.8002C410.07 16.3149 410.014 15.7735 410.052 15.1762C410.089 14.5789 410.35 14.0375 410.836 13.5522C411.321 13.0669 412.18 12.8055 413.412 12.7682C415.092 12.6935 416.342 12.8615 417.164 13.2722C418.022 13.6829 418.601 14.2055 418.9 14.8402C419.236 15.4749 419.441 16.1282 419.516 16.8002C419.59 17.1735 419.721 18.0695 419.908 19.4882C420.132 20.8695 420.374 22.5122 420.636 24.4162C420.897 26.2829 421.102 28.2242 421.252 30.2402C421.401 32.2189 421.457 34.0295 421.42 35.6722C421.382 37.3149 421.158 38.5655 420.748 39.4242C420.113 40.8055 419.236 42.0749 418.116 43.2322C417.033 44.4269 415.577 45.3415 413.748 45.9762C411.956 46.6482 409.66 46.9095 406.86 46.7602C404.769 46.6482 403.089 46.3122 401.82 45.7522C400.55 45.2295 399.598 44.6509 398.964 44.0162C398.329 43.4189 397.9 42.8775 397.676 42.3922C397.489 41.9442 397.396 41.7202 397.396 41.7202C397.396 41.7202 397.321 41.5149 397.172 41.1042C397.06 40.6935 397.041 40.2082 397.116 39.6482C397.228 39.1255 397.582 38.6589 398.18 38.2482C398.777 37.8749 399.822 37.7069 401.316 37.7442C402.809 37.7815 403.892 37.9122 404.564 38.1362C405.236 38.3975 405.665 38.6775 405.852 38.9762C406.038 39.2749 406.094 39.5362 406.02 39.7602C405.982 39.9842 405.964 40.0962 405.964 40.0962C405.964 40.0962 405.964 40.3015 405.964 40.7122C405.964 41.1229 406.094 41.5149 406.356 41.8882C406.654 42.2615 407.177 42.4295 407.924 42.3922C408.708 42.3175 409.548 41.9629 410.444 41.3282C411.34 40.7309 412.012 39.8162 412.46 38.5842C412.945 37.3522 412.908 35.8215 412.348 33.9922C412.348 33.9922 411.993 34.0482 411.284 34.1602C410.574 34.2722 409.641 34.2722 408.484 34.1602C407.364 34.0855 406.15 33.7682 404.844 33.2082C403.574 32.6109 402.38 31.6215 401.26 30.2402Z" fill="#EE9236"/>
</svg>
