<svg width="206" height="32" viewBox="0 0 206 32" fill="none" xmlns="http://www.w3.org/2000/svg">
<path d="M17.308 22.68C15.988 22.68 14.854 22.416 13.906 21.888C12.97 21.348 12.25 20.592 11.746 19.62C11.242 18.636 10.99 17.478 10.99 16.146C10.99 14.814 11.242 13.662 11.746 12.69C12.25 11.718 12.97 10.968 13.906 10.44C14.854 9.9 15.988 9.63 17.308 9.63C18.196 9.63 18.994 9.756 19.702 10.008C20.422 10.26 21.04 10.632 21.556 11.124L20.8 12.96C20.236 12.504 19.69 12.18 19.162 11.988C18.646 11.784 18.052 11.682 17.38 11.682C16.096 11.682 15.112 12.072 14.428 12.852C13.756 13.62 13.42 14.718 13.42 16.146C13.42 17.574 13.756 18.678 14.428 19.458C15.112 20.238 16.096 20.628 17.38 20.628C18.052 20.628 18.646 20.532 19.162 20.34C19.69 20.136 20.236 19.8 20.8 19.332L21.556 21.168C21.04 21.648 20.422 22.02 19.702 22.284C18.994 22.548 18.196 22.68 17.308 22.68ZM23.5463 22.5V9.252H25.7963V15.228H25.5443C25.8203 14.58 26.2463 14.088 26.8223 13.752C27.3983 13.404 28.0583 13.23 28.8023 13.23C29.8823 13.23 30.6863 13.536 31.2143 14.148C31.7423 14.748 32.0063 15.666 32.0063 16.902V22.5H29.7563V17.01C29.7563 16.302 29.6183 15.792 29.3423 15.48C29.0783 15.156 28.6523 14.994 28.0643 14.994C27.3803 14.994 26.8283 15.21 26.4083 15.642C26.0003 16.062 25.7963 16.626 25.7963 17.334V22.5H23.5463ZM38.496 22.68C37.56 22.68 36.75 22.488 36.066 22.104C35.382 21.72 34.848 21.174 34.464 20.466C34.092 19.758 33.906 18.918 33.906 17.946C33.906 16.974 34.092 16.14 34.464 15.444C34.848 14.736 35.382 14.19 36.066 13.806C36.75 13.422 37.56 13.23 38.496 13.23C39.432 13.23 40.242 13.422 40.926 13.806C41.622 14.19 42.156 14.736 42.528 15.444C42.912 16.14 43.104 16.974 43.104 17.946C43.104 18.918 42.912 19.758 42.528 20.466C42.156 21.174 41.622 21.72 40.926 22.104C40.242 22.488 39.432 22.68 38.496 22.68ZM38.496 20.952C39.204 20.952 39.768 20.706 40.188 20.214C40.608 19.71 40.818 18.954 40.818 17.946C40.818 16.938 40.608 16.188 40.188 15.696C39.768 15.204 39.204 14.958 38.496 14.958C37.788 14.958 37.224 15.204 36.804 15.696C36.384 16.188 36.174 16.938 36.174 17.946C36.174 18.954 36.384 19.71 36.804 20.214C37.224 20.706 37.788 20.952 38.496 20.952ZM49.1483 22.68C48.2123 22.68 47.4023 22.488 46.7183 22.104C46.0343 21.72 45.5003 21.174 45.1163 20.466C44.7443 19.758 44.5583 18.918 44.5583 17.946C44.5583 16.974 44.7443 16.14 45.1163 15.444C45.5003 14.736 46.0343 14.19 46.7183 13.806C47.4023 13.422 48.2123 13.23 49.1483 13.23C50.0843 13.23 50.8943 13.422 51.5783 13.806C52.2743 14.19 52.8083 14.736 53.1803 15.444C53.5643 16.14 53.7563 16.974 53.7563 17.946C53.7563 18.918 53.5643 19.758 53.1803 20.466C52.8083 21.174 52.2743 21.72 51.5783 22.104C50.8943 22.488 50.0843 22.68 49.1483 22.68ZM49.1483 20.952C49.8563 20.952 50.4203 20.706 50.8403 20.214C51.2603 19.71 51.4703 18.954 51.4703 17.946C51.4703 16.938 51.2603 16.188 50.8403 15.696C50.4203 15.204 49.8563 14.958 49.1483 14.958C48.4403 14.958 47.8763 15.204 47.4563 15.696C47.0363 16.188 46.8263 16.938 46.8263 17.946C46.8263 18.954 47.0363 19.71 47.4563 20.214C47.8763 20.706 48.4403 20.952 49.1483 20.952ZM58.9367 22.68C58.1567 22.68 57.4367 22.59 56.7767 22.41C56.1287 22.218 55.5827 21.954 55.1387 21.618L55.7687 20.106C56.2247 20.418 56.7287 20.658 57.2807 20.826C57.8327 20.994 58.3907 21.078 58.9547 21.078C59.5547 21.078 59.9987 20.976 60.2867 20.772C60.5867 20.568 60.7367 20.292 60.7367 19.944C60.7367 19.668 60.6407 19.452 60.4487 19.296C60.2687 19.128 59.9747 19.002 59.5667 18.918L57.7667 18.576C56.9987 18.408 56.4107 18.12 56.0027 17.712C55.6067 17.304 55.4087 16.77 55.4087 16.11C55.4087 15.546 55.5587 15.048 55.8587 14.616C56.1707 14.184 56.6087 13.848 57.1727 13.608C57.7487 13.356 58.4207 13.23 59.1887 13.23C59.8607 13.23 60.4907 13.32 61.0787 13.5C61.6787 13.68 62.1827 13.95 62.5907 14.31L61.9427 15.768C61.5707 15.468 61.1447 15.234 60.6647 15.066C60.1847 14.898 59.7167 14.814 59.2607 14.814C58.6367 14.814 58.1807 14.928 57.8927 15.156C57.6047 15.372 57.4607 15.654 57.4607 16.002C57.4607 16.266 57.5447 16.488 57.7127 16.668C57.8927 16.836 58.1687 16.962 58.5407 17.046L60.3407 17.388C61.1447 17.544 61.7507 17.82 62.1587 18.216C62.5787 18.6 62.7887 19.128 62.7887 19.8C62.7887 20.4 62.6267 20.916 62.3027 21.348C61.9787 21.78 61.5287 22.11 60.9527 22.338C60.3767 22.566 59.7047 22.68 58.9367 22.68ZM69.1062 22.68C67.5822 22.68 66.3882 22.26 65.5242 21.42C64.6602 20.58 64.2282 19.428 64.2282 17.964C64.2282 17.016 64.4142 16.188 64.7862 15.48C65.1582 14.772 65.6742 14.22 66.3342 13.824C67.0062 13.428 67.7862 13.23 68.6742 13.23C69.5502 13.23 70.2822 13.416 70.8702 13.788C71.4582 14.16 71.9022 14.682 72.2022 15.354C72.5142 16.026 72.6702 16.812 72.6702 17.712V18.306H66.0462V17.118H71.0682L70.7622 17.37C70.7622 16.53 70.5822 15.888 70.2222 15.444C69.8742 15 69.3642 14.778 68.6922 14.778C67.9482 14.778 67.3722 15.042 66.9642 15.57C66.5682 16.098 66.3702 16.836 66.3702 17.784V18.018C66.3702 19.002 66.6102 19.74 67.0902 20.232C67.5822 20.712 68.2722 20.952 69.1602 20.952C69.6762 20.952 70.1562 20.886 70.6002 20.754C71.0562 20.61 71.4882 20.382 71.8962 20.07L72.5622 21.582C72.1302 21.93 71.6142 22.2 71.0142 22.392C70.4142 22.584 69.7782 22.68 69.1062 22.68ZM83.691 22.68C82.755 22.68 81.933 22.488 81.225 22.104C80.529 21.72 79.989 21.174 79.605 20.466C79.221 19.746 79.029 18.894 79.029 17.91C79.029 16.926 79.221 16.086 79.605 15.39C80.001 14.694 80.547 14.16 81.243 13.788C81.939 13.416 82.755 13.23 83.691 13.23C84.291 13.23 84.873 13.326 85.437 13.518C86.013 13.698 86.481 13.962 86.841 14.31L86.157 15.876C85.833 15.576 85.467 15.354 85.059 15.21C84.663 15.054 84.273 14.976 83.889 14.976C83.085 14.976 82.455 15.228 81.999 15.732C81.555 16.236 81.333 16.968 81.333 17.928C81.333 18.888 81.555 19.626 81.999 20.142C82.455 20.658 83.085 20.916 83.889 20.916C84.261 20.916 84.645 20.844 85.041 20.7C85.449 20.556 85.821 20.334 86.157 20.034L86.841 21.582C86.469 21.93 85.995 22.2 85.419 22.392C84.855 22.584 84.279 22.68 83.691 22.68ZM92.0426 22.68C91.2506 22.68 90.5546 22.494 89.9546 22.122C89.3546 21.738 88.8866 21.192 88.5506 20.484C88.2146 19.776 88.0466 18.93 88.0466 17.946C88.0466 16.962 88.2146 16.122 88.5506 15.426C88.8866 14.718 89.3546 14.178 89.9546 13.806C90.5546 13.422 91.2506 13.23 92.0426 13.23C92.8106 13.23 93.4826 13.422 94.0586 13.806C94.6466 14.178 95.0366 14.682 95.2286 15.318H95.0306L95.2286 13.41H97.3886C97.3526 13.782 97.3166 14.16 97.2806 14.544C97.2566 14.928 97.2446 15.306 97.2446 15.678V22.5H95.0126L94.9946 20.628H95.2106C95.0186 21.252 94.6286 21.75 94.0406 22.122C93.4526 22.494 92.7866 22.68 92.0426 22.68ZM92.6726 20.952C93.3806 20.952 93.9506 20.706 94.3826 20.214C94.8146 19.71 95.0306 18.954 95.0306 17.946C95.0306 16.938 94.8146 16.188 94.3826 15.696C93.9506 15.204 93.3806 14.958 92.6726 14.958C91.9646 14.958 91.3946 15.204 90.9626 15.696C90.5306 16.188 90.3146 16.938 90.3146 17.946C90.3146 18.954 90.5246 19.71 90.9446 20.214C91.3766 20.706 91.9526 20.952 92.6726 20.952ZM103.583 22.68C102.503 22.68 101.687 22.398 101.135 21.834C100.583 21.27 100.307 20.424 100.307 19.296V15.102H98.5607V13.41H100.307V11.088L102.557 10.512V13.41H104.987V15.102H102.557V19.152C102.557 19.776 102.677 20.214 102.917 20.466C103.157 20.718 103.487 20.844 103.907 20.844C104.135 20.844 104.327 20.826 104.483 20.79C104.651 20.754 104.813 20.706 104.969 20.646V22.428C104.765 22.512 104.537 22.572 104.285 22.608C104.045 22.656 103.811 22.68 103.583 22.68ZM110.819 22.68C109.295 22.68 108.101 22.26 107.237 21.42C106.373 20.58 105.941 19.428 105.941 17.964C105.941 17.016 106.127 16.188 106.499 15.48C106.871 14.772 107.387 14.22 108.047 13.824C108.719 13.428 109.499 13.23 110.387 13.23C111.263 13.23 111.995 13.416 112.583 13.788C113.171 14.16 113.615 14.682 113.915 15.354C114.227 16.026 114.383 16.812 114.383 17.712V18.306H107.759V17.118H112.781L112.475 17.37C112.475 16.53 112.295 15.888 111.935 15.444C111.587 15 111.077 14.778 110.405 14.778C109.661 14.778 109.085 15.042 108.677 15.57C108.281 16.098 108.083 16.836 108.083 17.784V18.018C108.083 19.002 108.323 19.74 108.803 20.232C109.295 20.712 109.985 20.952 110.873 20.952C111.389 20.952 111.869 20.886 112.313 20.754C112.769 20.61 113.201 20.382 113.609 20.07L114.275 21.582C113.843 21.93 113.327 22.2 112.727 22.392C112.127 22.584 111.491 22.68 110.819 22.68ZM120.5 26.532C119.66 26.532 118.898 26.442 118.214 26.262C117.542 26.082 116.942 25.806 116.414 25.434L116.9 23.814C117.248 24.042 117.608 24.228 117.98 24.372C118.352 24.516 118.736 24.624 119.132 24.696C119.528 24.768 119.93 24.804 120.338 24.804C121.178 24.804 121.802 24.594 122.21 24.174C122.63 23.766 122.84 23.178 122.84 22.41V20.232H123.02C122.828 20.856 122.438 21.354 121.85 21.726C121.274 22.098 120.608 22.284 119.852 22.284C119.036 22.284 118.322 22.104 117.71 21.744C117.11 21.372 116.642 20.844 116.306 20.16C115.97 19.476 115.802 18.672 115.802 17.748C115.802 16.824 115.97 16.026 116.306 15.354C116.642 14.67 117.11 14.148 117.71 13.788C118.322 13.416 119.036 13.23 119.852 13.23C120.62 13.23 121.286 13.416 121.85 13.788C122.426 14.148 122.81 14.64 123.002 15.264L122.84 15.156L123.02 13.41H125.198C125.15 13.782 125.114 14.16 125.09 14.544C125.066 14.928 125.054 15.306 125.054 15.678V22.14C125.054 23.568 124.664 24.654 123.884 25.398C123.116 26.154 121.988 26.532 120.5 26.532ZM120.464 20.556C121.184 20.556 121.754 20.316 122.174 19.836C122.606 19.344 122.822 18.648 122.822 17.748C122.822 16.848 122.606 16.158 122.174 15.678C121.754 15.198 121.184 14.958 120.464 14.958C119.732 14.958 119.15 15.198 118.718 15.678C118.286 16.158 118.07 16.848 118.07 17.748C118.07 18.648 118.286 19.344 118.718 19.836C119.15 20.316 119.732 20.556 120.464 20.556ZM131.59 22.68C130.654 22.68 129.844 22.488 129.16 22.104C128.476 21.72 127.942 21.174 127.558 20.466C127.186 19.758 127 18.918 127 17.946C127 16.974 127.186 16.14 127.558 15.444C127.942 14.736 128.476 14.19 129.16 13.806C129.844 13.422 130.654 13.23 131.59 13.23C132.526 13.23 133.336 13.422 134.02 13.806C134.716 14.19 135.25 14.736 135.622 15.444C136.006 16.14 136.198 16.974 136.198 17.946C136.198 18.918 136.006 19.758 135.622 20.466C135.25 21.174 134.716 21.72 134.02 22.104C133.336 22.488 132.526 22.68 131.59 22.68ZM131.59 20.952C132.298 20.952 132.862 20.706 133.282 20.214C133.702 19.71 133.912 18.954 133.912 17.946C133.912 16.938 133.702 16.188 133.282 15.696C132.862 15.204 132.298 14.958 131.59 14.958C130.882 14.958 130.318 15.204 129.898 15.696C129.478 16.188 129.268 16.938 129.268 17.946C129.268 18.954 129.478 19.71 129.898 20.214C130.318 20.706 130.882 20.952 131.59 20.952ZM138.12 22.5V15.732C138.12 15.348 138.108 14.958 138.084 14.562C138.072 14.166 138.042 13.782 137.994 13.41H140.172L140.424 15.894H140.064C140.184 15.294 140.382 14.796 140.658 14.4C140.946 14.004 141.294 13.71 141.702 13.518C142.11 13.326 142.554 13.23 143.034 13.23C143.25 13.23 143.424 13.242 143.556 13.266C143.688 13.278 143.82 13.308 143.952 13.356L143.934 15.336C143.706 15.24 143.508 15.18 143.34 15.156C143.184 15.132 142.986 15.12 142.746 15.12C142.23 15.12 141.792 15.228 141.432 15.444C141.084 15.66 140.82 15.96 140.64 16.344C140.472 16.728 140.388 17.166 140.388 17.658V22.5H138.12ZM145.204 22.5V13.41H147.454V22.5H145.204ZM145.078 11.7V9.504H147.58V11.7H145.078ZM154.29 22.68C152.766 22.68 151.572 22.26 150.708 21.42C149.844 20.58 149.412 19.428 149.412 17.964C149.412 17.016 149.598 16.188 149.97 15.48C150.342 14.772 150.858 14.22 151.518 13.824C152.19 13.428 152.97 13.23 153.858 13.23C154.734 13.23 155.466 13.416 156.054 13.788C156.642 14.16 157.086 14.682 157.386 15.354C157.698 16.026 157.854 16.812 157.854 17.712V18.306H151.23V17.118H156.252L155.946 17.37C155.946 16.53 155.766 15.888 155.406 15.444C155.058 15 154.548 14.778 153.876 14.778C153.132 14.778 152.556 15.042 152.148 15.57C151.752 16.098 151.554 16.836 151.554 17.784V18.018C151.554 19.002 151.794 19.74 152.274 20.232C152.766 20.712 153.456 20.952 154.344 20.952C154.86 20.952 155.34 20.886 155.784 20.754C156.24 20.61 156.672 20.382 157.08 20.07L157.746 21.582C157.314 21.93 156.798 22.2 156.198 22.392C155.598 22.584 154.962 22.68 154.29 22.68Z" fill="white"/>
<mask id="mask0_512_22" style="mask-type:alpha" maskUnits="userSpaceOnUse" x="176" y="4" width="24" height="24">
<rect x="176" y="4" width="24" height="24" fill="#D9D9D9"/>
</mask>
<g mask="url(#mask0_512_22)">
<path d="M187.584 19.617L181.262 13.4468C181.174 13.3617 181.109 13.2695 181.065 13.1702C181.022 13.0709 181 12.9645 181 12.8511C181 12.6241 181.08 12.4255 181.24 12.2553C181.4 12.0851 181.61 12 181.872 12H195.128C195.39 12 195.6 12.0851 195.76 12.2553C195.92 12.4255 196 12.6241 196 12.8511C196 12.9078 195.913 13.1064 195.738 13.4468L189.416 19.617C189.27 19.7589 189.125 19.8582 188.98 19.9149C188.834 19.9716 188.674 20 188.5 20C188.326 20 188.166 19.9716 188.02 19.9149C187.875 19.8582 187.73 19.7589 187.584 19.617Z" fill="white"/>
</g>
</svg>
