<svg width="99" height="48" viewBox="0 0 99 48" fill="none" xmlns="http://www.w3.org/2000/svg">
<rect width="99" height="48" rx="10" fill="#FFCFA1"/>
<path d="M17.6172 29V16.1504H21.7217C23.3799 16.1504 24.5898 16.5078 25.3516 17.2227C26.1133 17.9316 26.4941 18.9102 26.4941 20.1582C26.4941 20.9082 26.3389 21.6113 26.0283 22.2676C25.7119 22.918 25.1904 23.4424 24.4639 23.8408C23.7373 24.2334 22.75 24.4297 21.502 24.4297H20.333V29H17.6172ZM21.5811 18.3828H20.333V22.1973H21.2383C22.0059 22.1973 22.6123 22.0449 23.0576 21.7402C23.5088 21.4297 23.7344 20.9346 23.7344 20.2549C23.7344 19.0068 23.0166 18.3828 21.5811 18.3828ZM35.0371 23.7969V19.1738H37.7178V29H35.6699L35.3096 27.7432H35.1602C34.8496 28.2471 34.4219 28.6133 33.877 28.8418C33.332 29.0645 32.752 29.1758 32.1367 29.1758C31.082 29.1758 30.2354 28.8916 29.5967 28.3232C28.9639 27.7549 28.6475 26.8408 28.6475 25.5811V19.1738H31.3281V24.9131C31.3281 25.6221 31.4541 26.1553 31.7061 26.5127C31.958 26.8643 32.3594 27.04 32.9102 27.04C33.7305 27.04 34.29 26.7617 34.5889 26.2051C34.8877 25.6426 35.0371 24.8398 35.0371 23.7969ZM40.5303 29V15.3242H43.2109V18.5059C43.2109 18.8809 43.1992 19.2471 43.1758 19.6045C43.1523 19.9619 43.1289 20.2432 43.1055 20.4482H43.2109C43.4746 20.0439 43.8291 19.7012 44.2744 19.4199C44.7197 19.1328 45.2969 18.9893 46.0059 18.9893C47.1074 18.9893 47.998 19.4199 48.6777 20.2812C49.3633 21.1367 49.7061 22.3994 49.7061 24.0693C49.7061 25.751 49.3574 27.0225 48.6602 27.8838C47.9688 28.7451 47.0576 29.1758 45.9268 29.1758C45.2119 29.1758 44.6465 29.0469 44.2305 28.7891C43.8145 28.5312 43.4746 28.2412 43.2109 27.9189H43.0352L42.5781 29H40.5303ZM45.1357 21.1338C44.4443 21.1338 43.9521 21.3535 43.6592 21.793C43.3721 22.2324 43.2227 22.8887 43.2109 23.7617V24.0518C43.2109 25.001 43.3516 25.7305 43.6328 26.2402C43.9141 26.75 44.4268 27.0049 45.1709 27.0049C45.7275 27.0049 46.167 26.75 46.4893 26.2402C46.8115 25.7305 46.9727 24.9951 46.9727 24.0342C46.9727 23.0732 46.8086 22.3496 46.4805 21.8633C46.1523 21.377 45.7041 21.1338 45.1357 21.1338ZM51.9209 15.3242H54.6016V29H51.9209V15.3242ZM58.7588 15.3242C59.1514 15.3242 59.4912 15.418 59.7783 15.6055C60.0713 15.7871 60.2178 16.1299 60.2178 16.6338C60.2178 17.126 60.0713 17.4688 59.7783 17.6621C59.4912 17.8555 59.1514 17.9521 58.7588 17.9521C58.3486 17.9521 58.0029 17.8555 57.7217 17.6621C57.4404 17.4688 57.2998 17.126 57.2998 16.6338C57.2998 16.1299 57.4404 15.7871 57.7217 15.6055C58.0029 15.418 58.3486 15.3242 58.7588 15.3242ZM57.4053 29V19.1738H60.0859V29H57.4053ZM69.7539 26.082C69.7539 27.0781 69.4023 27.8428 68.6992 28.376C67.9961 28.9092 66.9502 29.1758 65.5615 29.1758C64.876 29.1758 64.2871 29.1318 63.7949 29.0439C63.3027 28.9561 62.8105 28.8096 62.3184 28.6045V26.3896C62.8457 26.6299 63.4141 26.8291 64.0234 26.9873C64.6387 27.1396 65.1807 27.2158 65.6494 27.2158C66.165 27.2158 66.5371 27.1396 66.7656 26.9873C66.9941 26.8291 67.1084 26.624 67.1084 26.3721C67.1084 26.1963 67.0645 26.0439 66.9766 25.915C66.8711 25.7627 66.6338 25.5928 66.2646 25.4053C65.9014 25.2178 65.4736 25.0244 64.9814 24.8252C64.3779 24.5674 63.874 24.3066 63.4697 24.043C63.0771 23.7852 62.7842 23.4746 62.5908 23.1113C62.3975 22.7422 62.3008 22.2822 62.3008 21.7314C62.3008 20.8174 62.6553 20.1318 63.3643 19.6748C64.0732 19.2178 65.0137 18.9893 66.1855 18.9893C66.8008 18.9893 67.3838 19.0508 67.9346 19.1738C68.4854 19.291 69.0566 19.4873 69.6484 19.7627L68.8311 21.6963C68.3564 21.4912 67.9023 21.3213 67.4688 21.1865C67.0352 21.0459 66.5957 20.9756 66.1504 20.9756C65.3594 20.9756 64.9639 21.1895 64.9639 21.6172C64.9639 21.7754 65.0166 21.916 65.1221 22.0391C65.2275 22.1738 65.459 22.3262 65.8164 22.4961C66.1738 22.6602 66.5752 22.8359 67.0205 23.0234C67.5713 23.2461 68.0576 23.4834 68.4795 23.7354C68.8838 23.9814 69.1973 24.292 69.4199 24.667C69.6426 25.0361 69.7539 25.5078 69.7539 26.082ZM71.8369 29V15.3242H74.5176V18.1104C74.5176 18.6025 74.5029 19.0684 74.4736 19.5078C74.4443 19.9414 74.418 20.249 74.3945 20.4307H74.5352C74.8457 19.9268 75.2471 19.5605 75.7393 19.332C76.2314 19.1035 76.7793 18.9893 77.3828 18.9893C78.4375 18.9893 79.2871 19.2764 79.9316 19.8506C80.582 20.4189 80.9072 21.333 80.9072 22.5928V29H78.2266V23.2607C78.2266 21.8428 77.6992 21.1338 76.6445 21.1338C75.8418 21.1338 75.2852 21.4121 74.9746 21.9688C74.6699 22.5254 74.5176 23.3281 74.5176 24.377V29H71.8369Z" fill="#221227"/>
</svg>
