<svg width="206" height="228" viewBox="0 0 206 228" fill="none" xmlns="http://www.w3.org/2000/svg">
<rect width="206" height="32" rx="6" fill="#D9D9D9" fill-opacity="0.12"/>
<path d="M15.832 22.68C14.812 22.68 13.87 22.554 13.006 22.302C12.154 22.038 11.422 21.678 10.81 21.222L11.53 19.404C11.938 19.692 12.364 19.938 12.808 20.142C13.252 20.334 13.726 20.484 14.23 20.592C14.734 20.688 15.268 20.736 15.832 20.736C16.78 20.736 17.464 20.58 17.884 20.268C18.304 19.956 18.514 19.548 18.514 19.044C18.514 18.6 18.37 18.264 18.082 18.036C17.794 17.796 17.278 17.598 16.534 17.442L14.5 17.028C13.336 16.788 12.466 16.386 11.89 15.822C11.314 15.258 11.026 14.502 11.026 13.554C11.026 12.762 11.236 12.072 11.656 11.484C12.076 10.896 12.664 10.44 13.42 10.116C14.176 9.792 15.058 9.63 16.066 9.63C16.966 9.63 17.8 9.762 18.568 10.026C19.336 10.278 19.978 10.644 20.494 11.124L19.774 12.852C19.258 12.42 18.694 12.102 18.082 11.898C17.47 11.682 16.786 11.574 16.03 11.574C15.178 11.574 14.512 11.742 14.032 12.078C13.564 12.402 13.33 12.852 13.33 13.428C13.33 13.872 13.474 14.226 13.762 14.49C14.062 14.754 14.566 14.958 15.274 15.102L17.29 15.498C18.49 15.738 19.378 16.134 19.954 16.686C20.53 17.226 20.818 17.958 20.818 18.882C20.818 19.638 20.614 20.304 20.206 20.88C19.798 21.444 19.222 21.888 18.478 22.212C17.734 22.524 16.852 22.68 15.832 22.68ZM26.9296 22.68C25.9936 22.68 25.1836 22.488 24.4996 22.104C23.8156 21.72 23.2816 21.174 22.8976 20.466C22.5256 19.758 22.3396 18.918 22.3396 17.946C22.3396 16.974 22.5256 16.14 22.8976 15.444C23.2816 14.736 23.8156 14.19 24.4996 13.806C25.1836 13.422 25.9936 13.23 26.9296 13.23C27.8656 13.23 28.6756 13.422 29.3596 13.806C30.0556 14.19 30.5896 14.736 30.9616 15.444C31.3456 16.14 31.5376 16.974 31.5376 17.946C31.5376 18.918 31.3456 19.758 30.9616 20.466C30.5896 21.174 30.0556 21.72 29.3596 22.104C28.6756 22.488 27.8656 22.68 26.9296 22.68ZM26.9296 20.952C27.6376 20.952 28.2016 20.706 28.6216 20.214C29.0416 19.71 29.2516 18.954 29.2516 17.946C29.2516 16.938 29.0416 16.188 28.6216 15.696C28.2016 15.204 27.6376 14.958 26.9296 14.958C26.2216 14.958 25.6576 15.204 25.2376 15.696C24.8176 16.188 24.6076 16.938 24.6076 17.946C24.6076 18.954 24.8176 19.71 25.2376 20.214C25.6576 20.706 26.2216 20.952 26.9296 20.952ZM33.4599 22.5V15.732C33.4599 15.348 33.4479 14.958 33.4239 14.562C33.4119 14.166 33.3819 13.782 33.3339 13.41H35.5119L35.7639 15.894H35.4039C35.5239 15.294 35.7219 14.796 35.9979 14.4C36.2859 14.004 36.6339 13.71 37.0419 13.518C37.4499 13.326 37.8939 13.23 38.3739 13.23C38.5899 13.23 38.7639 13.242 38.8959 13.266C39.0279 13.278 39.1599 13.308 39.2919 13.356L39.2739 15.336C39.0459 15.24 38.8479 15.18 38.6799 15.156C38.5239 15.132 38.3259 15.12 38.0859 15.12C37.5699 15.12 37.1319 15.228 36.7719 15.444C36.4239 15.66 36.1599 15.96 35.9799 16.344C35.8119 16.728 35.7279 17.166 35.7279 17.658V22.5H33.4599ZM44.9421 22.68C43.8621 22.68 43.0461 22.398 42.4941 21.834C41.9421 21.27 41.6661 20.424 41.6661 19.296V15.102H39.9201V13.41H41.6661V11.088L43.9161 10.512V13.41H46.3461V15.102H43.9161V19.152C43.9161 19.776 44.0361 20.214 44.2761 20.466C44.5161 20.718 44.8461 20.844 45.2661 20.844C45.4941 20.844 45.6861 20.826 45.8421 20.79C46.0101 20.754 46.1721 20.706 46.3281 20.646V22.428C46.1241 22.512 45.8961 22.572 45.6441 22.608C45.4041 22.656 45.1701 22.68 44.9421 22.68ZM58.0158 22.68C57.2478 22.68 56.5758 22.494 55.9998 22.122C55.4238 21.738 55.0398 21.222 54.8478 20.574H55.0458V22.5H52.8138V9.252H55.0638V15.264H54.8478C55.0518 14.64 55.4418 14.148 56.0178 13.788C56.5938 13.416 57.2598 13.23 58.0158 13.23C58.8198 13.23 59.5218 13.422 60.1218 13.806C60.7218 14.19 61.1898 14.736 61.5258 15.444C61.8618 16.14 62.0298 16.98 62.0298 17.964C62.0298 18.948 61.8618 19.794 61.5258 20.502C61.1898 21.198 60.7158 21.738 60.1038 22.122C59.5038 22.494 58.8078 22.68 58.0158 22.68ZM57.3858 20.952C58.0938 20.952 58.6638 20.706 59.0958 20.214C59.5398 19.722 59.7618 18.972 59.7618 17.964C59.7618 16.956 59.5398 16.206 59.0958 15.714C58.6638 15.21 58.0938 14.958 57.3858 14.958C56.6778 14.958 56.1078 15.204 55.6758 15.696C55.2438 16.188 55.0278 16.938 55.0278 17.946C55.0278 18.954 55.2438 19.71 55.6758 20.214C56.1078 20.706 56.6778 20.952 57.3858 20.952ZM63.6202 26.586L63.0982 24.804C63.6622 24.684 64.1362 24.546 64.5202 24.39C64.9042 24.234 65.2222 24.03 65.4742 23.778C65.7262 23.526 65.9362 23.202 66.1042 22.806L66.5542 21.744L66.5002 22.626L62.5402 13.41H64.9342L67.7782 20.502H67.2562L70.1182 13.41H72.3862L68.2462 23.004C67.9702 23.652 67.6702 24.186 67.3462 24.606C67.0222 25.038 66.6742 25.38 66.3022 25.632C65.9302 25.896 65.5222 26.1 65.0782 26.244C64.6342 26.388 64.1482 26.502 63.6202 26.586ZM82.6891 22.68C81.7531 22.68 80.9311 22.488 80.2231 22.104C79.5271 21.72 78.9871 21.174 78.6031 20.466C78.2191 19.746 78.0271 18.894 78.0271 17.91C78.0271 16.926 78.2191 16.086 78.6031 15.39C78.9991 14.694 79.5451 14.16 80.2411 13.788C80.9371 13.416 81.7531 13.23 82.6891 13.23C83.2891 13.23 83.8711 13.326 84.4351 13.518C85.0111 13.698 85.4791 13.962 85.8391 14.31L85.1551 15.876C84.8311 15.576 84.4651 15.354 84.0571 15.21C83.6611 15.054 83.2711 14.976 82.8871 14.976C82.0831 14.976 81.4531 15.228 80.9971 15.732C80.5531 16.236 80.3311 16.968 80.3311 17.928C80.3311 18.888 80.5531 19.626 80.9971 20.142C81.4531 20.658 82.0831 20.916 82.8871 20.916C83.2591 20.916 83.6431 20.844 84.0391 20.7C84.4471 20.556 84.8191 20.334 85.1551 20.034L85.8391 21.582C85.4671 21.93 84.9931 22.2 84.4171 22.392C83.8531 22.584 83.2771 22.68 82.6891 22.68ZM91.0406 22.68C90.2486 22.68 89.5526 22.494 88.9526 22.122C88.3526 21.738 87.8846 21.192 87.5486 20.484C87.2126 19.776 87.0446 18.93 87.0446 17.946C87.0446 16.962 87.2126 16.122 87.5486 15.426C87.8846 14.718 88.3526 14.178 88.9526 13.806C89.5526 13.422 90.2486 13.23 91.0406 13.23C91.8086 13.23 92.4806 13.422 93.0566 13.806C93.6446 14.178 94.0346 14.682 94.2266 15.318H94.0286L94.2266 13.41H96.3866C96.3506 13.782 96.3146 14.16 96.2786 14.544C96.2546 14.928 96.2426 15.306 96.2426 15.678V22.5H94.0106L93.9926 20.628H94.2086C94.0166 21.252 93.6266 21.75 93.0386 22.122C92.4506 22.494 91.7846 22.68 91.0406 22.68ZM91.6706 20.952C92.3786 20.952 92.9486 20.706 93.3806 20.214C93.8126 19.71 94.0286 18.954 94.0286 17.946C94.0286 16.938 93.8126 16.188 93.3806 15.696C92.9486 15.204 92.3786 14.958 91.6706 14.958C90.9626 14.958 90.3926 15.204 89.9606 15.696C89.5286 16.188 89.3126 16.938 89.3126 17.946C89.3126 18.954 89.5226 19.71 89.9426 20.214C90.3746 20.706 90.9506 20.952 91.6706 20.952ZM102.581 22.68C101.501 22.68 100.685 22.398 100.133 21.834C99.5808 21.27 99.3048 20.424 99.3048 19.296V15.102H97.5588V13.41H99.3048V11.088L101.555 10.512V13.41H103.985V15.102H101.555V19.152C101.555 19.776 101.675 20.214 101.915 20.466C102.155 20.718 102.485 20.844 102.905 20.844C103.133 20.844 103.325 20.826 103.481 20.79C103.649 20.754 103.811 20.706 103.967 20.646V22.428C103.763 22.512 103.535 22.572 103.283 22.608C103.043 22.656 102.809 22.68 102.581 22.68ZM109.817 22.68C108.293 22.68 107.099 22.26 106.235 21.42C105.371 20.58 104.939 19.428 104.939 17.964C104.939 17.016 105.125 16.188 105.497 15.48C105.869 14.772 106.385 14.22 107.045 13.824C107.717 13.428 108.497 13.23 109.385 13.23C110.261 13.23 110.993 13.416 111.581 13.788C112.169 14.16 112.613 14.682 112.913 15.354C113.225 16.026 113.381 16.812 113.381 17.712V18.306H106.757V17.118H111.779L111.473 17.37C111.473 16.53 111.293 15.888 110.933 15.444C110.585 15 110.075 14.778 109.403 14.778C108.659 14.778 108.083 15.042 107.675 15.57C107.279 16.098 107.081 16.836 107.081 17.784V18.018C107.081 19.002 107.321 19.74 107.801 20.232C108.293 20.712 108.983 20.952 109.871 20.952C110.387 20.952 110.867 20.886 111.311 20.754C111.767 20.61 112.199 20.382 112.607 20.07L113.273 21.582C112.841 21.93 112.325 22.2 111.725 22.392C111.125 22.584 110.489 22.68 109.817 22.68ZM119.499 26.532C118.659 26.532 117.897 26.442 117.213 26.262C116.541 26.082 115.941 25.806 115.413 25.434L115.899 23.814C116.247 24.042 116.607 24.228 116.979 24.372C117.351 24.516 117.735 24.624 118.131 24.696C118.527 24.768 118.929 24.804 119.337 24.804C120.177 24.804 120.801 24.594 121.209 24.174C121.629 23.766 121.839 23.178 121.839 22.41V20.232H122.019C121.827 20.856 121.437 21.354 120.849 21.726C120.273 22.098 119.607 22.284 118.851 22.284C118.035 22.284 117.321 22.104 116.708 21.744C116.109 21.372 115.641 20.844 115.305 20.16C114.969 19.476 114.801 18.672 114.801 17.748C114.801 16.824 114.969 16.026 115.305 15.354C115.641 14.67 116.109 14.148 116.708 13.788C117.321 13.416 118.035 13.23 118.851 13.23C119.619 13.23 120.285 13.416 120.849 13.788C121.425 14.148 121.809 14.64 122.001 15.264L121.839 15.156L122.019 13.41H124.197C124.149 13.782 124.113 14.16 124.089 14.544C124.065 14.928 124.053 15.306 124.053 15.678V22.14C124.053 23.568 123.663 24.654 122.883 25.398C122.115 26.154 120.987 26.532 119.499 26.532ZM119.463 20.556C120.183 20.556 120.753 20.316 121.173 19.836C121.605 19.344 121.821 18.648 121.821 17.748C121.821 16.848 121.605 16.158 121.173 15.678C120.753 15.198 120.183 14.958 119.463 14.958C118.731 14.958 118.149 15.198 117.717 15.678C117.285 16.158 117.069 16.848 117.069 17.748C117.069 18.648 117.285 19.344 117.717 19.836C118.149 20.316 118.731 20.556 119.463 20.556ZM130.588 22.68C129.652 22.68 128.842 22.488 128.158 22.104C127.474 21.72 126.94 21.174 126.556 20.466C126.184 19.758 125.998 18.918 125.998 17.946C125.998 16.974 126.184 16.14 126.556 15.444C126.94 14.736 127.474 14.19 128.158 13.806C128.842 13.422 129.652 13.23 130.588 13.23C131.524 13.23 132.334 13.422 133.018 13.806C133.714 14.19 134.248 14.736 134.62 15.444C135.004 16.14 135.196 16.974 135.196 17.946C135.196 18.918 135.004 19.758 134.62 20.466C134.248 21.174 133.714 21.72 133.018 22.104C132.334 22.488 131.524 22.68 130.588 22.68ZM130.588 20.952C131.296 20.952 131.86 20.706 132.28 20.214C132.7 19.71 132.91 18.954 132.91 17.946C132.91 16.938 132.7 16.188 132.28 15.696C131.86 15.204 131.296 14.958 130.588 14.958C129.88 14.958 129.316 15.204 128.896 15.696C128.476 16.188 128.266 16.938 128.266 17.946C128.266 18.954 128.476 19.71 128.896 20.214C129.316 20.706 129.88 20.952 130.588 20.952ZM137.118 22.5V15.732C137.118 15.348 137.106 14.958 137.082 14.562C137.07 14.166 137.04 13.782 136.992 13.41H139.17L139.422 15.894H139.062C139.182 15.294 139.38 14.796 139.656 14.4C139.944 14.004 140.292 13.71 140.7 13.518C141.108 13.326 141.552 13.23 142.032 13.23C142.248 13.23 142.422 13.242 142.554 13.266C142.686 13.278 142.818 13.308 142.95 13.356L142.932 15.336C142.704 15.24 142.506 15.18 142.338 15.156C142.182 15.132 141.984 15.12 141.744 15.12C141.228 15.12 140.79 15.228 140.43 15.444C140.082 15.66 139.818 15.96 139.638 16.344C139.47 16.728 139.386 17.166 139.386 17.658V22.5H137.118ZM144.203 22.5V13.41H146.453V22.5H144.203ZM144.077 11.7V9.504H146.579V11.7H144.077ZM153.288 22.68C151.764 22.68 150.57 22.26 149.706 21.42C148.842 20.58 148.41 19.428 148.41 17.964C148.41 17.016 148.596 16.188 148.968 15.48C149.34 14.772 149.856 14.22 150.516 13.824C151.188 13.428 151.968 13.23 152.856 13.23C153.732 13.23 154.464 13.416 155.052 13.788C155.64 14.16 156.084 14.682 156.384 15.354C156.696 16.026 156.852 16.812 156.852 17.712V18.306H150.228V17.118H155.25L154.944 17.37C154.944 16.53 154.764 15.888 154.404 15.444C154.056 15 153.546 14.778 152.874 14.778C152.13 14.778 151.554 15.042 151.146 15.57C150.75 16.098 150.552 16.836 150.552 17.784V18.018C150.552 19.002 150.792 19.74 151.272 20.232C151.764 20.712 152.454 20.952 153.342 20.952C153.858 20.952 154.338 20.886 154.782 20.754C155.238 20.61 155.67 20.382 156.078 20.07L156.744 21.582C156.312 21.93 155.796 22.2 155.196 22.392C154.596 22.584 153.96 22.68 153.288 22.68ZM161.997 22.68C161.217 22.68 160.497 22.59 159.837 22.41C159.189 22.218 158.643 21.954 158.199 21.618L158.829 20.106C159.285 20.418 159.789 20.658 160.341 20.826C160.893 20.994 161.451 21.078 162.015 21.078C162.615 21.078 163.059 20.976 163.347 20.772C163.647 20.568 163.797 20.292 163.797 19.944C163.797 19.668 163.701 19.452 163.509 19.296C163.329 19.128 163.035 19.002 162.627 18.918L160.827 18.576C160.059 18.408 159.471 18.12 159.063 17.712C158.667 17.304 158.469 16.77 158.469 16.11C158.469 15.546 158.619 15.048 158.919 14.616C159.231 14.184 159.669 13.848 160.233 13.608C160.809 13.356 161.481 13.23 162.249 13.23C162.921 13.23 163.551 13.32 164.139 13.5C164.739 13.68 165.243 13.95 165.651 14.31L165.003 15.768C164.631 15.468 164.205 15.234 163.725 15.066C163.245 14.898 162.777 14.814 162.321 14.814C161.697 14.814 161.241 14.928 160.953 15.156C160.665 15.372 160.521 15.654 160.521 16.002C160.521 16.266 160.605 16.488 160.773 16.668C160.953 16.836 161.229 16.962 161.601 17.046L163.401 17.388C164.205 17.544 164.811 17.82 165.219 18.216C165.639 18.6 165.849 19.128 165.849 19.8C165.849 20.4 165.687 20.916 165.363 21.348C165.039 21.78 164.589 22.11 164.013 22.338C163.437 22.566 162.765 22.68 161.997 22.68Z" fill="white"/>
<mask id="mask0_121_1146" style="mask-type:alpha" maskUnits="userSpaceOnUse" x="176" y="4" width="24" height="24">
<rect x="200" y="28" width="24" height="24" transform="rotate(-180 200 28)" fill="#D9D9D9"/>
</mask>
<g mask="url(#mask0_121_1146)">
<path d="M188.416 12.383L194.738 18.5532C194.826 18.6383 194.891 18.7305 194.935 18.8298C194.978 18.9291 195 19.0355 195 19.1489C195 19.3759 194.92 19.5745 194.76 19.7447C194.6 19.9149 194.39 20 194.128 20H180.872C180.61 20 180.4 19.9149 180.24 19.7447C180.08 19.5745 180 19.3759 180 19.1489C180 19.0922 180.087 18.8936 180.262 18.5532L186.584 12.383C186.73 12.2411 186.875 12.1418 187.02 12.0851C187.166 12.0284 187.326 12 187.5 12C187.674 12 187.834 12.0284 187.98 12.0851C188.125 12.1418 188.27 12.2411 188.416 12.383Z" fill="#FFB770"/>
</g>
<rect y="36" width="206" height="192" rx="6" fill="white"/>
<path d="M11.626 62V53.11H8.14V52.13H16.26V53.11H12.788V62H11.626ZM19.8908 62.126C18.7895 62.126 17.9215 61.8087 17.2868 61.174C16.6521 60.53 16.3348 59.6387 16.3348 58.5C16.3348 57.7627 16.4748 57.1233 16.7548 56.582C17.0348 56.0313 17.4268 55.6067 17.9308 55.308C18.4348 55 19.0135 54.846 19.6668 54.846C20.3108 54.846 20.8521 54.9813 21.2908 55.252C21.7295 55.5227 22.0655 55.91 22.2988 56.414C22.5321 56.9087 22.6488 57.4967 22.6488 58.178V58.598H17.2028V57.884H21.9068L21.6688 58.066C21.6688 57.3193 21.5008 56.736 21.1648 56.316C20.8288 55.896 20.3295 55.686 19.6668 55.686C18.9668 55.686 18.4208 55.9333 18.0288 56.428C17.6368 56.9133 17.4408 57.5713 17.4408 58.402V58.528C17.4408 59.4053 17.6555 60.0727 18.0848 60.53C18.5235 60.978 19.1348 61.202 19.9188 61.202C20.3388 61.202 20.7308 61.1413 21.0948 61.02C21.4681 60.8893 21.8228 60.6793 22.1588 60.39L22.5508 61.188C22.2428 61.4867 21.8508 61.72 21.3748 61.888C20.9081 62.0467 20.4135 62.126 19.8908 62.126ZM27.338 62.126C26.7127 62.126 26.1667 61.9813 25.7 61.692C25.2334 61.3933 24.8694 60.9733 24.608 60.432C24.356 59.8907 24.23 59.242 24.23 58.486C24.23 57.7207 24.356 57.0673 24.608 56.526C24.8694 55.9847 25.2334 55.5693 25.7 55.28C26.1667 54.9907 26.7127 54.846 27.338 54.846C27.9727 54.846 28.5187 55.0093 28.976 55.336C29.4427 55.6533 29.7507 56.0873 29.9 56.638H29.732L29.886 54.972H30.978C30.95 55.2427 30.922 55.518 30.894 55.798C30.8754 56.0687 30.866 56.3347 30.866 56.596V62H29.732V60.348H29.886C29.7367 60.8987 29.4287 61.3327 28.962 61.65C28.4954 61.9673 27.954 62.126 27.338 62.126ZM27.562 61.202C28.234 61.202 28.766 60.9733 29.158 60.516C29.55 60.0493 29.746 59.3727 29.746 58.486C29.746 57.59 29.55 56.9133 29.158 56.456C28.766 55.9893 28.234 55.756 27.562 55.756C26.8994 55.756 26.3674 55.9893 25.966 56.456C25.574 56.9133 25.378 57.59 25.378 58.486C25.378 59.3727 25.574 60.0493 25.966 60.516C26.3674 60.9733 26.8994 61.202 27.562 61.202ZM33.3386 62V56.596C33.3386 56.3347 33.3246 56.0687 33.2966 55.798C33.2779 55.518 33.2546 55.2427 33.2266 54.972H34.3186L34.4586 56.512H34.2906C34.4772 55.98 34.7712 55.5693 35.1726 55.28C35.5832 54.9907 36.0779 54.846 36.6566 54.846C37.2446 54.846 37.7206 54.986 38.0846 55.266C38.4579 55.546 38.7099 55.98 38.8406 56.568H38.6306C38.8079 56.036 39.1206 55.616 39.5686 55.308C40.0166 55 40.5392 54.846 41.1366 54.846C41.9112 54.846 42.4946 55.07 42.8866 55.518C43.2786 55.9567 43.4746 56.652 43.4746 57.604V62H42.3406V57.674C42.3406 57.0113 42.2239 56.5307 41.9906 56.232C41.7572 55.924 41.3839 55.77 40.8706 55.77C40.2826 55.77 39.8159 55.9753 39.4706 56.386C39.1346 56.7873 38.9666 57.3287 38.9666 58.01V62H37.8326V57.674C37.8326 57.0113 37.7159 56.5307 37.4826 56.232C37.2492 55.924 36.8759 55.77 36.3626 55.77C35.7746 55.77 35.3126 55.9753 34.9766 56.386C34.6406 56.7873 34.4726 57.3287 34.4726 58.01V62H33.3386ZM48.986 62L53.34 52.13H54.348L58.772 62H57.568L56.336 59.186L56.854 59.48H50.82L51.38 59.186L50.176 62H48.986ZM53.83 53.46L51.562 58.78L51.226 58.528H56.434L56.182 58.78L53.858 53.46H53.83ZM63.3005 62.126C62.6099 62.126 62.0079 61.9767 61.4945 61.678C60.9905 61.3793 60.5985 60.9547 60.3185 60.404C60.0479 59.8533 59.9125 59.2 59.9125 58.444C59.9125 57.6787 60.0525 57.03 60.3325 56.498C60.6125 55.9567 61.0045 55.546 61.5085 55.266C62.0219 54.986 62.6192 54.846 63.3005 54.846C63.7485 54.846 64.1825 54.9253 64.6025 55.084C65.0319 55.2427 65.3865 55.4667 65.6665 55.756L65.2605 56.568C64.9805 56.2973 64.6725 56.0967 64.3365 55.966C64.0099 55.8353 63.6879 55.77 63.3705 55.77C62.6425 55.77 62.0779 55.9987 61.6765 56.456C61.2752 56.9133 61.0745 57.5807 61.0745 58.458C61.0745 59.326 61.2752 59.998 61.6765 60.474C62.0779 60.95 62.6425 61.188 63.3705 61.188C63.6785 61.188 63.9959 61.1273 64.3225 61.006C64.6585 60.8847 64.9712 60.684 65.2605 60.404L65.6665 61.202C65.3772 61.5007 65.0179 61.7293 64.5885 61.888C64.1592 62.0467 63.7299 62.126 63.3005 62.126ZM70.0502 62.126C69.3595 62.126 68.8322 61.93 68.4682 61.538C68.1042 61.1367 67.9222 60.5347 67.9222 59.732V55.854H66.5502V54.972H67.9222V53.054L69.0562 52.732V54.972H71.0722V55.854H69.0562V59.606C69.0562 60.166 69.1495 60.5673 69.3362 60.81C69.5322 61.0433 69.8215 61.16 70.2042 61.16C70.3815 61.16 70.5402 61.146 70.6802 61.118C70.8202 61.0807 70.9462 61.0387 71.0582 60.992V61.944C70.9275 62 70.7689 62.042 70.5822 62.07C70.4049 62.1073 70.2275 62.126 70.0502 62.126ZM72.7327 62V54.972H73.8667V62H72.7327ZM72.5927 53.376V52.102H73.9927V53.376H72.5927ZM78.4207 62L75.4107 54.972H76.6427L79.1627 61.16H78.7847L81.3327 54.972H82.5087L79.4987 62H78.4207ZM84.0662 62V54.972H85.2002V62H84.0662ZM83.9262 53.376V52.102H85.3262V53.376H83.9262ZM90.1741 62.126C89.4834 62.126 88.9561 61.93 88.5921 61.538C88.2281 61.1367 88.0461 60.5347 88.0461 59.732V55.854H86.6741V54.972H88.0461V53.054L89.1801 52.732V54.972H91.1961V55.854H89.1801V59.606C89.1801 60.166 89.2734 60.5673 89.4601 60.81C89.6561 61.0433 89.9454 61.16 90.3281 61.16C90.5054 61.16 90.6641 61.146 90.8041 61.118C90.9441 61.0807 91.0701 61.0387 91.1821 60.992V61.944C91.0514 62 90.8928 62.042 90.7061 62.07C90.5288 62.1073 90.3514 62.126 90.1741 62.126ZM92.8566 62V54.972H93.9906V62H92.8566ZM92.7166 53.376V52.102H94.1166V53.376H92.7166ZM99.5946 62.126C98.4932 62.126 97.6252 61.8087 96.9906 61.174C96.3559 60.53 96.0386 59.6387 96.0386 58.5C96.0386 57.7627 96.1786 57.1233 96.4586 56.582C96.7386 56.0313 97.1306 55.6067 97.6346 55.308C98.1386 55 98.7172 54.846 99.3706 54.846C100.015 54.846 100.556 54.9813 100.995 55.252C101.433 55.5227 101.769 55.91 102.003 56.414C102.236 56.9087 102.353 57.4967 102.353 58.178V58.598H96.9066V57.884H101.611L101.373 58.066C101.373 57.3193 101.205 56.736 100.869 56.316C100.533 55.896 100.033 55.686 99.3706 55.686C98.6706 55.686 98.1246 55.9333 97.7326 56.428C97.3406 56.9133 97.1446 57.5713 97.1446 58.402V58.528C97.1446 59.4053 97.3592 60.0727 97.7886 60.53C98.2272 60.978 98.8386 61.202 99.6226 61.202C100.043 61.202 100.435 61.1413 100.799 61.02C101.172 60.8893 101.527 60.6793 101.863 60.39L102.255 61.188C101.947 61.4867 101.555 61.72 101.079 61.888C100.612 62.0467 100.117 62.126 99.5946 62.126ZM106.706 62.126C106.146 62.126 105.623 62.0513 105.138 61.902C104.652 61.7433 104.251 61.524 103.934 61.244L104.326 60.446C104.671 60.7167 105.044 60.9173 105.446 61.048C105.856 61.1787 106.281 61.244 106.72 61.244C107.28 61.244 107.7 61.146 107.98 60.95C108.269 60.7447 108.414 60.4647 108.414 60.11C108.414 59.8393 108.32 59.6247 108.134 59.466C107.956 59.298 107.662 59.1673 107.252 59.074L105.95 58.808C105.352 58.6773 104.904 58.458 104.606 58.15C104.307 57.8327 104.158 57.4313 104.158 56.946C104.158 56.5353 104.265 56.176 104.48 55.868C104.694 55.5507 105.007 55.3033 105.418 55.126C105.828 54.9393 106.309 54.846 106.86 54.846C107.373 54.846 107.844 54.9253 108.274 55.084C108.712 55.2333 109.076 55.4527 109.366 55.742L108.96 56.526C108.68 56.2553 108.358 56.0547 107.994 55.924C107.639 55.784 107.27 55.714 106.888 55.714C106.337 55.714 105.922 55.826 105.642 56.05C105.371 56.2647 105.236 56.5493 105.236 56.904C105.236 57.1747 105.32 57.3987 105.488 57.576C105.665 57.744 105.936 57.87 106.3 57.954L107.602 58.22C108.236 58.36 108.708 58.5793 109.016 58.878C109.333 59.1673 109.492 59.5593 109.492 60.054C109.492 60.474 109.375 60.8427 109.142 61.16C108.908 61.468 108.582 61.706 108.162 61.874C107.751 62.042 107.266 62.126 106.706 62.126Z" fill="#35273A"/>
<path d="M9.232 92V82.13H10.394V86.498H16.344V82.13H17.492V92H16.344V87.492H10.394V92H9.232ZM23.2267 92.126C22.1254 92.126 21.2574 91.8087 20.6227 91.174C19.9881 90.53 19.6707 89.6387 19.6707 88.5C19.6707 87.7627 19.8107 87.1233 20.0907 86.582C20.3707 86.0313 20.7627 85.6067 21.2667 85.308C21.7707 85 22.3494 84.846 23.0027 84.846C23.6467 84.846 24.1881 84.9813 24.6267 85.252C25.0654 85.5227 25.4014 85.91 25.6348 86.414C25.8681 86.9087 25.9847 87.4967 25.9847 88.178V88.598H20.5387V87.884H25.2427L25.0048 88.066C25.0048 87.3193 24.8367 86.736 24.5007 86.316C24.1647 85.896 23.6654 85.686 23.0027 85.686C22.3027 85.686 21.7567 85.9333 21.3647 86.428C20.9727 86.9133 20.7767 87.5713 20.7767 88.402V88.528C20.7767 89.4053 20.9914 90.0727 21.4207 90.53C21.8594 90.978 22.4707 91.202 23.2548 91.202C23.6747 91.202 24.0667 91.1413 24.4307 91.02C24.8041 90.8893 25.1588 90.6793 25.4947 90.39L25.8867 91.188C25.5787 91.4867 25.1868 91.72 24.7108 91.888C24.2441 92.0467 23.7494 92.126 23.2267 92.126ZM30.674 92.126C30.0487 92.126 29.5027 91.9813 29.036 91.692C28.5693 91.3933 28.2053 90.9733 27.944 90.432C27.692 89.8907 27.566 89.242 27.566 88.486C27.566 87.7207 27.692 87.0673 27.944 86.526C28.2053 85.9847 28.5693 85.5693 29.036 85.28C29.5027 84.9907 30.0487 84.846 30.674 84.846C31.3087 84.846 31.8547 85.0093 32.312 85.336C32.7787 85.6533 33.0867 86.0873 33.236 86.638H33.068L33.222 84.972H34.314C34.286 85.2427 34.258 85.518 34.23 85.798C34.2113 86.0687 34.202 86.3347 34.202 86.596V92H33.068V90.348H33.222C33.0727 90.8987 32.7647 91.3327 32.298 91.65C31.8313 91.9673 31.29 92.126 30.674 92.126ZM30.898 91.202C31.57 91.202 32.102 90.9733 32.494 90.516C32.886 90.0493 33.082 89.3727 33.082 88.486C33.082 87.59 32.886 86.9133 32.494 86.456C32.102 85.9893 31.57 85.756 30.898 85.756C30.2353 85.756 29.7033 85.9893 29.302 86.456C28.91 86.9133 28.714 87.59 28.714 88.486C28.714 89.3727 28.91 90.0493 29.302 90.516C29.7033 90.9733 30.2353 91.202 30.898 91.202ZM36.6745 92V81.696H37.8085V92H36.6745ZM42.7825 92.126C42.0918 92.126 41.5645 91.93 41.2005 91.538C40.8365 91.1367 40.6545 90.5347 40.6545 89.732V85.854H39.2825V84.972H40.6545V83.054L41.7885 82.732V84.972H43.8045V85.854H41.7885V89.606C41.7885 90.166 41.8818 90.5673 42.0685 90.81C42.2645 91.0433 42.5538 91.16 42.9365 91.16C43.1138 91.16 43.2725 91.146 43.4125 91.118C43.5525 91.0807 43.6785 91.0387 43.7905 90.992V91.944C43.6598 92 43.5011 92.042 43.3145 92.07C43.1371 92.1073 42.9598 92.126 42.7825 92.126ZM45.465 92V81.696H46.599V86.526H46.417C46.613 85.9753 46.9397 85.56 47.397 85.28C47.8637 84.9907 48.4003 84.846 49.007 84.846C49.847 84.846 50.4723 85.0747 50.883 85.532C51.2937 85.98 51.499 86.6613 51.499 87.576V92H50.365V87.646C50.365 86.9927 50.2343 86.5167 49.973 86.218C49.721 85.9193 49.3103 85.77 48.741 85.77C48.0877 85.77 47.565 85.9707 47.173 86.372C46.7903 86.7733 46.599 87.3007 46.599 87.954V92H45.465ZM65.9005 92.126C65.4712 91.93 65.0698 91.692 64.6965 91.412C64.3232 91.1227 64.0058 90.8427 63.7445 90.572L64.0245 90.586C63.6232 91.0713 63.1378 91.4493 62.5685 91.72C61.9992 91.9907 61.3785 92.126 60.7065 92.126C60.0345 92.126 59.4558 92.0233 58.9705 91.818C58.4945 91.6033 58.1258 91.3093 57.8645 90.936C57.6125 90.5627 57.4865 90.1287 57.4865 89.634C57.4865 88.99 57.6732 88.444 58.0465 87.996C58.4198 87.548 58.9518 87.1 59.6425 86.652L60.1045 86.358L59.9365 86.568C59.4978 86.1013 59.1758 85.686 58.9705 85.322C58.7745 84.9487 58.6765 84.566 58.6765 84.174C58.6765 83.7447 58.7792 83.3667 58.9845 83.04C59.1898 82.7133 59.4745 82.4613 59.8385 82.284C60.2118 82.0973 60.6505 82.004 61.1545 82.004C61.7892 82.004 62.3165 82.186 62.7365 82.55C63.1658 82.9047 63.3805 83.39 63.3805 84.006C63.3805 84.342 63.3105 84.6593 63.1705 84.958C63.0398 85.2473 62.8158 85.5367 62.4985 85.826C62.1812 86.106 61.7518 86.414 61.2105 86.75L61.2385 86.484L63.9545 89.424H63.7025C63.9452 89.0413 64.1318 88.57 64.2625 88.01C64.4025 87.4407 64.4818 86.8433 64.5005 86.218H65.4945C65.4758 86.9927 65.3685 87.716 65.1725 88.388C64.9765 89.0507 64.7152 89.6387 64.3885 90.152L64.3605 89.816C64.6032 90.0773 64.8972 90.3433 65.2425 90.614C65.5878 90.8753 65.9612 91.0993 66.3625 91.286L65.9005 92.126ZM60.7485 91.202C61.3085 91.202 61.8032 91.09 62.2325 90.866C62.6712 90.642 63.0538 90.3153 63.3805 89.886L63.3525 90.208L60.3145 86.96L60.7485 86.974L60.3145 87.24C59.9225 87.5013 59.6005 87.7487 59.3485 87.982C59.0965 88.2153 58.9098 88.458 58.7885 88.71C58.6672 88.962 58.6065 89.2467 58.6065 89.564C58.6065 90.0773 58.7885 90.4787 59.1525 90.768C59.5258 91.0573 60.0578 91.202 60.7485 91.202ZM61.1545 82.858C60.7345 82.858 60.3938 82.9793 60.1325 83.222C59.8712 83.4553 59.7405 83.768 59.7405 84.16C59.7405 84.3653 59.7732 84.5567 59.8385 84.734C59.9132 84.9113 60.0345 85.1073 60.2025 85.322C60.3705 85.5273 60.5945 85.7887 60.8745 86.106L60.5665 86.148C61.2105 85.756 61.6772 85.406 61.9665 85.098C62.2652 84.7807 62.4145 84.4353 62.4145 84.062C62.4145 83.698 62.2978 83.4087 62.0645 83.194C61.8405 82.97 61.5372 82.858 61.1545 82.858ZM74.2955 92L70.8515 82.13H72.0695L75.0795 91.02H74.5895L77.7535 82.13H78.6775L81.6735 91.02H81.2255L84.3195 82.13H85.4675L81.9955 92H80.9595L78.0475 83.446H78.3415L75.3035 92H74.2955ZM89.6354 92.126C88.5341 92.126 87.6661 91.8087 87.0314 91.174C86.3968 90.53 86.0794 89.6387 86.0794 88.5C86.0794 87.7627 86.2194 87.1233 86.4994 86.582C86.7794 86.0313 87.1714 85.6067 87.6754 85.308C88.1794 85 88.7581 84.846 89.4114 84.846C90.0554 84.846 90.5968 84.9813 91.0354 85.252C91.4741 85.5227 91.8101 85.91 92.0434 86.414C92.2768 86.9087 92.3934 87.4967 92.3934 88.178V88.598H86.9474V87.884H91.6514L91.4134 88.066C91.4134 87.3193 91.2454 86.736 90.9094 86.316C90.5734 85.896 90.0741 85.686 89.4114 85.686C88.7114 85.686 88.1654 85.9333 87.7734 86.428C87.3814 86.9133 87.1854 87.5713 87.1854 88.402V88.528C87.1854 89.4053 87.4001 90.0727 87.8294 90.53C88.2681 90.978 88.8794 91.202 89.6634 91.202C90.0834 91.202 90.4754 91.1413 90.8394 91.02C91.2128 90.8893 91.5674 90.6793 91.9034 90.39L92.2954 91.188C91.9874 91.4867 91.5954 91.72 91.1194 91.888C90.6528 92.0467 90.1581 92.126 89.6354 92.126ZM94.4087 92V81.696H95.5427V92H94.4087ZM98.0246 92V81.696H99.1586V92H98.0246ZM101.641 92V86.596C101.641 86.3347 101.627 86.0687 101.599 85.798C101.58 85.518 101.557 85.2427 101.529 84.972H102.621L102.761 86.512H102.593C102.798 85.9707 103.125 85.56 103.573 85.28C104.03 84.9907 104.557 84.846 105.155 84.846C105.985 84.846 106.611 85.07 107.031 85.518C107.46 85.9567 107.675 86.652 107.675 87.604V92H106.541V87.674C106.541 87.0113 106.405 86.5307 106.135 86.232C105.873 85.924 105.463 85.77 104.903 85.77C104.249 85.77 103.731 85.9707 103.349 86.372C102.966 86.7733 102.775 87.31 102.775 87.982V92H101.641ZM113.246 92.126C112.144 92.126 111.276 91.8087 110.642 91.174C110.007 90.53 109.69 89.6387 109.69 88.5C109.69 87.7627 109.83 87.1233 110.11 86.582C110.39 86.0313 110.782 85.6067 111.286 85.308C111.79 85 112.368 84.846 113.022 84.846C113.666 84.846 114.207 84.9813 114.646 85.252C115.084 85.5227 115.42 85.91 115.654 86.414C115.887 86.9087 116.004 87.4967 116.004 88.178V88.598H110.558V87.884H115.262L115.024 88.066C115.024 87.3193 114.856 86.736 114.52 86.316C114.184 85.896 113.684 85.686 113.022 85.686C112.322 85.686 111.776 85.9333 111.384 86.428C110.992 86.9133 110.796 87.5713 110.796 88.402V88.528C110.796 89.4053 111.01 90.0727 111.44 90.53C111.878 90.978 112.49 91.202 113.274 91.202C113.694 91.202 114.086 91.1413 114.45 91.02C114.823 90.8893 115.178 90.6793 115.514 90.39L115.906 91.188C115.598 91.4867 115.206 91.72 114.73 91.888C114.263 92.0467 113.768 92.126 113.246 92.126ZM120.357 92.126C119.797 92.126 119.274 92.0513 118.789 91.902C118.304 91.7433 117.902 91.524 117.585 91.244L117.977 90.446C118.322 90.7167 118.696 90.9173 119.097 91.048C119.508 91.1787 119.932 91.244 120.371 91.244C120.931 91.244 121.351 91.146 121.631 90.95C121.92 90.7447 122.065 90.4647 122.065 90.11C122.065 89.8393 121.972 89.6247 121.785 89.466C121.608 89.298 121.314 89.1673 120.903 89.074L119.601 88.808C119.004 88.6773 118.556 88.458 118.257 88.15C117.958 87.8327 117.809 87.4313 117.809 86.946C117.809 86.5353 117.916 86.176 118.131 85.868C118.346 85.5507 118.658 85.3033 119.069 85.126C119.48 84.9393 119.96 84.846 120.511 84.846C121.024 84.846 121.496 84.9253 121.925 85.084C122.364 85.2333 122.728 85.4527 123.017 85.742L122.611 86.526C122.331 86.2553 122.009 86.0547 121.645 85.924C121.29 85.784 120.922 85.714 120.539 85.714C119.988 85.714 119.573 85.826 119.293 86.05C119.022 86.2647 118.887 86.5493 118.887 86.904C118.887 87.1747 118.971 87.3987 119.139 87.576C119.316 87.744 119.587 87.87 119.951 87.954L121.253 88.22C121.888 88.36 122.359 88.5793 122.667 88.878C122.984 89.1673 123.143 89.5593 123.143 90.054C123.143 90.474 123.026 90.8427 122.793 91.16C122.56 91.468 122.233 91.706 121.813 91.874C121.402 92.042 120.917 92.126 120.357 92.126ZM127.582 92.126C127.022 92.126 126.5 92.0513 126.014 91.902C125.529 91.7433 125.128 91.524 124.81 91.244L125.202 90.446C125.548 90.7167 125.921 90.9173 126.322 91.048C126.733 91.1787 127.158 91.244 127.596 91.244C128.156 91.244 128.576 91.146 128.856 90.95C129.146 90.7447 129.29 90.4647 129.29 90.11C129.29 89.8393 129.197 89.6247 129.01 89.466C128.833 89.298 128.539 89.1673 128.128 89.074L126.826 88.808C126.229 88.6773 125.781 88.458 125.482 88.15C125.184 87.8327 125.034 87.4313 125.034 86.946C125.034 86.5353 125.142 86.176 125.356 85.868C125.571 85.5507 125.884 85.3033 126.294 85.126C126.705 84.9393 127.186 84.846 127.736 84.846C128.25 84.846 128.721 84.9253 129.15 85.084C129.589 85.2333 129.953 85.4527 130.242 85.742L129.836 86.526C129.556 86.2553 129.234 86.0547 128.87 85.924C128.516 85.784 128.147 85.714 127.764 85.714C127.214 85.714 126.798 85.826 126.518 86.05C126.248 86.2647 126.112 86.5493 126.112 86.904C126.112 87.1747 126.196 87.3987 126.364 87.576C126.542 87.744 126.812 87.87 127.176 87.954L128.478 88.22C129.113 88.36 129.584 88.5793 129.892 88.878C130.21 89.1673 130.368 89.5593 130.368 90.054C130.368 90.474 130.252 90.8427 130.018 91.16C129.785 91.468 129.458 91.706 129.038 91.874C128.628 92.042 128.142 92.126 127.582 92.126Z" fill="#35273A"/>
<path d="M13.768 122.126C12.6853 122.126 11.78 121.925 11.052 121.524C10.324 121.123 9.778 120.544 9.414 119.788C9.05 119.032 8.868 118.127 8.868 117.072C8.868 116.027 9.05933 115.126 9.442 114.37C9.82467 113.614 10.3753 113.031 11.094 112.62C11.8127 112.209 12.6807 112.004 13.698 112.004C14.4167 112.004 15.0373 112.111 15.56 112.326C16.092 112.531 16.568 112.839 16.988 113.25L16.554 114.16C16.246 113.889 15.9473 113.675 15.658 113.516C15.378 113.357 15.084 113.241 14.776 113.166C14.468 113.082 14.1087 113.04 13.698 113.04C12.5313 113.04 11.6353 113.395 11.01 114.104C10.394 114.804 10.086 115.798 10.086 117.086C10.086 118.383 10.3847 119.377 10.982 120.068C11.5887 120.759 12.5267 121.104 13.796 121.104C14.2627 121.104 14.706 121.062 15.126 120.978C15.5553 120.885 15.9707 120.754 16.372 120.586L16.12 121.216V117.744H13.6V116.834H17.114V121.412C16.7127 121.627 16.204 121.799 15.588 121.93C14.9813 122.061 14.3747 122.126 13.768 122.126ZM22.3002 122.126C21.6749 122.126 21.1289 121.981 20.6622 121.692C20.1956 121.393 19.8316 120.973 19.5702 120.432C19.3182 119.891 19.1922 119.242 19.1922 118.486C19.1922 117.721 19.3182 117.067 19.5702 116.526C19.8316 115.985 20.1956 115.569 20.6622 115.28C21.1289 114.991 21.6749 114.846 22.3002 114.846C22.9349 114.846 23.4809 115.009 23.9382 115.336C24.4049 115.653 24.7129 116.087 24.8622 116.638H24.6942L24.8482 114.972H25.9402C25.9122 115.243 25.8842 115.518 25.8562 115.798C25.8376 116.069 25.8282 116.335 25.8282 116.596V122H24.6942V120.348H24.8482C24.6989 120.899 24.3909 121.333 23.9242 121.65C23.4576 121.967 22.9162 122.126 22.3002 122.126ZM22.5242 121.202C23.1962 121.202 23.7282 120.973 24.1202 120.516C24.5122 120.049 24.7082 119.373 24.7082 118.486C24.7082 117.59 24.5122 116.913 24.1202 116.456C23.7282 115.989 23.1962 115.756 22.5242 115.756C21.8616 115.756 21.3296 115.989 20.9282 116.456C20.5362 116.913 20.3402 117.59 20.3402 118.486C20.3402 119.373 20.5362 120.049 20.9282 120.516C21.3296 120.973 21.8616 121.202 22.5242 121.202ZM28.3008 122V116.596C28.3008 116.335 28.2868 116.069 28.2588 115.798C28.2401 115.518 28.2168 115.243 28.1888 114.972H29.2808L29.4208 116.512H29.2528C29.4394 115.98 29.7334 115.569 30.1348 115.28C30.5454 114.991 31.0401 114.846 31.6188 114.846C32.2068 114.846 32.6828 114.986 33.0468 115.266C33.4201 115.546 33.6721 115.98 33.8028 116.568H33.5928C33.7701 116.036 34.0828 115.616 34.5308 115.308C34.9788 115 35.5014 114.846 36.0988 114.846C36.8734 114.846 37.4568 115.07 37.8488 115.518C38.2408 115.957 38.4368 116.652 38.4368 117.604V122H37.3028V117.674C37.3028 117.011 37.1861 116.531 36.9528 116.232C36.7194 115.924 36.3461 115.77 35.8328 115.77C35.2448 115.77 34.7781 115.975 34.4328 116.386C34.0968 116.787 33.9288 117.329 33.9288 118.01V122H32.7948V117.674C32.7948 117.011 32.6781 116.531 32.4448 116.232C32.2114 115.924 31.8381 115.77 31.3248 115.77C30.7368 115.77 30.2748 115.975 29.9388 116.386C29.6028 116.787 29.4348 117.329 29.4348 118.01V122H28.3008ZM40.8718 122V114.972H42.0058V122H40.8718ZM40.7318 113.376V112.102H42.1318V113.376H40.7318ZM44.4877 122V116.596C44.4877 116.335 44.4737 116.069 44.4457 115.798C44.4271 115.518 44.4037 115.243 44.3757 114.972H45.4677L45.6077 116.512H45.4397C45.6451 115.971 45.9717 115.56 46.4197 115.28C46.8771 114.991 47.4044 114.846 48.0017 114.846C48.8324 114.846 49.4577 115.07 49.8777 115.518C50.3071 115.957 50.5217 116.652 50.5217 117.604V122H49.3877V117.674C49.3877 117.011 49.2524 116.531 48.9817 116.232C48.7204 115.924 48.3097 115.77 47.7497 115.77C47.0964 115.77 46.5784 115.971 46.1957 116.372C45.8131 116.773 45.6217 117.31 45.6217 117.982V122H44.4877ZM56.0648 125.122C55.4582 125.122 54.8982 125.047 54.3848 124.898C53.8715 124.749 53.4095 124.52 52.9988 124.212L53.3348 123.358C53.6242 123.563 53.9088 123.727 54.1888 123.848C54.4688 123.969 54.7582 124.058 55.0568 124.114C55.3555 124.179 55.6728 124.212 56.0088 124.212C56.6995 124.212 57.2222 124.03 57.5768 123.666C57.9315 123.302 58.1088 122.784 58.1088 122.112V120.054H58.2488C58.0995 120.605 57.7915 121.043 57.3248 121.37C56.8582 121.687 56.3122 121.846 55.6868 121.846C55.0428 121.846 54.4828 121.706 54.0068 121.426C53.5402 121.137 53.1762 120.731 52.9148 120.208C52.6628 119.676 52.5368 119.051 52.5368 118.332C52.5368 117.623 52.6628 117.007 52.9148 116.484C53.1762 115.961 53.5402 115.56 54.0068 115.28C54.4828 114.991 55.0428 114.846 55.6868 114.846C56.3215 114.846 56.8675 115.005 57.3248 115.322C57.7915 115.639 58.0995 116.078 58.2488 116.638L58.1088 116.498L58.2348 114.972H59.3408C59.3035 115.243 59.2755 115.518 59.2568 115.798C59.2382 116.069 59.2288 116.335 59.2288 116.596V121.958C59.2288 123.003 58.9582 123.792 58.4168 124.324C57.8848 124.856 57.1008 125.122 56.0648 125.122ZM55.8968 120.922C56.5782 120.922 57.1148 120.698 57.5068 120.25C57.8988 119.793 58.0948 119.153 58.0948 118.332C58.0948 117.511 57.8988 116.876 57.5068 116.428C57.1148 115.98 56.5782 115.756 55.8968 115.756C55.2248 115.756 54.6882 115.98 54.2868 116.428C53.8855 116.876 53.6848 117.511 53.6848 118.332C53.6848 119.153 53.8855 119.793 54.2868 120.25C54.6882 120.698 55.2248 120.922 55.8968 120.922ZM73.6388 122.126C73.2094 121.93 72.8081 121.692 72.4348 121.412C72.0614 121.123 71.7441 120.843 71.4828 120.572L71.7628 120.586C71.3614 121.071 70.8761 121.449 70.3068 121.72C69.7374 121.991 69.1168 122.126 68.4448 122.126C67.7728 122.126 67.1941 122.023 66.7088 121.818C66.2328 121.603 65.8641 121.309 65.6028 120.936C65.3508 120.563 65.2248 120.129 65.2248 119.634C65.2248 118.99 65.4114 118.444 65.7848 117.996C66.1581 117.548 66.6901 117.1 67.3808 116.652L67.8428 116.358L67.6748 116.568C67.2361 116.101 66.9141 115.686 66.7088 115.322C66.5128 114.949 66.4148 114.566 66.4148 114.174C66.4148 113.745 66.5174 113.367 66.7228 113.04C66.9281 112.713 67.2128 112.461 67.5768 112.284C67.9501 112.097 68.3888 112.004 68.8928 112.004C69.5274 112.004 70.0548 112.186 70.4748 112.55C70.9041 112.905 71.1188 113.39 71.1188 114.006C71.1188 114.342 71.0488 114.659 70.9088 114.958C70.7781 115.247 70.5541 115.537 70.2368 115.826C69.9194 116.106 69.4901 116.414 68.9488 116.75L68.9768 116.484L71.6928 119.424H71.4408C71.6834 119.041 71.8701 118.57 72.0008 118.01C72.1408 117.441 72.2201 116.843 72.2388 116.218H73.2328C73.2141 116.993 73.1068 117.716 72.9108 118.388C72.7148 119.051 72.4534 119.639 72.1268 120.152L72.0988 119.816C72.3414 120.077 72.6354 120.343 72.9808 120.614C73.3261 120.875 73.6994 121.099 74.1008 121.286L73.6388 122.126ZM68.4868 121.202C69.0468 121.202 69.5414 121.09 69.9708 120.866C70.4094 120.642 70.7921 120.315 71.1188 119.886L71.0908 120.208L68.0528 116.96L68.4868 116.974L68.0528 117.24C67.6608 117.501 67.3388 117.749 67.0868 117.982C66.8348 118.215 66.6481 118.458 66.5268 118.71C66.4054 118.962 66.3448 119.247 66.3448 119.564C66.3448 120.077 66.5268 120.479 66.8908 120.768C67.2641 121.057 67.7961 121.202 68.4868 121.202ZM68.8928 112.858C68.4728 112.858 68.1321 112.979 67.8708 113.222C67.6094 113.455 67.4788 113.768 67.4788 114.16C67.4788 114.365 67.5114 114.557 67.5768 114.734C67.6514 114.911 67.7728 115.107 67.9408 115.322C68.1088 115.527 68.3328 115.789 68.6128 116.106L68.3048 116.148C68.9488 115.756 69.4154 115.406 69.7048 115.098C70.0034 114.781 70.1528 114.435 70.1528 114.062C70.1528 113.698 70.0361 113.409 69.8028 113.194C69.5788 112.97 69.2754 112.858 68.8928 112.858ZM79.3457 122V112.13H85.6457V113.082H80.4797V116.512H85.3377V117.478H80.4797V121.034H85.6457V122H79.3457ZM87.7302 122V116.596C87.7302 116.335 87.7162 116.069 87.6882 115.798C87.6696 115.518 87.6462 115.243 87.6182 114.972H88.7102L88.8502 116.512H88.6822C88.8876 115.971 89.2142 115.56 89.6622 115.28C90.1196 114.991 90.6469 114.846 91.2442 114.846C92.0749 114.846 92.7002 115.07 93.1202 115.518C93.5496 115.957 93.7642 116.652 93.7642 117.604V122H92.6302V117.674C92.6302 117.011 92.4949 116.531 92.2242 116.232C91.9629 115.924 91.5522 115.77 90.9922 115.77C90.3389 115.77 89.8209 115.971 89.4382 116.372C89.0556 116.773 88.8642 117.31 88.8642 117.982V122H87.7302ZM98.7053 122.126C98.0147 122.126 97.4873 121.93 97.1233 121.538C96.7593 121.137 96.5773 120.535 96.5773 119.732V115.854H95.2053V114.972H96.5773V113.054L97.7113 112.732V114.972H99.7273V115.854H97.7113V119.606C97.7113 120.166 97.8047 120.567 97.9913 120.81C98.1873 121.043 98.4767 121.16 98.8593 121.16C99.0367 121.16 99.1953 121.146 99.3353 121.118C99.4753 121.081 99.6013 121.039 99.7133 120.992V121.944C99.5827 122 99.424 122.042 99.2373 122.07C99.06 122.107 98.8827 122.126 98.7053 122.126ZM104.442 122.126C103.34 122.126 102.472 121.809 101.838 121.174C101.203 120.53 100.886 119.639 100.886 118.5C100.886 117.763 101.026 117.123 101.306 116.582C101.586 116.031 101.978 115.607 102.482 115.308C102.986 115 103.564 114.846 104.218 114.846C104.862 114.846 105.403 114.981 105.842 115.252C106.28 115.523 106.616 115.91 106.85 116.414C107.083 116.909 107.2 117.497 107.2 118.178V118.598H101.754V117.884H106.458L106.22 118.066C106.22 117.319 106.052 116.736 105.716 116.316C105.38 115.896 104.88 115.686 104.218 115.686C103.518 115.686 102.972 115.933 102.58 116.428C102.188 116.913 101.992 117.571 101.992 118.402V118.528C101.992 119.405 102.206 120.073 102.636 120.53C103.074 120.978 103.686 121.202 104.47 121.202C104.89 121.202 105.282 121.141 105.646 121.02C106.019 120.889 106.374 120.679 106.71 120.39L107.102 121.188C106.794 121.487 106.402 121.72 105.926 121.888C105.459 122.047 104.964 122.126 104.442 122.126ZM109.187 122V116.666C109.187 116.386 109.177 116.101 109.159 115.812C109.149 115.523 109.131 115.243 109.103 114.972H110.195L110.335 116.68L110.139 116.694C110.232 116.274 110.395 115.929 110.629 115.658C110.862 115.387 111.137 115.187 111.455 115.056C111.772 114.916 112.103 114.846 112.449 114.846C112.589 114.846 112.71 114.851 112.813 114.86C112.925 114.869 113.027 114.893 113.121 114.93L113.107 115.938C112.967 115.891 112.836 115.863 112.715 115.854C112.603 115.835 112.472 115.826 112.323 115.826C111.912 115.826 111.553 115.924 111.245 116.12C110.946 116.316 110.717 116.568 110.559 116.876C110.409 117.184 110.335 117.511 110.335 117.856V122H109.187ZM117.442 122.126C116.751 122.126 116.224 121.93 115.86 121.538C115.496 121.137 115.314 120.535 115.314 119.732V115.854H113.942V114.972H115.314V113.054L116.448 112.732V114.972H118.464V115.854H116.448V119.606C116.448 120.166 116.541 120.567 116.728 120.81C116.924 121.043 117.213 121.16 117.596 121.16C117.773 121.16 117.932 121.146 118.072 121.118C118.212 121.081 118.338 121.039 118.45 120.992V121.944C118.319 122 118.16 122.042 117.974 122.07C117.796 122.107 117.619 122.126 117.442 122.126ZM122.798 122.126C122.173 122.126 121.627 121.981 121.16 121.692C120.694 121.393 120.33 120.973 120.068 120.432C119.816 119.891 119.69 119.242 119.69 118.486C119.69 117.721 119.816 117.067 120.068 116.526C120.33 115.985 120.694 115.569 121.16 115.28C121.627 114.991 122.173 114.846 122.798 114.846C123.433 114.846 123.979 115.009 124.436 115.336C124.903 115.653 125.211 116.087 125.36 116.638H125.192L125.346 114.972H126.438C126.41 115.243 126.382 115.518 126.354 115.798C126.336 116.069 126.326 116.335 126.326 116.596V122H125.192V120.348H125.346C125.197 120.899 124.889 121.333 124.422 121.65C123.956 121.967 123.414 122.126 122.798 122.126ZM123.022 121.202C123.694 121.202 124.226 120.973 124.618 120.516C125.01 120.049 125.206 119.373 125.206 118.486C125.206 117.59 125.01 116.913 124.618 116.456C124.226 115.989 123.694 115.756 123.022 115.756C122.36 115.756 121.828 115.989 121.426 116.456C121.034 116.913 120.838 117.59 120.838 118.486C120.838 119.373 121.034 120.049 121.426 120.516C121.828 120.973 122.36 121.202 123.022 121.202ZM128.799 122V114.972H129.933V122H128.799ZM128.659 113.376V112.102H130.059V113.376H128.659ZM132.415 122V116.596C132.415 116.335 132.401 116.069 132.373 115.798C132.354 115.518 132.331 115.243 132.303 114.972H133.395L133.535 116.512H133.367C133.572 115.971 133.899 115.56 134.347 115.28C134.804 114.991 135.331 114.846 135.929 114.846C136.759 114.846 137.385 115.07 137.805 115.518C138.234 115.957 138.449 116.652 138.449 117.604V122H137.315V117.674C137.315 117.011 137.179 116.531 136.909 116.232C136.647 115.924 136.237 115.77 135.677 115.77C135.023 115.77 134.505 115.971 134.123 116.372C133.74 116.773 133.549 117.31 133.549 117.982V122H132.415ZM140.898 122V116.596C140.898 116.335 140.884 116.069 140.856 115.798C140.837 115.518 140.814 115.243 140.786 114.972H141.878L142.018 116.512H141.85C142.037 115.98 142.331 115.569 142.732 115.28C143.143 114.991 143.637 114.846 144.216 114.846C144.804 114.846 145.28 114.986 145.644 115.266C146.017 115.546 146.269 115.98 146.4 116.568H146.19C146.367 116.036 146.68 115.616 147.128 115.308C147.576 115 148.099 114.846 148.696 114.846C149.471 114.846 150.054 115.07 150.446 115.518C150.838 115.957 151.034 116.652 151.034 117.604V122H149.9V117.674C149.9 117.011 149.783 116.531 149.55 116.232C149.317 115.924 148.943 115.77 148.43 115.77C147.842 115.77 147.375 115.975 147.03 116.386C146.694 116.787 146.526 117.329 146.526 118.01V122H145.392V117.674C145.392 117.011 145.275 116.531 145.042 116.232C144.809 115.924 144.435 115.77 143.922 115.77C143.334 115.77 142.872 115.975 142.536 116.386C142.2 116.787 142.032 117.329 142.032 118.01V122H140.898ZM156.591 122.126C155.49 122.126 154.622 121.809 153.987 121.174C153.352 120.53 153.035 119.639 153.035 118.5C153.035 117.763 153.175 117.123 153.455 116.582C153.735 116.031 154.127 115.607 154.631 115.308C155.135 115 155.714 114.846 156.367 114.846C157.011 114.846 157.552 114.981 157.991 115.252C158.43 115.523 158.766 115.91 158.999 116.414C159.232 116.909 159.349 117.497 159.349 118.178V118.598H153.903V117.884H158.607L158.369 118.066C158.369 117.319 158.201 116.736 157.865 116.316C157.529 115.896 157.03 115.686 156.367 115.686C155.667 115.686 155.121 115.933 154.729 116.428C154.337 116.913 154.141 117.571 154.141 118.402V118.528C154.141 119.405 154.356 120.073 154.785 120.53C155.224 120.978 155.835 121.202 156.619 121.202C157.039 121.202 157.431 121.141 157.795 121.02C158.168 120.889 158.523 120.679 158.859 120.39L159.251 121.188C158.943 121.487 158.551 121.72 158.075 121.888C157.608 122.047 157.114 122.126 156.591 122.126ZM161.364 122V116.596C161.364 116.335 161.35 116.069 161.322 115.798C161.304 115.518 161.28 115.243 161.252 114.972H162.344L162.484 116.512H162.316C162.522 115.971 162.848 115.56 163.296 115.28C163.754 114.991 164.281 114.846 164.878 114.846C165.709 114.846 166.334 115.07 166.754 115.518C167.184 115.957 167.398 116.652 167.398 117.604V122H166.264V117.674C166.264 117.011 166.129 116.531 165.858 116.232C165.597 115.924 165.186 115.77 164.626 115.77C163.973 115.77 163.455 115.971 163.072 116.372C162.69 116.773 162.498 117.31 162.498 117.982V122H161.364ZM172.339 122.126C171.649 122.126 171.121 121.93 170.757 121.538C170.393 121.137 170.211 120.535 170.211 119.732V115.854H168.839V114.972H170.211V113.054L171.345 112.732V114.972H173.361V115.854H171.345V119.606C171.345 120.166 171.439 120.567 171.625 120.81C171.821 121.043 172.111 121.16 172.493 121.16C172.671 121.16 172.829 121.146 172.969 121.118C173.109 121.081 173.235 121.039 173.347 120.992V121.944C173.217 122 173.058 122.042 172.871 122.07C172.694 122.107 172.517 122.126 172.339 122.126Z" fill="#35273A"/>
<path d="M9.232 152V142.13H15.532V143.082H10.366V146.512H15.224V147.478H10.366V151.034H15.532V152H9.232ZM20.2218 152.126C19.6058 152.126 19.0644 151.981 18.5978 151.692C18.1311 151.393 17.7671 150.973 17.5058 150.432C17.2538 149.891 17.1278 149.242 17.1278 148.486C17.1278 147.721 17.2538 147.067 17.5058 146.526C17.7671 145.985 18.1311 145.569 18.5978 145.28C19.0644 144.991 19.6058 144.846 20.2218 144.846C20.8564 144.846 21.4024 145.005 21.8598 145.322C22.3264 145.639 22.6391 146.069 22.7978 146.61H22.6298V141.696H23.7638V152H22.6438V150.32H22.7978C22.6484 150.88 22.3404 151.323 21.8738 151.65C21.4071 151.967 20.8564 152.126 20.2218 152.126ZM20.4598 151.202C21.1224 151.202 21.6544 150.973 22.0558 150.516C22.4571 150.049 22.6578 149.373 22.6578 148.486C22.6578 147.59 22.4571 146.913 22.0558 146.456C21.6544 145.989 21.1224 145.756 20.4598 145.756C19.7971 145.756 19.2651 145.989 18.8638 146.456C18.4718 146.913 18.2758 147.59 18.2758 148.486C18.2758 149.373 18.4718 150.049 18.8638 150.516C19.2651 150.973 19.7971 151.202 20.4598 151.202ZM28.7143 152.126C27.8836 152.126 27.2536 151.897 26.8243 151.44C26.4043 150.983 26.1943 150.283 26.1943 149.34V144.972H27.3283V149.312C27.3283 149.956 27.459 150.432 27.7203 150.74C27.9816 151.039 28.3876 151.188 28.9383 151.188C29.5543 151.188 30.049 150.987 30.4223 150.586C30.7956 150.185 30.9823 149.648 30.9823 148.976V144.972H32.1163V152H31.0103V150.418H31.1923C30.9963 150.959 30.679 151.379 30.2403 151.678C29.811 151.977 29.3023 152.126 28.7143 152.126ZM37.5504 152.126C36.8597 152.126 36.2577 151.977 35.7444 151.678C35.2404 151.379 34.8484 150.955 34.5684 150.404C34.2977 149.853 34.1624 149.2 34.1624 148.444C34.1624 147.679 34.3024 147.03 34.5824 146.498C34.8624 145.957 35.2544 145.546 35.7584 145.266C36.2717 144.986 36.8691 144.846 37.5504 144.846C37.9984 144.846 38.4324 144.925 38.8524 145.084C39.2817 145.243 39.6364 145.467 39.9164 145.756L39.5104 146.568C39.2304 146.297 38.9224 146.097 38.5864 145.966C38.2597 145.835 37.9377 145.77 37.6204 145.77C36.8924 145.77 36.3277 145.999 35.9264 146.456C35.5251 146.913 35.3244 147.581 35.3244 148.458C35.3244 149.326 35.5251 149.998 35.9264 150.474C36.3277 150.95 36.8924 151.188 37.6204 151.188C37.9284 151.188 38.2457 151.127 38.5724 151.006C38.9084 150.885 39.2211 150.684 39.5104 150.404L39.9164 151.202C39.6271 151.501 39.2677 151.729 38.8384 151.888C38.4091 152.047 37.9797 152.126 37.5504 152.126ZM44.4273 152.126C43.802 152.126 43.256 151.981 42.7893 151.692C42.3227 151.393 41.9587 150.973 41.6973 150.432C41.4453 149.891 41.3193 149.242 41.3193 148.486C41.3193 147.721 41.4453 147.067 41.6973 146.526C41.9587 145.985 42.3227 145.569 42.7893 145.28C43.256 144.991 43.802 144.846 44.4273 144.846C45.062 144.846 45.608 145.009 46.0653 145.336C46.532 145.653 46.84 146.087 46.9893 146.638H46.8213L46.9753 144.972H48.0673C48.0393 145.243 48.0113 145.518 47.9833 145.798C47.9647 146.069 47.9553 146.335 47.9553 146.596V152H46.8213V150.348H46.9753C46.826 150.899 46.518 151.333 46.0513 151.65C45.5847 151.967 45.0433 152.126 44.4273 152.126ZM44.6513 151.202C45.3233 151.202 45.8553 150.973 46.2473 150.516C46.6393 150.049 46.8353 149.373 46.8353 148.486C46.8353 147.59 46.6393 146.913 46.2473 146.456C45.8553 145.989 45.3233 145.756 44.6513 145.756C43.9887 145.756 43.4567 145.989 43.0553 146.456C42.6633 146.913 42.4673 147.59 42.4673 148.486C42.4673 149.373 42.6633 150.049 43.0553 150.516C43.4567 150.973 43.9887 151.202 44.6513 151.202ZM52.9199 152.126C52.2292 152.126 51.7019 151.93 51.3379 151.538C50.9739 151.137 50.7919 150.535 50.7919 149.732V145.854H49.4199V144.972H50.7919V143.054L51.9259 142.732V144.972H53.9419V145.854H51.9259V149.606C51.9259 150.166 52.0192 150.567 52.2059 150.81C52.4019 151.043 52.6912 151.16 53.0739 151.16C53.2512 151.16 53.4099 151.146 53.5499 151.118C53.6899 151.081 53.8159 151.039 53.9279 150.992V151.944C53.7972 152 53.6385 152.042 53.4519 152.07C53.2745 152.107 53.0972 152.126 52.9199 152.126ZM55.6024 152V144.972H56.7364V152H55.6024ZM55.4624 143.376V142.102H56.8624V143.376H55.4624ZM62.1023 152.126C61.4303 152.126 60.8423 151.981 60.3383 151.692C59.8437 151.393 59.461 150.973 59.1903 150.432C58.9197 149.881 58.7843 149.233 58.7843 148.486C58.7843 147.73 58.9197 147.081 59.1903 146.54C59.461 145.999 59.8437 145.583 60.3383 145.294C60.8423 144.995 61.4303 144.846 62.1023 144.846C62.7837 144.846 63.3717 144.995 63.8663 145.294C64.3703 145.583 64.7577 145.999 65.0283 146.54C65.3083 147.081 65.4483 147.73 65.4483 148.486C65.4483 149.233 65.3083 149.881 65.0283 150.432C64.7577 150.973 64.3703 151.393 63.8663 151.692C63.3717 151.981 62.7837 152.126 62.1023 152.126ZM62.1023 151.202C62.7743 151.202 63.3063 150.973 63.6983 150.516C64.0903 150.049 64.2863 149.373 64.2863 148.486C64.2863 147.59 64.0857 146.913 63.6843 146.456C63.2923 145.989 62.765 145.756 62.1023 145.756C61.4397 145.756 60.9123 145.989 60.5203 146.456C60.1283 146.913 59.9323 147.59 59.9323 148.486C59.9323 149.373 60.1283 150.049 60.5203 150.516C60.9123 150.973 61.4397 151.202 62.1023 151.202ZM67.4964 152V146.596C67.4964 146.335 67.4824 146.069 67.4544 145.798C67.4357 145.518 67.4124 145.243 67.3844 144.972H68.4764L68.6164 146.512H68.4484C68.6537 145.971 68.9804 145.56 69.4284 145.28C69.8857 144.991 70.4131 144.846 71.0104 144.846C71.8411 144.846 72.4664 145.07 72.8864 145.518C73.3157 145.957 73.5304 146.652 73.5304 147.604V152H72.3964V147.674C72.3964 147.011 72.2611 146.531 71.9904 146.232C71.7291 145.924 71.3184 145.77 70.7584 145.77C70.1051 145.77 69.5871 145.971 69.2044 146.372C68.8217 146.773 68.6304 147.31 68.6304 147.982V152H67.4964ZM87.9319 152.126C87.5026 151.93 87.1012 151.692 86.7279 151.412C86.3546 151.123 86.0372 150.843 85.7759 150.572L86.0559 150.586C85.6546 151.071 85.1692 151.449 84.5999 151.72C84.0306 151.991 83.4099 152.126 82.7379 152.126C82.0659 152.126 81.4872 152.023 81.0019 151.818C80.5259 151.603 80.1572 151.309 79.8959 150.936C79.6439 150.563 79.5179 150.129 79.5179 149.634C79.5179 148.99 79.7046 148.444 80.0779 147.996C80.4512 147.548 80.9832 147.1 81.6739 146.652L82.1359 146.358L81.9679 146.568C81.5292 146.101 81.2072 145.686 81.0019 145.322C80.8059 144.949 80.7079 144.566 80.7079 144.174C80.7079 143.745 80.8106 143.367 81.0159 143.04C81.2212 142.713 81.5059 142.461 81.8699 142.284C82.2432 142.097 82.6819 142.004 83.1859 142.004C83.8206 142.004 84.3479 142.186 84.7679 142.55C85.1972 142.905 85.4119 143.39 85.4119 144.006C85.4119 144.342 85.3419 144.659 85.2019 144.958C85.0712 145.247 84.8472 145.537 84.5299 145.826C84.2126 146.106 83.7832 146.414 83.2419 146.75L83.2699 146.484L85.9859 149.424H85.7339C85.9766 149.041 86.1632 148.57 86.2939 148.01C86.4339 147.441 86.5132 146.843 86.5319 146.218H87.5259C87.5072 146.993 87.3999 147.716 87.2039 148.388C87.0079 149.051 86.7466 149.639 86.4199 150.152L86.3919 149.816C86.6346 150.077 86.9286 150.343 87.2739 150.614C87.6192 150.875 87.9926 151.099 88.3939 151.286L87.9319 152.126ZM82.7799 151.202C83.3399 151.202 83.8346 151.09 84.2639 150.866C84.7026 150.642 85.0852 150.315 85.4119 149.886L85.3839 150.208L82.3459 146.96L82.7799 146.974L82.3459 147.24C81.9539 147.501 81.6319 147.749 81.3799 147.982C81.1279 148.215 80.9412 148.458 80.8199 148.71C80.6986 148.962 80.6379 149.247 80.6379 149.564C80.6379 150.077 80.8199 150.479 81.1839 150.768C81.5572 151.057 82.0892 151.202 82.7799 151.202ZM83.1859 142.858C82.7659 142.858 82.4252 142.979 82.1639 143.222C81.9026 143.455 81.7719 143.768 81.7719 144.16C81.7719 144.365 81.8046 144.557 81.8699 144.734C81.9446 144.911 82.0659 145.107 82.2339 145.322C82.4019 145.527 82.6259 145.789 82.9059 146.106L82.5979 146.148C83.2419 145.756 83.7086 145.406 83.9979 145.098C84.2966 144.781 84.4459 144.435 84.4459 144.062C84.4459 143.698 84.3292 143.409 84.0959 143.194C83.8719 142.97 83.5686 142.858 83.1859 142.858ZM93.6389 152V142.13H94.8009V150.992H99.7849V152H93.6389ZM104.475 152.126C103.374 152.126 102.506 151.809 101.871 151.174C101.237 150.53 100.919 149.639 100.919 148.5C100.919 147.763 101.059 147.123 101.339 146.582C101.619 146.031 102.011 145.607 102.515 145.308C103.019 145 103.598 144.846 104.251 144.846C104.895 144.846 105.437 144.981 105.875 145.252C106.314 145.523 106.65 145.91 106.883 146.414C107.117 146.909 107.233 147.497 107.233 148.178V148.598H101.787V147.884H106.491L106.253 148.066C106.253 147.319 106.085 146.736 105.749 146.316C105.413 145.896 104.914 145.686 104.251 145.686C103.551 145.686 103.005 145.933 102.613 146.428C102.221 146.913 102.025 147.571 102.025 148.402V148.528C102.025 149.405 102.24 150.073 102.669 150.53C103.108 150.978 103.719 151.202 104.503 151.202C104.923 151.202 105.315 151.141 105.679 151.02C106.053 150.889 106.407 150.679 106.743 150.39L107.135 151.188C106.827 151.487 106.435 151.72 105.959 151.888C105.493 152.047 104.998 152.126 104.475 152.126ZM111.923 152.126C111.297 152.126 110.751 151.981 110.285 151.692C109.818 151.393 109.454 150.973 109.193 150.432C108.941 149.891 108.815 149.242 108.815 148.486C108.815 147.721 108.941 147.067 109.193 146.526C109.454 145.985 109.818 145.569 110.285 145.28C110.751 144.991 111.297 144.846 111.923 144.846C112.557 144.846 113.103 145.009 113.561 145.336C114.027 145.653 114.335 146.087 114.485 146.638H114.317L114.471 144.972H115.563C115.535 145.243 115.507 145.518 115.479 145.798C115.46 146.069 115.451 146.335 115.451 146.596V152H114.317V150.348H114.471C114.321 150.899 114.013 151.333 113.547 151.65C113.08 151.967 112.539 152.126 111.923 152.126ZM112.147 151.202C112.819 151.202 113.351 150.973 113.743 150.516C114.135 150.049 114.331 149.373 114.331 148.486C114.331 147.59 114.135 146.913 113.743 146.456C113.351 145.989 112.819 145.756 112.147 145.756C111.484 145.756 110.952 145.989 110.551 146.456C110.159 146.913 109.963 147.59 109.963 148.486C109.963 149.373 110.159 150.049 110.551 150.516C110.952 150.973 111.484 151.202 112.147 151.202ZM117.895 152V146.666C117.895 146.386 117.886 146.101 117.867 145.812C117.858 145.523 117.839 145.243 117.811 144.972H118.903L119.043 146.68L118.847 146.694C118.941 146.274 119.104 145.929 119.337 145.658C119.571 145.387 119.846 145.187 120.163 145.056C120.481 144.916 120.812 144.846 121.157 144.846C121.297 144.846 121.419 144.851 121.521 144.86C121.633 144.869 121.736 144.893 121.829 144.93L121.815 145.938C121.675 145.891 121.545 145.863 121.423 145.854C121.311 145.835 121.181 145.826 121.031 145.826C120.621 145.826 120.261 145.924 119.953 146.12C119.655 146.316 119.426 146.568 119.267 146.876C119.118 147.184 119.043 147.511 119.043 147.856V152H117.895ZM123.289 152V146.596C123.289 146.335 123.275 146.069 123.247 145.798C123.228 145.518 123.205 145.243 123.177 144.972H124.269L124.409 146.512H124.241C124.446 145.971 124.773 145.56 125.221 145.28C125.678 144.991 126.206 144.846 126.803 144.846C127.634 144.846 128.259 145.07 128.679 145.518C129.108 145.957 129.323 146.652 129.323 147.604V152H128.189V147.674C128.189 147.011 128.054 146.531 127.783 146.232C127.522 145.924 127.111 145.77 126.551 145.77C125.898 145.77 125.38 145.971 124.997 146.372C124.614 146.773 124.423 147.31 124.423 147.982V152H123.289ZM131.772 152V144.972H132.906V152H131.772ZM131.632 143.376V142.102H133.032V143.376H131.632ZM135.388 152V146.596C135.388 146.335 135.374 146.069 135.346 145.798C135.328 145.518 135.304 145.243 135.276 144.972H136.368L136.508 146.512H136.34C136.546 145.971 136.872 145.56 137.32 145.28C137.778 144.991 138.305 144.846 138.902 144.846C139.733 144.846 140.358 145.07 140.778 145.518C141.208 145.957 141.422 146.652 141.422 147.604V152H140.288V147.674C140.288 147.011 140.153 146.531 139.882 146.232C139.621 145.924 139.21 145.77 138.65 145.77C137.997 145.77 137.479 145.971 137.096 146.372C136.714 146.773 136.522 147.31 136.522 147.982V152H135.388ZM146.965 155.122C146.359 155.122 145.799 155.047 145.285 154.898C144.772 154.749 144.31 154.52 143.899 154.212L144.235 153.358C144.525 153.563 144.809 153.727 145.089 153.848C145.369 153.969 145.659 154.058 145.957 154.114C146.256 154.179 146.573 154.212 146.909 154.212C147.6 154.212 148.123 154.03 148.477 153.666C148.832 153.302 149.009 152.784 149.009 152.112V150.054H149.149C149 150.605 148.692 151.043 148.225 151.37C147.759 151.687 147.213 151.846 146.587 151.846C145.943 151.846 145.383 151.706 144.907 151.426C144.441 151.137 144.077 150.731 143.815 150.208C143.563 149.676 143.437 149.051 143.437 148.332C143.437 147.623 143.563 147.007 143.815 146.484C144.077 145.961 144.441 145.56 144.907 145.28C145.383 144.991 145.943 144.846 146.587 144.846C147.222 144.846 147.768 145.005 148.225 145.322C148.692 145.639 149 146.078 149.149 146.638L149.009 146.498L149.135 144.972H150.241C150.204 145.243 150.176 145.518 150.157 145.798C150.139 146.069 150.129 146.335 150.129 146.596V151.958C150.129 153.003 149.859 153.792 149.317 154.324C148.785 154.856 148.001 155.122 146.965 155.122ZM146.797 150.922C147.479 150.922 148.015 150.698 148.407 150.25C148.799 149.793 148.995 149.153 148.995 148.332C148.995 147.511 148.799 146.876 148.407 146.428C148.015 145.98 147.479 145.756 146.797 145.756C146.125 145.756 145.589 145.98 145.187 146.428C144.786 146.876 144.585 147.511 144.585 148.332C144.585 149.153 144.786 149.793 145.187 150.25C145.589 150.698 146.125 150.922 146.797 150.922Z" fill="#35273A"/>
<path d="M9.232 182V172.13H10.394V180.992H15.378V182H9.232ZM17.0149 182V174.972H18.1489V182H17.0149ZM16.8749 173.376V172.102H18.2749V173.376H16.8749ZM20.9948 182V175.854H19.6228V174.972H21.3028L20.9948 175.266V174.09C20.9948 173.297 21.1955 172.69 21.5968 172.27C21.9982 171.85 22.5722 171.64 23.3188 171.64C23.5055 171.64 23.6968 171.659 23.8928 171.696C24.0982 171.724 24.2662 171.766 24.3968 171.822V172.76C24.2848 172.713 24.1448 172.676 23.9768 172.648C23.8182 172.611 23.6548 172.592 23.4868 172.592C23.1975 172.592 22.9502 172.653 22.7448 172.774C22.5395 172.886 22.3855 173.059 22.2828 173.292C22.1802 173.525 22.1288 173.824 22.1288 174.188V175.21L21.9468 174.972H24.0888V175.854H22.1288V182H20.9948ZM28.5719 182.126C27.4706 182.126 26.6026 181.809 25.9679 181.174C25.3332 180.53 25.0159 179.639 25.0159 178.5C25.0159 177.763 25.1559 177.123 25.4359 176.582C25.7159 176.031 26.1079 175.607 26.6119 175.308C27.1159 175 27.6946 174.846 28.3479 174.846C28.9919 174.846 29.5332 174.981 29.9719 175.252C30.4106 175.523 30.7466 175.91 30.9799 176.414C31.2132 176.909 31.3299 177.497 31.3299 178.178V178.598H25.8839V177.884H30.5879L30.3499 178.066C30.3499 177.319 30.1819 176.736 29.8459 176.316C29.5099 175.896 29.0106 175.686 28.3479 175.686C27.6479 175.686 27.1019 175.933 26.7099 176.428C26.3179 176.913 26.1219 177.571 26.1219 178.402V178.528C26.1219 179.405 26.3366 180.073 26.7659 180.53C27.2046 180.978 27.8159 181.202 28.5999 181.202C29.0199 181.202 29.4119 181.141 29.7759 181.02C30.1492 180.889 30.5039 180.679 30.8399 180.39L31.2319 181.188C30.9239 181.487 30.5319 181.72 30.0559 181.888C29.5892 182.047 29.0946 182.126 28.5719 182.126ZM35.6831 182.126C35.1231 182.126 34.6005 182.051 34.1151 181.902C33.6298 181.743 33.2285 181.524 32.9111 181.244L33.3031 180.446C33.6485 180.717 34.0218 180.917 34.4231 181.048C34.8338 181.179 35.2585 181.244 35.6971 181.244C36.2571 181.244 36.6771 181.146 36.9571 180.95C37.2465 180.745 37.3911 180.465 37.3911 180.11C37.3911 179.839 37.2978 179.625 37.1111 179.466C36.9338 179.298 36.6398 179.167 36.2291 179.074L34.9271 178.808C34.3298 178.677 33.8818 178.458 33.5831 178.15C33.2845 177.833 33.1351 177.431 33.1351 176.946C33.1351 176.535 33.2425 176.176 33.4571 175.868C33.6718 175.551 33.9845 175.303 34.3951 175.126C34.8058 174.939 35.2865 174.846 35.8371 174.846C36.3505 174.846 36.8218 174.925 37.2511 175.084C37.6898 175.233 38.0538 175.453 38.3431 175.742L37.9371 176.526C37.6571 176.255 37.3351 176.055 36.9711 175.924C36.6165 175.784 36.2478 175.714 35.8651 175.714C35.3145 175.714 34.8991 175.826 34.6191 176.05C34.3485 176.265 34.2131 176.549 34.2131 176.904C34.2131 177.175 34.2971 177.399 34.4651 177.576C34.6425 177.744 34.9131 177.87 35.2771 177.954L36.5791 178.22C37.2138 178.36 37.6851 178.579 37.9931 178.878C38.3105 179.167 38.4691 179.559 38.4691 180.054C38.4691 180.474 38.3525 180.843 38.1191 181.16C37.8858 181.468 37.5591 181.706 37.1391 181.874C36.7285 182.042 36.2431 182.126 35.6831 182.126ZM42.9941 182.126C42.3034 182.126 41.7761 181.93 41.4121 181.538C41.0481 181.137 40.8661 180.535 40.8661 179.732V175.854H39.4941V174.972H40.8661V173.054L42.0001 172.732V174.972H44.0161V175.854H42.0001V179.606C42.0001 180.166 42.0934 180.567 42.2801 180.81C42.4761 181.043 42.7654 181.16 43.1481 181.16C43.3254 181.16 43.4841 181.146 43.6241 181.118C43.7641 181.081 43.8901 181.039 44.0021 180.992V181.944C43.8714 182 43.7128 182.042 43.5261 182.07C43.3488 182.107 43.1714 182.126 42.9941 182.126ZM45.4787 185.178L45.2127 184.24C45.6513 184.137 46.0153 184.016 46.3047 183.876C46.6033 183.745 46.8507 183.568 47.0467 183.344C47.2427 183.12 47.4107 182.84 47.5507 182.504L47.9147 181.678L47.8867 182.154L44.8207 174.972H46.0527L48.5867 181.146H48.2227L50.7287 174.972H51.9187L48.6707 182.588C48.484 183.036 48.2787 183.409 48.0547 183.708C47.8307 184.016 47.588 184.263 47.3267 184.45C47.0747 184.646 46.7947 184.8 46.4867 184.912C46.1787 185.024 45.8427 185.113 45.4787 185.178ZM53.4762 182V171.696H54.6102V182H53.4762ZM60.2141 182.126C59.1128 182.126 58.2448 181.809 57.6101 181.174C56.9754 180.53 56.6581 179.639 56.6581 178.5C56.6581 177.763 56.7981 177.123 57.0781 176.582C57.3581 176.031 57.7501 175.607 58.2541 175.308C58.7581 175 59.3368 174.846 59.9901 174.846C60.6341 174.846 61.1754 174.981 61.6141 175.252C62.0528 175.523 62.3888 175.91 62.6221 176.414C62.8554 176.909 62.9721 177.497 62.9721 178.178V178.598H57.5261V177.884H62.2301L61.9921 178.066C61.9921 177.319 61.8241 176.736 61.4881 176.316C61.1521 175.896 60.6528 175.686 59.9901 175.686C59.2901 175.686 58.7441 175.933 58.3521 176.428C57.9601 176.913 57.7641 177.571 57.7641 178.402V178.528C57.7641 179.405 57.9788 180.073 58.4081 180.53C58.8468 180.978 59.4581 181.202 60.2421 181.202C60.6621 181.202 61.0541 181.141 61.4181 181.02C61.7914 180.889 62.1461 180.679 62.4821 180.39L62.8741 181.188C62.5661 181.487 62.1741 181.72 61.6981 181.888C61.2314 182.047 60.7368 182.126 60.2141 182.126ZM76.9397 182.126C76.5104 181.93 76.1091 181.692 75.7357 181.412C75.3624 181.123 75.0451 180.843 74.7837 180.572L75.0637 180.586C74.6624 181.071 74.1771 181.449 73.6077 181.72C73.0384 181.991 72.4177 182.126 71.7457 182.126C71.0737 182.126 70.4951 182.023 70.0097 181.818C69.5337 181.603 69.1651 181.309 68.9037 180.936C68.6517 180.563 68.5257 180.129 68.5257 179.634C68.5257 178.99 68.7124 178.444 69.0857 177.996C69.4591 177.548 69.9911 177.1 70.6817 176.652L71.1437 176.358L70.9757 176.568C70.5371 176.101 70.2151 175.686 70.0097 175.322C69.8137 174.949 69.7157 174.566 69.7157 174.174C69.7157 173.745 69.8184 173.367 70.0237 173.04C70.2291 172.713 70.5137 172.461 70.8777 172.284C71.2511 172.097 71.6897 172.004 72.1937 172.004C72.8284 172.004 73.3557 172.186 73.7757 172.55C74.2051 172.905 74.4197 173.39 74.4197 174.006C74.4197 174.342 74.3497 174.659 74.2097 174.958C74.0791 175.247 73.8551 175.537 73.5377 175.826C73.2204 176.106 72.7911 176.414 72.2497 176.75L72.2777 176.484L74.9937 179.424H74.7417C74.9844 179.041 75.1711 178.57 75.3017 178.01C75.4417 177.441 75.5211 176.843 75.5397 176.218H76.5337C76.5151 176.993 76.4077 177.716 76.2117 178.388C76.0157 179.051 75.7544 179.639 75.4277 180.152L75.3997 179.816C75.6424 180.077 75.9364 180.343 76.2817 180.614C76.6271 180.875 77.0004 181.099 77.4017 181.286L76.9397 182.126ZM71.7877 181.202C72.3477 181.202 72.8424 181.09 73.2717 180.866C73.7104 180.642 74.0931 180.315 74.4197 179.886L74.3917 180.208L71.3537 176.96L71.7877 176.974L71.3537 177.24C70.9617 177.501 70.6397 177.749 70.3877 177.982C70.1357 178.215 69.9491 178.458 69.8277 178.71C69.7064 178.962 69.6457 179.247 69.6457 179.564C69.6457 180.077 69.8277 180.479 70.1917 180.768C70.5651 181.057 71.0971 181.202 71.7877 181.202ZM72.1937 172.858C71.7737 172.858 71.4331 172.979 71.1717 173.222C70.9104 173.455 70.7797 173.768 70.7797 174.16C70.7797 174.365 70.8124 174.557 70.8777 174.734C70.9524 174.911 71.0737 175.107 71.2417 175.322C71.4097 175.527 71.6337 175.789 71.9137 176.106L71.6057 176.148C72.2497 175.756 72.7164 175.406 73.0057 175.098C73.3044 174.781 73.4537 174.435 73.4537 174.062C73.4537 173.698 73.3371 173.409 73.1037 173.194C72.8797 172.97 72.5764 172.858 72.1937 172.858ZM82.6467 182V172.13H86.6647C87.7007 172.13 88.4987 172.382 89.0587 172.886C89.6187 173.381 89.8987 174.071 89.8987 174.958C89.8987 175.826 89.6187 176.517 89.0587 177.03C88.4987 177.534 87.7007 177.786 86.6647 177.786H83.8087V182H82.6467ZM83.8087 176.82H86.5527C87.2714 176.82 87.8127 176.657 88.1767 176.33C88.55 176.003 88.7367 175.546 88.7367 174.958C88.7367 174.361 88.55 173.899 88.1767 173.572C87.8127 173.245 87.2714 173.082 86.5527 173.082H83.8087V176.82ZM91.7551 182V176.666C91.7551 176.386 91.7458 176.101 91.7271 175.812C91.7178 175.523 91.6991 175.243 91.6711 174.972H92.7631L92.9031 176.68L92.7071 176.694C92.8004 176.274 92.9638 175.929 93.1971 175.658C93.4304 175.387 93.7058 175.187 94.0231 175.056C94.3404 174.916 94.6718 174.846 95.0171 174.846C95.1571 174.846 95.2784 174.851 95.3811 174.86C95.4931 174.869 95.5958 174.893 95.6891 174.93L95.6751 175.938C95.5351 175.891 95.4044 175.863 95.2831 175.854C95.1711 175.835 95.0404 175.826 94.8911 175.826C94.4804 175.826 94.1211 175.924 93.8131 176.12C93.5144 176.316 93.2858 176.568 93.1271 176.876C92.9778 177.184 92.9031 177.511 92.9031 177.856V182H91.7551ZM100.189 182.126C99.0877 182.126 98.2197 181.809 97.585 181.174C96.9503 180.53 96.633 179.639 96.633 178.5C96.633 177.763 96.773 177.123 97.053 176.582C97.333 176.031 97.725 175.607 98.229 175.308C98.733 175 99.3117 174.846 99.965 174.846C100.609 174.846 101.15 174.981 101.589 175.252C102.028 175.523 102.364 175.91 102.597 176.414C102.83 176.909 102.947 177.497 102.947 178.178V178.598H97.501V177.884H102.205L101.967 178.066C101.967 177.319 101.799 176.736 101.463 176.316C101.127 175.896 100.628 175.686 99.965 175.686C99.265 175.686 98.719 175.933 98.327 176.428C97.935 176.913 97.739 177.571 97.739 178.402V178.528C97.739 179.405 97.9537 180.073 98.383 180.53C98.8217 180.978 99.433 181.202 100.217 181.202C100.637 181.202 101.029 181.141 101.393 181.02C101.766 180.889 102.121 180.679 102.457 180.39L102.849 181.188C102.541 181.487 102.149 181.72 101.673 181.888C101.206 182.047 100.712 182.126 100.189 182.126ZM105.326 182V175.854H103.954V174.972H105.634L105.326 175.266V174.09C105.326 173.297 105.527 172.69 105.928 172.27C106.33 171.85 106.904 171.64 107.65 171.64C107.837 171.64 108.028 171.659 108.224 171.696C108.43 171.724 108.598 171.766 108.728 171.822V172.76C108.616 172.713 108.476 172.676 108.308 172.648C108.15 172.611 107.986 172.592 107.818 172.592C107.529 172.592 107.282 172.653 107.076 172.774C106.871 172.886 106.717 173.059 106.614 173.292C106.512 173.525 106.46 173.824 106.46 174.188V175.21L106.278 174.972H108.42V175.854H106.46V182H105.326ZM112.903 182.126C111.802 182.126 110.934 181.809 110.299 181.174C109.665 180.53 109.347 179.639 109.347 178.5C109.347 177.763 109.487 177.123 109.767 176.582C110.047 176.031 110.439 175.607 110.943 175.308C111.447 175 112.026 174.846 112.679 174.846C113.323 174.846 113.865 174.981 114.303 175.252C114.742 175.523 115.078 175.91 115.311 176.414C115.545 176.909 115.661 177.497 115.661 178.178V178.598H110.215V177.884H114.919L114.681 178.066C114.681 177.319 114.513 176.736 114.177 176.316C113.841 175.896 113.342 175.686 112.679 175.686C111.979 175.686 111.433 175.933 111.041 176.428C110.649 176.913 110.453 177.571 110.453 178.402V178.528C110.453 179.405 110.668 180.073 111.097 180.53C111.536 180.978 112.147 181.202 112.931 181.202C113.351 181.202 113.743 181.141 114.107 181.02C114.481 180.889 114.835 180.679 115.171 180.39L115.563 181.188C115.255 181.487 114.863 181.72 114.387 181.888C113.921 182.047 113.426 182.126 112.903 182.126ZM117.649 182V176.666C117.649 176.386 117.639 176.101 117.621 175.812C117.611 175.523 117.593 175.243 117.565 174.972H118.657L118.797 176.68L118.601 176.694C118.694 176.274 118.857 175.929 119.091 175.658C119.324 175.387 119.599 175.187 119.917 175.056C120.234 174.916 120.565 174.846 120.911 174.846C121.051 174.846 121.172 174.851 121.275 174.86C121.387 174.869 121.489 174.893 121.583 174.93L121.569 175.938C121.429 175.891 121.298 175.863 121.177 175.854C121.065 175.835 120.934 175.826 120.785 175.826C120.374 175.826 120.015 175.924 119.707 176.12C119.408 176.316 119.179 176.568 119.021 176.876C118.871 177.184 118.797 177.511 118.797 177.856V182H117.649ZM126.082 182.126C124.981 182.126 124.113 181.809 123.478 181.174C122.844 180.53 122.526 179.639 122.526 178.5C122.526 177.763 122.666 177.123 122.946 176.582C123.226 176.031 123.618 175.607 124.122 175.308C124.626 175 125.205 174.846 125.858 174.846C126.502 174.846 127.044 174.981 127.482 175.252C127.921 175.523 128.257 175.91 128.49 176.414C128.724 176.909 128.84 177.497 128.84 178.178V178.598H123.394V177.884H128.098L127.86 178.066C127.86 177.319 127.692 176.736 127.356 176.316C127.02 175.896 126.521 175.686 125.858 175.686C125.158 175.686 124.612 175.933 124.22 176.428C123.828 176.913 123.632 177.571 123.632 178.402V178.528C123.632 179.405 123.847 180.073 124.276 180.53C124.715 180.978 125.326 181.202 126.11 181.202C126.53 181.202 126.922 181.141 127.286 181.02C127.66 180.889 128.014 180.679 128.35 180.39L128.742 181.188C128.434 181.487 128.042 181.72 127.566 181.888C127.1 182.047 126.605 182.126 126.082 182.126ZM130.856 182V176.596C130.856 176.335 130.842 176.069 130.814 175.798C130.795 175.518 130.772 175.243 130.744 174.972H131.836L131.976 176.512H131.808C132.013 175.971 132.34 175.56 132.788 175.28C133.245 174.991 133.772 174.846 134.37 174.846C135.2 174.846 135.826 175.07 136.246 175.518C136.675 175.957 136.89 176.652 136.89 177.604V182H135.756V177.674C135.756 177.011 135.62 176.531 135.35 176.232C135.088 175.924 134.678 175.77 134.118 175.77C133.464 175.77 132.946 175.971 132.564 176.372C132.181 176.773 131.99 177.31 131.99 177.982V182H130.856ZM142.293 182.126C141.602 182.126 141 181.977 140.487 181.678C139.983 181.379 139.591 180.955 139.311 180.404C139.04 179.853 138.905 179.2 138.905 178.444C138.905 177.679 139.045 177.03 139.325 176.498C139.605 175.957 139.997 175.546 140.501 175.266C141.014 174.986 141.611 174.846 142.293 174.846C142.741 174.846 143.175 174.925 143.595 175.084C144.024 175.243 144.379 175.467 144.659 175.756L144.253 176.568C143.973 176.297 143.665 176.097 143.329 175.966C143.002 175.835 142.68 175.77 142.363 175.77C141.635 175.77 141.07 175.999 140.669 176.456C140.267 176.913 140.067 177.581 140.067 178.458C140.067 179.326 140.267 179.998 140.669 180.474C141.07 180.95 141.635 181.188 142.363 181.188C142.671 181.188 142.988 181.127 143.315 181.006C143.651 180.885 143.963 180.684 144.253 180.404L144.659 181.202C144.369 181.501 144.01 181.729 143.581 181.888C143.151 182.047 142.722 182.126 142.293 182.126ZM149.536 182.126C148.434 182.126 147.566 181.809 146.932 181.174C146.297 180.53 145.98 179.639 145.98 178.5C145.98 177.763 146.12 177.123 146.4 176.582C146.68 176.031 147.072 175.607 147.576 175.308C148.08 175 148.658 174.846 149.312 174.846C149.956 174.846 150.497 174.981 150.936 175.252C151.374 175.523 151.71 175.91 151.944 176.414C152.177 176.909 152.294 177.497 152.294 178.178V178.598H146.848V177.884H151.552L151.314 178.066C151.314 177.319 151.146 176.736 150.81 176.316C150.474 175.896 149.974 175.686 149.312 175.686C148.612 175.686 148.066 175.933 147.674 176.428C147.282 176.913 147.086 177.571 147.086 178.402V178.528C147.086 179.405 147.3 180.073 147.73 180.53C148.168 180.978 148.78 181.202 149.564 181.202C149.984 181.202 150.376 181.141 150.74 181.02C151.113 180.889 151.468 180.679 151.804 180.39L152.196 181.188C151.888 181.487 151.496 181.72 151.02 181.888C150.553 182.047 150.058 182.126 149.536 182.126ZM156.647 182.126C156.087 182.126 155.564 182.051 155.079 181.902C154.594 181.743 154.192 181.524 153.875 181.244L154.267 180.446C154.612 180.717 154.986 180.917 155.387 181.048C155.798 181.179 156.222 181.244 156.661 181.244C157.221 181.244 157.641 181.146 157.921 180.95C158.21 180.745 158.355 180.465 158.355 180.11C158.355 179.839 158.262 179.625 158.075 179.466C157.898 179.298 157.604 179.167 157.193 179.074L155.891 178.808C155.294 178.677 154.846 178.458 154.547 178.15C154.248 177.833 154.099 177.431 154.099 176.946C154.099 176.535 154.206 176.176 154.421 175.868C154.636 175.551 154.948 175.303 155.359 175.126C155.77 174.939 156.25 174.846 156.801 174.846C157.314 174.846 157.786 174.925 158.215 175.084C158.654 175.233 159.018 175.453 159.307 175.742L158.901 176.526C158.621 176.255 158.299 176.055 157.935 175.924C157.58 175.784 157.212 175.714 156.829 175.714C156.278 175.714 155.863 175.826 155.583 176.05C155.312 176.265 155.177 176.549 155.177 176.904C155.177 177.175 155.261 177.399 155.429 177.576C155.606 177.744 155.877 177.87 156.241 177.954L157.543 178.22C158.178 178.36 158.649 178.579 158.957 178.878C159.274 179.167 159.433 179.559 159.433 180.054C159.433 180.474 159.316 180.843 159.083 181.16C158.85 181.468 158.523 181.706 158.103 181.874C157.692 182.042 157.207 182.126 156.647 182.126Z" fill="#35273A"/>
<path d="M11.626 212V203.11H8.14V202.13H16.26V203.11H12.788V212H11.626ZM19.8908 212.126C18.7895 212.126 17.9215 211.809 17.2868 211.174C16.6521 210.53 16.3348 209.639 16.3348 208.5C16.3348 207.763 16.4748 207.123 16.7548 206.582C17.0348 206.031 17.4268 205.607 17.9308 205.308C18.4348 205 19.0135 204.846 19.6668 204.846C20.3108 204.846 20.8521 204.981 21.2908 205.252C21.7295 205.523 22.0655 205.91 22.2988 206.414C22.5321 206.909 22.6488 207.497 22.6488 208.178V208.598H17.2028V207.884H21.9068L21.6688 208.066C21.6688 207.319 21.5008 206.736 21.1648 206.316C20.8288 205.896 20.3295 205.686 19.6668 205.686C18.9668 205.686 18.4208 205.933 18.0288 206.428C17.6368 206.913 17.4408 207.571 17.4408 208.402V208.528C17.4408 209.405 17.6555 210.073 18.0848 210.53C18.5235 210.978 19.1348 211.202 19.9188 211.202C20.3388 211.202 20.7308 211.141 21.0948 211.02C21.4681 210.889 21.8228 210.679 22.1588 210.39L22.5508 211.188C22.2428 211.487 21.8508 211.72 21.3748 211.888C20.9081 212.047 20.4135 212.126 19.8908 212.126ZM27.618 212.126C26.9274 212.126 26.3254 211.977 25.812 211.678C25.308 211.379 24.916 210.955 24.636 210.404C24.3654 209.853 24.23 209.2 24.23 208.444C24.23 207.679 24.37 207.03 24.65 206.498C24.93 205.957 25.322 205.546 25.826 205.266C26.3394 204.986 26.9367 204.846 27.618 204.846C28.066 204.846 28.5 204.925 28.92 205.084C29.3494 205.243 29.704 205.467 29.984 205.756L29.578 206.568C29.298 206.297 28.99 206.097 28.654 205.966C28.3274 205.835 28.0054 205.77 27.688 205.77C26.96 205.77 26.3954 205.999 25.994 206.456C25.5927 206.913 25.392 207.581 25.392 208.458C25.392 209.326 25.5927 209.998 25.994 210.474C26.3954 210.95 26.96 211.188 27.688 211.188C27.996 211.188 28.3134 211.127 28.64 211.006C28.976 210.885 29.2887 210.684 29.578 210.404L29.984 211.202C29.6947 211.501 29.3354 211.729 28.906 211.888C28.4767 212.047 28.0474 212.126 27.618 212.126ZM31.8757 212V201.696H33.0097V206.526H32.8277C33.0237 205.975 33.3504 205.56 33.8077 205.28C34.2744 204.991 34.811 204.846 35.4177 204.846C36.2577 204.846 36.883 205.075 37.2937 205.532C37.7044 205.98 37.9097 206.661 37.9097 207.576V212H36.7757V207.646C36.7757 206.993 36.645 206.517 36.3837 206.218C36.1317 205.919 35.721 205.77 35.1517 205.77C34.4984 205.77 33.9757 205.971 33.5837 206.372C33.201 206.773 33.0097 207.301 33.0097 207.954V212H31.8757ZM40.3588 212V206.596C40.3588 206.335 40.3448 206.069 40.3168 205.798C40.2981 205.518 40.2748 205.243 40.2468 204.972H41.3388L41.4788 206.512H41.3108C41.5161 205.971 41.8428 205.56 42.2908 205.28C42.7481 204.991 43.2755 204.846 43.8728 204.846C44.7035 204.846 45.3288 205.07 45.7488 205.518C46.1781 205.957 46.3928 206.652 46.3928 207.604V212H45.2588V207.674C45.2588 207.011 45.1235 206.531 44.8528 206.232C44.5915 205.924 44.1808 205.77 43.6208 205.77C42.9675 205.77 42.4495 205.971 42.0668 206.372C41.6841 206.773 41.4928 207.31 41.4928 207.982V212H40.3588ZM51.7259 212.126C51.0539 212.126 50.4659 211.981 49.9619 211.692C49.4673 211.393 49.0846 210.973 48.8139 210.432C48.5433 209.881 48.4079 209.233 48.4079 208.486C48.4079 207.73 48.5433 207.081 48.8139 206.54C49.0846 205.999 49.4673 205.583 49.9619 205.294C50.4659 204.995 51.0539 204.846 51.7259 204.846C52.4073 204.846 52.9953 204.995 53.4899 205.294C53.9939 205.583 54.3813 205.999 54.6519 206.54C54.9319 207.081 55.0719 207.73 55.0719 208.486C55.0719 209.233 54.9319 209.881 54.6519 210.432C54.3813 210.973 53.9939 211.393 53.4899 211.692C52.9953 211.981 52.4073 212.126 51.7259 212.126ZM51.7259 211.202C52.3979 211.202 52.9299 210.973 53.3219 210.516C53.7139 210.049 53.9099 209.373 53.9099 208.486C53.9099 207.59 53.7093 206.913 53.3079 206.456C52.9159 205.989 52.3886 205.756 51.7259 205.756C51.0633 205.756 50.5359 205.989 50.1439 206.456C49.7519 206.913 49.5559 207.59 49.5559 208.486C49.5559 209.373 49.7519 210.049 50.1439 210.516C50.5359 210.973 51.0633 211.202 51.7259 211.202ZM57.12 212V201.696H58.254V212H57.12ZM63.6199 212.126C62.9479 212.126 62.3599 211.981 61.8559 211.692C61.3613 211.393 60.9786 210.973 60.7079 210.432C60.4373 209.881 60.3019 209.233 60.3019 208.486C60.3019 207.73 60.4373 207.081 60.7079 206.54C60.9786 205.999 61.3613 205.583 61.8559 205.294C62.3599 204.995 62.9479 204.846 63.6199 204.846C64.3013 204.846 64.8893 204.995 65.3839 205.294C65.8879 205.583 66.2753 205.999 66.5459 206.54C66.8259 207.081 66.9659 207.73 66.9659 208.486C66.9659 209.233 66.8259 209.881 66.5459 210.432C66.2753 210.973 65.8879 211.393 65.3839 211.692C64.8893 211.981 64.3013 212.126 63.6199 212.126ZM63.6199 211.202C64.2919 211.202 64.8239 210.973 65.2159 210.516C65.6079 210.049 65.8039 209.373 65.8039 208.486C65.8039 207.59 65.6033 206.913 65.2019 206.456C64.8099 205.989 64.2826 205.756 63.6199 205.756C62.9573 205.756 62.4299 205.989 62.0379 206.456C61.6459 206.913 61.4499 207.59 61.4499 208.486C61.4499 209.373 61.6459 210.049 62.0379 210.516C62.4299 210.973 62.9573 211.202 63.6199 211.202ZM72.108 215.122C71.5013 215.122 70.9413 215.047 70.428 214.898C69.9146 214.749 69.4526 214.52 69.042 214.212L69.378 213.358C69.6673 213.563 69.952 213.727 70.232 213.848C70.512 213.969 70.8013 214.058 71.1 214.114C71.3986 214.179 71.716 214.212 72.052 214.212C72.7426 214.212 73.2653 214.03 73.62 213.666C73.9746 213.302 74.152 212.784 74.152 212.112V210.054H74.292C74.1426 210.605 73.8346 211.043 73.368 211.37C72.9013 211.687 72.3553 211.846 71.73 211.846C71.086 211.846 70.526 211.706 70.05 211.426C69.5833 211.137 69.2193 210.731 68.958 210.208C68.706 209.676 68.58 209.051 68.58 208.332C68.58 207.623 68.706 207.007 68.958 206.484C69.2193 205.961 69.5833 205.56 70.05 205.28C70.526 204.991 71.086 204.846 71.73 204.846C72.3646 204.846 72.9106 205.005 73.368 205.322C73.8346 205.639 74.1426 206.078 74.292 206.638L74.152 206.498L74.278 204.972H75.384C75.3466 205.243 75.3186 205.518 75.3 205.798C75.2813 206.069 75.272 206.335 75.272 206.596V211.958C75.272 213.003 75.0013 213.792 74.46 214.324C73.928 214.856 73.144 215.122 72.108 215.122ZM71.94 210.922C72.6213 210.922 73.158 210.698 73.55 210.25C73.942 209.793 74.138 209.153 74.138 208.332C74.138 207.511 73.942 206.876 73.55 206.428C73.158 205.98 72.6213 205.756 71.94 205.756C71.268 205.756 70.7313 205.98 70.33 206.428C69.9286 206.876 69.728 207.511 69.728 208.332C69.728 209.153 69.9286 209.793 70.33 210.25C70.7313 210.698 71.268 210.922 71.94 210.922ZM77.4495 215.178L77.1835 214.24C77.6222 214.137 77.9862 214.016 78.2755 213.876C78.5742 213.745 78.8215 213.568 79.0175 213.344C79.2135 213.12 79.3815 212.84 79.5215 212.504L79.8855 211.678L79.8575 212.154L76.7915 204.972H78.0235L80.5575 211.146H80.1935L82.6995 204.972H83.8895L80.6415 212.588C80.4548 213.036 80.2495 213.409 80.0255 213.708C79.8015 214.016 79.5588 214.263 79.2975 214.45C79.0455 214.646 78.7655 214.8 78.4575 214.912C78.1495 215.024 77.8135 215.113 77.4495 215.178ZM97.3994 212.126C96.9701 211.93 96.5687 211.692 96.1954 211.412C95.8221 211.123 95.5047 210.843 95.2434 210.572L95.5234 210.586C95.1221 211.071 94.6367 211.449 94.0674 211.72C93.4981 211.991 92.8774 212.126 92.2054 212.126C91.5334 212.126 90.9547 212.023 90.4694 211.818C89.9934 211.603 89.6247 211.309 89.3634 210.936C89.1114 210.563 88.9854 210.129 88.9854 209.634C88.9854 208.99 89.1721 208.444 89.5454 207.996C89.9187 207.548 90.4507 207.1 91.1414 206.652L91.6034 206.358L91.4354 206.568C90.9967 206.101 90.6747 205.686 90.4694 205.322C90.2734 204.949 90.1754 204.566 90.1754 204.174C90.1754 203.745 90.2781 203.367 90.4834 203.04C90.6887 202.713 90.9734 202.461 91.3374 202.284C91.7107 202.097 92.1494 202.004 92.6534 202.004C93.2881 202.004 93.8154 202.186 94.2354 202.55C94.6647 202.905 94.8794 203.39 94.8794 204.006C94.8794 204.342 94.8094 204.659 94.6694 204.958C94.5387 205.247 94.3147 205.537 93.9974 205.826C93.6801 206.106 93.2507 206.414 92.7094 206.75L92.7374 206.484L95.4534 209.424H95.2014C95.4441 209.041 95.6307 208.57 95.7614 208.01C95.9014 207.441 95.9807 206.843 95.9994 206.218H96.9934C96.9747 206.993 96.8674 207.716 96.6714 208.388C96.4754 209.051 96.2141 209.639 95.8874 210.152L95.8594 209.816C96.1021 210.077 96.3961 210.343 96.7414 210.614C97.0867 210.875 97.4601 211.099 97.8614 211.286L97.3994 212.126ZM92.2474 211.202C92.8074 211.202 93.3021 211.09 93.7314 210.866C94.1701 210.642 94.5527 210.315 94.8794 209.886L94.8514 210.208L91.8134 206.96L92.2474 206.974L91.8134 207.24C91.4214 207.501 91.0994 207.749 90.8474 207.982C90.5954 208.215 90.4087 208.458 90.2874 208.71C90.1661 208.962 90.1054 209.247 90.1054 209.564C90.1054 210.077 90.2874 210.479 90.6514 210.768C91.0247 211.057 91.5567 211.202 92.2474 211.202ZM92.6534 202.858C92.2334 202.858 91.8927 202.979 91.6314 203.222C91.3701 203.455 91.2394 203.768 91.2394 204.16C91.2394 204.365 91.2721 204.557 91.3374 204.734C91.4121 204.911 91.5334 205.107 91.7014 205.322C91.8694 205.527 92.0934 205.789 92.3734 206.106L92.0654 206.148C92.7094 205.756 93.1761 205.406 93.4654 205.098C93.7641 204.781 93.9134 204.435 93.9134 204.062C93.9134 203.698 93.7967 203.409 93.5634 203.194C93.3394 202.97 93.0361 202.858 92.6534 202.858ZM103.106 212V202.13H104.268V212H103.106ZM106.883 212V206.596C106.883 206.335 106.869 206.069 106.841 205.798C106.823 205.518 106.799 205.243 106.771 204.972H107.863L108.003 206.512H107.835C108.041 205.971 108.367 205.56 108.815 205.28C109.273 204.991 109.8 204.846 110.397 204.846C111.228 204.846 111.853 205.07 112.273 205.518C112.703 205.957 112.917 206.652 112.917 207.604V212H111.783V207.674C111.783 207.011 111.648 206.531 111.377 206.232C111.116 205.924 110.705 205.77 110.145 205.77C109.492 205.77 108.974 205.971 108.591 206.372C108.209 206.773 108.017 207.31 108.017 207.982V212H106.883ZM115.367 212V206.596C115.367 206.335 115.353 206.069 115.325 205.798C115.306 205.518 115.283 205.243 115.255 204.972H116.347L116.487 206.512H116.319C116.524 205.971 116.851 205.56 117.299 205.28C117.756 204.991 118.283 204.846 118.881 204.846C119.711 204.846 120.337 205.07 120.757 205.518C121.186 205.957 121.401 206.652 121.401 207.604V212H120.267V207.674C120.267 207.011 120.131 206.531 119.861 206.232C119.599 205.924 119.189 205.77 118.629 205.77C117.975 205.77 117.457 205.971 117.075 206.372C116.692 206.773 116.501 207.31 116.501 207.982V212H115.367ZM126.734 212.126C126.062 212.126 125.474 211.981 124.97 211.692C124.475 211.393 124.092 210.973 123.822 210.432C123.551 209.881 123.416 209.233 123.416 208.486C123.416 207.73 123.551 207.081 123.822 206.54C124.092 205.999 124.475 205.583 124.97 205.294C125.474 204.995 126.062 204.846 126.734 204.846C127.415 204.846 128.003 204.995 128.498 205.294C129.002 205.583 129.389 205.999 129.66 206.54C129.94 207.081 130.08 207.73 130.08 208.486C130.08 209.233 129.94 209.881 129.66 210.432C129.389 210.973 129.002 211.393 128.498 211.692C128.003 211.981 127.415 212.126 126.734 212.126ZM126.734 211.202C127.406 211.202 127.938 210.973 128.33 210.516C128.722 210.049 128.918 209.373 128.918 208.486C128.918 207.59 128.717 206.913 128.316 206.456C127.924 205.989 127.396 205.756 126.734 205.756C126.071 205.756 125.544 205.989 125.152 206.456C124.76 206.913 124.564 207.59 124.564 208.486C124.564 209.373 124.76 210.049 125.152 210.516C125.544 210.973 126.071 211.202 126.734 211.202ZM134.104 212L131.094 204.972H132.326L134.846 211.16H134.468L137.016 204.972H138.192L135.182 212H134.104ZM142.287 212.126C141.661 212.126 141.115 211.981 140.649 211.692C140.182 211.393 139.818 210.973 139.557 210.432C139.305 209.891 139.179 209.242 139.179 208.486C139.179 207.721 139.305 207.067 139.557 206.526C139.818 205.985 140.182 205.569 140.649 205.28C141.115 204.991 141.661 204.846 142.287 204.846C142.921 204.846 143.467 205.009 143.925 205.336C144.391 205.653 144.699 206.087 144.849 206.638H144.681L144.835 204.972H145.927C145.899 205.243 145.871 205.518 145.843 205.798C145.824 206.069 145.815 206.335 145.815 206.596V212H144.681V210.348H144.835C144.685 210.899 144.377 211.333 143.911 211.65C143.444 211.967 142.903 212.126 142.287 212.126ZM142.511 211.202C143.183 211.202 143.715 210.973 144.107 210.516C144.499 210.049 144.695 209.373 144.695 208.486C144.695 207.59 144.499 206.913 144.107 206.456C143.715 205.989 143.183 205.756 142.511 205.756C141.848 205.756 141.316 205.989 140.915 206.456C140.523 206.913 140.327 207.59 140.327 208.486C140.327 209.373 140.523 210.049 140.915 210.516C141.316 210.973 141.848 211.202 142.511 211.202ZM150.779 212.126C150.089 212.126 149.561 211.93 149.197 211.538C148.833 211.137 148.651 210.535 148.651 209.732V205.854H147.279V204.972H148.651V203.054L149.785 202.732V204.972H151.801V205.854H149.785V209.606C149.785 210.166 149.879 210.567 150.065 210.81C150.261 211.043 150.551 211.16 150.933 211.16C151.111 211.16 151.269 211.146 151.409 211.118C151.549 211.081 151.675 211.039 151.787 210.992V211.944C151.657 212 151.498 212.042 151.311 212.07C151.134 212.107 150.957 212.126 150.779 212.126ZM153.462 212V204.972H154.596V212H153.462ZM153.322 203.376V202.102H154.722V203.376H153.322ZM159.962 212.126C159.29 212.126 158.702 211.981 158.198 211.692C157.703 211.393 157.32 210.973 157.05 210.432C156.779 209.881 156.644 209.233 156.644 208.486C156.644 207.73 156.779 207.081 157.05 206.54C157.32 205.999 157.703 205.583 158.198 205.294C158.702 204.995 159.29 204.846 159.962 204.846C160.643 204.846 161.231 204.995 161.726 205.294C162.23 205.583 162.617 205.999 162.888 206.54C163.168 207.081 163.308 207.73 163.308 208.486C163.308 209.233 163.168 209.881 162.888 210.432C162.617 210.973 162.23 211.393 161.726 211.692C161.231 211.981 160.643 212.126 159.962 212.126ZM159.962 211.202C160.634 211.202 161.166 210.973 161.558 210.516C161.95 210.049 162.146 209.373 162.146 208.486C162.146 207.59 161.945 206.913 161.544 206.456C161.152 205.989 160.624 205.756 159.962 205.756C159.299 205.756 158.772 205.989 158.38 206.456C157.988 206.913 157.792 207.59 157.792 208.486C157.792 209.373 157.988 210.049 158.38 210.516C158.772 210.973 159.299 211.202 159.962 211.202ZM165.356 212V206.596C165.356 206.335 165.342 206.069 165.314 205.798C165.295 205.518 165.272 205.243 165.244 204.972H166.336L166.476 206.512H166.308C166.513 205.971 166.84 205.56 167.288 205.28C167.745 204.991 168.273 204.846 168.87 204.846C169.701 204.846 170.326 205.07 170.746 205.518C171.175 205.957 171.39 206.652 171.39 207.604V212H170.256V207.674C170.256 207.011 170.121 206.531 169.85 206.232C169.589 205.924 169.178 205.77 168.618 205.77C167.965 205.77 167.447 205.971 167.064 206.372C166.681 206.773 166.49 207.31 166.49 207.982V212H165.356Z" fill="#35273A"/>
</svg>
