<svg width="206" height="62" viewBox="0 0 206 62" fill="none" xmlns="http://www.w3.org/2000/svg">
<rect width="206" height="32" rx="6" fill="#D9D9D9" fill-opacity="0.12"/>
<path d="M15.832 22.68C14.812 22.68 13.87 22.554 13.006 22.302C12.154 22.038 11.422 21.678 10.81 21.222L11.53 19.404C11.938 19.692 12.364 19.938 12.808 20.142C13.252 20.334 13.726 20.484 14.23 20.592C14.734 20.688 15.268 20.736 15.832 20.736C16.78 20.736 17.464 20.58 17.884 20.268C18.304 19.956 18.514 19.548 18.514 19.044C18.514 18.6 18.37 18.264 18.082 18.036C17.794 17.796 17.278 17.598 16.534 17.442L14.5 17.028C13.336 16.788 12.466 16.386 11.89 15.822C11.314 15.258 11.026 14.502 11.026 13.554C11.026 12.762 11.236 12.072 11.656 11.484C12.076 10.896 12.664 10.44 13.42 10.116C14.176 9.792 15.058 9.63 16.066 9.63C16.966 9.63 17.8 9.762 18.568 10.026C19.336 10.278 19.978 10.644 20.494 11.124L19.774 12.852C19.258 12.42 18.694 12.102 18.082 11.898C17.47 11.682 16.786 11.574 16.03 11.574C15.178 11.574 14.512 11.742 14.032 12.078C13.564 12.402 13.33 12.852 13.33 13.428C13.33 13.872 13.474 14.226 13.762 14.49C14.062 14.754 14.566 14.958 15.274 15.102L17.29 15.498C18.49 15.738 19.378 16.134 19.954 16.686C20.53 17.226 20.818 17.958 20.818 18.882C20.818 19.638 20.614 20.304 20.206 20.88C19.798 21.444 19.222 21.888 18.478 22.212C17.734 22.524 16.852 22.68 15.832 22.68ZM26.9296 22.68C25.9936 22.68 25.1836 22.488 24.4996 22.104C23.8156 21.72 23.2816 21.174 22.8976 20.466C22.5256 19.758 22.3396 18.918 22.3396 17.946C22.3396 16.974 22.5256 16.14 22.8976 15.444C23.2816 14.736 23.8156 14.19 24.4996 13.806C25.1836 13.422 25.9936 13.23 26.9296 13.23C27.8656 13.23 28.6756 13.422 29.3596 13.806C30.0556 14.19 30.5896 14.736 30.9616 15.444C31.3456 16.14 31.5376 16.974 31.5376 17.946C31.5376 18.918 31.3456 19.758 30.9616 20.466C30.5896 21.174 30.0556 21.72 29.3596 22.104C28.6756 22.488 27.8656 22.68 26.9296 22.68ZM26.9296 20.952C27.6376 20.952 28.2016 20.706 28.6216 20.214C29.0416 19.71 29.2516 18.954 29.2516 17.946C29.2516 16.938 29.0416 16.188 28.6216 15.696C28.2016 15.204 27.6376 14.958 26.9296 14.958C26.2216 14.958 25.6576 15.204 25.2376 15.696C24.8176 16.188 24.6076 16.938 24.6076 17.946C24.6076 18.954 24.8176 19.71 25.2376 20.214C25.6576 20.706 26.2216 20.952 26.9296 20.952ZM33.4599 22.5V15.732C33.4599 15.348 33.4479 14.958 33.4239 14.562C33.4119 14.166 33.3819 13.782 33.3339 13.41H35.5119L35.7639 15.894H35.4039C35.5239 15.294 35.7219 14.796 35.9979 14.4C36.2859 14.004 36.6339 13.71 37.0419 13.518C37.4499 13.326 37.8939 13.23 38.3739 13.23C38.5899 13.23 38.7639 13.242 38.8959 13.266C39.0279 13.278 39.1599 13.308 39.2919 13.356L39.2739 15.336C39.0459 15.24 38.8479 15.18 38.6799 15.156C38.5239 15.132 38.3259 15.12 38.0859 15.12C37.5699 15.12 37.1319 15.228 36.7719 15.444C36.4239 15.66 36.1599 15.96 35.9799 16.344C35.8119 16.728 35.7279 17.166 35.7279 17.658V22.5H33.4599ZM44.9421 22.68C43.8621 22.68 43.0461 22.398 42.4941 21.834C41.9421 21.27 41.6661 20.424 41.6661 19.296V15.102H39.9201V13.41H41.6661V11.088L43.9161 10.512V13.41H46.3461V15.102H43.9161V19.152C43.9161 19.776 44.0361 20.214 44.2761 20.466C44.5161 20.718 44.8461 20.844 45.2661 20.844C45.4941 20.844 45.6861 20.826 45.8421 20.79C46.0101 20.754 46.1721 20.706 46.3281 20.646V22.428C46.1241 22.512 45.8961 22.572 45.6441 22.608C45.4041 22.656 45.1701 22.68 44.9421 22.68ZM58.0158 22.68C57.2478 22.68 56.5758 22.494 55.9998 22.122C55.4238 21.738 55.0398 21.222 54.8478 20.574H55.0458V22.5H52.8138V9.252H55.0638V15.264H54.8478C55.0518 14.64 55.4418 14.148 56.0178 13.788C56.5938 13.416 57.2598 13.23 58.0158 13.23C58.8198 13.23 59.5218 13.422 60.1218 13.806C60.7218 14.19 61.1898 14.736 61.5258 15.444C61.8618 16.14 62.0298 16.98 62.0298 17.964C62.0298 18.948 61.8618 19.794 61.5258 20.502C61.1898 21.198 60.7158 21.738 60.1038 22.122C59.5038 22.494 58.8078 22.68 58.0158 22.68ZM57.3858 20.952C58.0938 20.952 58.6638 20.706 59.0958 20.214C59.5398 19.722 59.7618 18.972 59.7618 17.964C59.7618 16.956 59.5398 16.206 59.0958 15.714C58.6638 15.21 58.0938 14.958 57.3858 14.958C56.6778 14.958 56.1078 15.204 55.6758 15.696C55.2438 16.188 55.0278 16.938 55.0278 17.946C55.0278 18.954 55.2438 19.71 55.6758 20.214C56.1078 20.706 56.6778 20.952 57.3858 20.952ZM63.6202 26.586L63.0982 24.804C63.6622 24.684 64.1362 24.546 64.5202 24.39C64.9042 24.234 65.2222 24.03 65.4742 23.778C65.7262 23.526 65.9362 23.202 66.1042 22.806L66.5542 21.744L66.5002 22.626L62.5402 13.41H64.9342L67.7782 20.502H67.2562L70.1182 13.41H72.3862L68.2462 23.004C67.9702 23.652 67.6702 24.186 67.3462 24.606C67.0222 25.038 66.6742 25.38 66.3022 25.632C65.9302 25.896 65.5222 26.1 65.0782 26.244C64.6342 26.388 64.1482 26.502 63.6202 26.586ZM82.6891 22.68C81.7531 22.68 80.9311 22.488 80.2231 22.104C79.5271 21.72 78.9871 21.174 78.6031 20.466C78.2191 19.746 78.0271 18.894 78.0271 17.91C78.0271 16.926 78.2191 16.086 78.6031 15.39C78.9991 14.694 79.5451 14.16 80.2411 13.788C80.9371 13.416 81.7531 13.23 82.6891 13.23C83.2891 13.23 83.8711 13.326 84.4351 13.518C85.0111 13.698 85.4791 13.962 85.8391 14.31L85.1551 15.876C84.8311 15.576 84.4651 15.354 84.0571 15.21C83.6611 15.054 83.2711 14.976 82.8871 14.976C82.0831 14.976 81.4531 15.228 80.9971 15.732C80.5531 16.236 80.3311 16.968 80.3311 17.928C80.3311 18.888 80.5531 19.626 80.9971 20.142C81.4531 20.658 82.0831 20.916 82.8871 20.916C83.2591 20.916 83.6431 20.844 84.0391 20.7C84.4471 20.556 84.8191 20.334 85.1551 20.034L85.8391 21.582C85.4671 21.93 84.9931 22.2 84.4171 22.392C83.8531 22.584 83.2771 22.68 82.6891 22.68ZM91.0406 22.68C90.2486 22.68 89.5526 22.494 88.9526 22.122C88.3526 21.738 87.8846 21.192 87.5486 20.484C87.2126 19.776 87.0446 18.93 87.0446 17.946C87.0446 16.962 87.2126 16.122 87.5486 15.426C87.8846 14.718 88.3526 14.178 88.9526 13.806C89.5526 13.422 90.2486 13.23 91.0406 13.23C91.8086 13.23 92.4806 13.422 93.0566 13.806C93.6446 14.178 94.0346 14.682 94.2266 15.318H94.0286L94.2266 13.41H96.3866C96.3506 13.782 96.3146 14.16 96.2786 14.544C96.2546 14.928 96.2426 15.306 96.2426 15.678V22.5H94.0106L93.9926 20.628H94.2086C94.0166 21.252 93.6266 21.75 93.0386 22.122C92.4506 22.494 91.7846 22.68 91.0406 22.68ZM91.6706 20.952C92.3786 20.952 92.9486 20.706 93.3806 20.214C93.8126 19.71 94.0286 18.954 94.0286 17.946C94.0286 16.938 93.8126 16.188 93.3806 15.696C92.9486 15.204 92.3786 14.958 91.6706 14.958C90.9626 14.958 90.3926 15.204 89.9606 15.696C89.5286 16.188 89.3126 16.938 89.3126 17.946C89.3126 18.954 89.5226 19.71 89.9426 20.214C90.3746 20.706 90.9506 20.952 91.6706 20.952ZM102.581 22.68C101.501 22.68 100.685 22.398 100.133 21.834C99.5808 21.27 99.3048 20.424 99.3048 19.296V15.102H97.5588V13.41H99.3048V11.088L101.555 10.512V13.41H103.985V15.102H101.555V19.152C101.555 19.776 101.675 20.214 101.915 20.466C102.155 20.718 102.485 20.844 102.905 20.844C103.133 20.844 103.325 20.826 103.481 20.79C103.649 20.754 103.811 20.706 103.967 20.646V22.428C103.763 22.512 103.535 22.572 103.283 22.608C103.043 22.656 102.809 22.68 102.581 22.68ZM109.817 22.68C108.293 22.68 107.099 22.26 106.235 21.42C105.371 20.58 104.939 19.428 104.939 17.964C104.939 17.016 105.125 16.188 105.497 15.48C105.869 14.772 106.385 14.22 107.045 13.824C107.717 13.428 108.497 13.23 109.385 13.23C110.261 13.23 110.993 13.416 111.581 13.788C112.169 14.16 112.613 14.682 112.913 15.354C113.225 16.026 113.381 16.812 113.381 17.712V18.306H106.757V17.118H111.779L111.473 17.37C111.473 16.53 111.293 15.888 110.933 15.444C110.585 15 110.075 14.778 109.403 14.778C108.659 14.778 108.083 15.042 107.675 15.57C107.279 16.098 107.081 16.836 107.081 17.784V18.018C107.081 19.002 107.321 19.74 107.801 20.232C108.293 20.712 108.983 20.952 109.871 20.952C110.387 20.952 110.867 20.886 111.311 20.754C111.767 20.61 112.199 20.382 112.607 20.07L113.273 21.582C112.841 21.93 112.325 22.2 111.725 22.392C111.125 22.584 110.489 22.68 109.817 22.68ZM119.499 26.532C118.659 26.532 117.897 26.442 117.213 26.262C116.541 26.082 115.941 25.806 115.413 25.434L115.899 23.814C116.247 24.042 116.607 24.228 116.979 24.372C117.351 24.516 117.735 24.624 118.131 24.696C118.527 24.768 118.929 24.804 119.337 24.804C120.177 24.804 120.801 24.594 121.209 24.174C121.629 23.766 121.839 23.178 121.839 22.41V20.232H122.019C121.827 20.856 121.437 21.354 120.849 21.726C120.273 22.098 119.607 22.284 118.851 22.284C118.035 22.284 117.321 22.104 116.708 21.744C116.109 21.372 115.641 20.844 115.305 20.16C114.969 19.476 114.801 18.672 114.801 17.748C114.801 16.824 114.969 16.026 115.305 15.354C115.641 14.67 116.109 14.148 116.708 13.788C117.321 13.416 118.035 13.23 118.851 13.23C119.619 13.23 120.285 13.416 120.849 13.788C121.425 14.148 121.809 14.64 122.001 15.264L121.839 15.156L122.019 13.41H124.197C124.149 13.782 124.113 14.16 124.089 14.544C124.065 14.928 124.053 15.306 124.053 15.678V22.14C124.053 23.568 123.663 24.654 122.883 25.398C122.115 26.154 120.987 26.532 119.499 26.532ZM119.463 20.556C120.183 20.556 120.753 20.316 121.173 19.836C121.605 19.344 121.821 18.648 121.821 17.748C121.821 16.848 121.605 16.158 121.173 15.678C120.753 15.198 120.183 14.958 119.463 14.958C118.731 14.958 118.149 15.198 117.717 15.678C117.285 16.158 117.069 16.848 117.069 17.748C117.069 18.648 117.285 19.344 117.717 19.836C118.149 20.316 118.731 20.556 119.463 20.556ZM130.588 22.68C129.652 22.68 128.842 22.488 128.158 22.104C127.474 21.72 126.94 21.174 126.556 20.466C126.184 19.758 125.998 18.918 125.998 17.946C125.998 16.974 126.184 16.14 126.556 15.444C126.94 14.736 127.474 14.19 128.158 13.806C128.842 13.422 129.652 13.23 130.588 13.23C131.524 13.23 132.334 13.422 133.018 13.806C133.714 14.19 134.248 14.736 134.62 15.444C135.004 16.14 135.196 16.974 135.196 17.946C135.196 18.918 135.004 19.758 134.62 20.466C134.248 21.174 133.714 21.72 133.018 22.104C132.334 22.488 131.524 22.68 130.588 22.68ZM130.588 20.952C131.296 20.952 131.86 20.706 132.28 20.214C132.7 19.71 132.91 18.954 132.91 17.946C132.91 16.938 132.7 16.188 132.28 15.696C131.86 15.204 131.296 14.958 130.588 14.958C129.88 14.958 129.316 15.204 128.896 15.696C128.476 16.188 128.266 16.938 128.266 17.946C128.266 18.954 128.476 19.71 128.896 20.214C129.316 20.706 129.88 20.952 130.588 20.952ZM137.118 22.5V15.732C137.118 15.348 137.106 14.958 137.082 14.562C137.07 14.166 137.04 13.782 136.992 13.41H139.17L139.422 15.894H139.062C139.182 15.294 139.38 14.796 139.656 14.4C139.944 14.004 140.292 13.71 140.7 13.518C141.108 13.326 141.552 13.23 142.032 13.23C142.248 13.23 142.422 13.242 142.554 13.266C142.686 13.278 142.818 13.308 142.95 13.356L142.932 15.336C142.704 15.24 142.506 15.18 142.338 15.156C142.182 15.132 141.984 15.12 141.744 15.12C141.228 15.12 140.79 15.228 140.43 15.444C140.082 15.66 139.818 15.96 139.638 16.344C139.47 16.728 139.386 17.166 139.386 17.658V22.5H137.118ZM144.203 22.5V13.41H146.453V22.5H144.203ZM144.077 11.7V9.504H146.579V11.7H144.077ZM153.288 22.68C151.764 22.68 150.57 22.26 149.706 21.42C148.842 20.58 148.41 19.428 148.41 17.964C148.41 17.016 148.596 16.188 148.968 15.48C149.34 14.772 149.856 14.22 150.516 13.824C151.188 13.428 151.968 13.23 152.856 13.23C153.732 13.23 154.464 13.416 155.052 13.788C155.64 14.16 156.084 14.682 156.384 15.354C156.696 16.026 156.852 16.812 156.852 17.712V18.306H150.228V17.118H155.25L154.944 17.37C154.944 16.53 154.764 15.888 154.404 15.444C154.056 15 153.546 14.778 152.874 14.778C152.13 14.778 151.554 15.042 151.146 15.57C150.75 16.098 150.552 16.836 150.552 17.784V18.018C150.552 19.002 150.792 19.74 151.272 20.232C151.764 20.712 152.454 20.952 153.342 20.952C153.858 20.952 154.338 20.886 154.782 20.754C155.238 20.61 155.67 20.382 156.078 20.07L156.744 21.582C156.312 21.93 155.796 22.2 155.196 22.392C154.596 22.584 153.96 22.68 153.288 22.68ZM161.997 22.68C161.217 22.68 160.497 22.59 159.837 22.41C159.189 22.218 158.643 21.954 158.199 21.618L158.829 20.106C159.285 20.418 159.789 20.658 160.341 20.826C160.893 20.994 161.451 21.078 162.015 21.078C162.615 21.078 163.059 20.976 163.347 20.772C163.647 20.568 163.797 20.292 163.797 19.944C163.797 19.668 163.701 19.452 163.509 19.296C163.329 19.128 163.035 19.002 162.627 18.918L160.827 18.576C160.059 18.408 159.471 18.12 159.063 17.712C158.667 17.304 158.469 16.77 158.469 16.11C158.469 15.546 158.619 15.048 158.919 14.616C159.231 14.184 159.669 13.848 160.233 13.608C160.809 13.356 161.481 13.23 162.249 13.23C162.921 13.23 163.551 13.32 164.139 13.5C164.739 13.68 165.243 13.95 165.651 14.31L165.003 15.768C164.631 15.468 164.205 15.234 163.725 15.066C163.245 14.898 162.777 14.814 162.321 14.814C161.697 14.814 161.241 14.928 160.953 15.156C160.665 15.372 160.521 15.654 160.521 16.002C160.521 16.266 160.605 16.488 160.773 16.668C160.953 16.836 161.229 16.962 161.601 17.046L163.401 17.388C164.205 17.544 164.811 17.82 165.219 18.216C165.639 18.6 165.849 19.128 165.849 19.8C165.849 20.4 165.687 20.916 165.363 21.348C165.039 21.78 164.589 22.11 164.013 22.338C163.437 22.566 162.765 22.68 161.997 22.68Z" fill="white"/>
<mask id="mask0_149_1348" style="mask-type:alpha" maskUnits="userSpaceOnUse" x="176" y="4" width="24" height="24">
<rect x="176" y="4" width="24" height="24" fill="#D9D9D9"/>
</mask>
<g mask="url(#mask0_149_1348)">
<path d="M187.584 19.617L181.262 13.4468C181.174 13.3617 181.109 13.2695 181.065 13.1702C181.022 13.0709 181 12.9645 181 12.8511C181 12.6241 181.08 12.4255 181.24 12.2553C181.4 12.0851 181.61 12 181.872 12H195.128C195.39 12 195.6 12.0851 195.76 12.2553C195.92 12.4255 196 12.6241 196 12.8511C196 12.9078 195.913 13.1064 195.738 13.4468L189.416 19.617C189.27 19.7589 189.125 19.8582 188.98 19.9149C188.834 19.9716 188.674 20 188.5 20C188.326 20 188.166 19.9716 188.02 19.9149C187.875 19.8582 187.73 19.7589 187.584 19.617Z" fill="#FFB770"/>
</g>
<path d="M13.626 54V45.11H10.14V44.13H18.26V45.11H14.788V54H13.626ZM21.8908 54.126C20.7895 54.126 19.9215 53.8087 19.2868 53.174C18.6521 52.53 18.3348 51.6387 18.3348 50.5C18.3348 49.7627 18.4748 49.1233 18.7548 48.582C19.0348 48.0313 19.4268 47.6067 19.9308 47.308C20.4348 47 21.0135 46.846 21.6668 46.846C22.3108 46.846 22.8521 46.9813 23.2908 47.252C23.7295 47.5227 24.0655 47.91 24.2988 48.414C24.5321 48.9087 24.6488 49.4967 24.6488 50.178V50.598H19.2028V49.884H23.9068L23.6688 50.066C23.6688 49.3193 23.5008 48.736 23.1648 48.316C22.8288 47.896 22.3295 47.686 21.6668 47.686C20.9668 47.686 20.4208 47.9333 20.0288 48.428C19.6368 48.9133 19.4408 49.5713 19.4408 50.402V50.528C19.4408 51.4053 19.6555 52.0727 20.0848 52.53C20.5235 52.978 21.1348 53.202 21.9188 53.202C22.3388 53.202 22.7308 53.1413 23.0948 53.02C23.4681 52.8893 23.8228 52.6793 24.1588 52.39L24.5508 53.188C24.2428 53.4867 23.8508 53.72 23.3748 53.888C22.9081 54.0467 22.4135 54.126 21.8908 54.126ZM29.338 54.126C28.7127 54.126 28.1667 53.9813 27.7 53.692C27.2334 53.3933 26.8694 52.9733 26.608 52.432C26.356 51.8907 26.23 51.242 26.23 50.486C26.23 49.7207 26.356 49.0673 26.608 48.526C26.8694 47.9847 27.2334 47.5693 27.7 47.28C28.1667 46.9907 28.7127 46.846 29.338 46.846C29.9727 46.846 30.5187 47.0093 30.976 47.336C31.4427 47.6533 31.7507 48.0873 31.9 48.638H31.732L31.886 46.972H32.978C32.95 47.2427 32.922 47.518 32.894 47.798C32.8754 48.0687 32.866 48.3347 32.866 48.596V54H31.732V52.348H31.886C31.7367 52.8987 31.4287 53.3327 30.962 53.65C30.4954 53.9673 29.954 54.126 29.338 54.126ZM29.562 53.202C30.234 53.202 30.766 52.9733 31.158 52.516C31.55 52.0493 31.746 51.3727 31.746 50.486C31.746 49.59 31.55 48.9133 31.158 48.456C30.766 47.9893 30.234 47.756 29.562 47.756C28.8994 47.756 28.3674 47.9893 27.966 48.456C27.574 48.9133 27.378 49.59 27.378 50.486C27.378 51.3727 27.574 52.0493 27.966 52.516C28.3674 52.9733 28.8994 53.202 29.562 53.202ZM35.3386 54V48.596C35.3386 48.3347 35.3246 48.0687 35.2966 47.798C35.2779 47.518 35.2546 47.2427 35.2266 46.972H36.3186L36.4586 48.512H36.2906C36.4772 47.98 36.7712 47.5693 37.1726 47.28C37.5832 46.9907 38.0779 46.846 38.6566 46.846C39.2446 46.846 39.7206 46.986 40.0846 47.266C40.4579 47.546 40.7099 47.98 40.8406 48.568H40.6306C40.8079 48.036 41.1206 47.616 41.5686 47.308C42.0166 47 42.5392 46.846 43.1366 46.846C43.9112 46.846 44.4946 47.07 44.8866 47.518C45.2786 47.9567 45.4746 48.652 45.4746 49.604V54H44.3406V49.674C44.3406 49.0113 44.2239 48.5307 43.9906 48.232C43.7572 47.924 43.3839 47.77 42.8706 47.77C42.2826 47.77 41.8159 47.9753 41.4706 48.386C41.1346 48.7873 40.9666 49.3287 40.9666 50.01V54H39.8326V49.674C39.8326 49.0113 39.7159 48.5307 39.4826 48.232C39.2492 47.924 38.8759 47.77 38.3626 47.77C37.7746 47.77 37.3126 47.9753 36.9766 48.386C36.6406 48.7873 36.4726 49.3287 36.4726 50.01V54H35.3386ZM50.986 54L55.34 44.13H56.348L60.772 54H59.568L58.336 51.186L58.854 51.48H52.82L53.38 51.186L52.176 54H50.986ZM55.83 45.46L53.562 50.78L53.226 50.528H58.434L58.182 50.78L55.858 45.46H55.83ZM65.3005 54.126C64.6099 54.126 64.0079 53.9767 63.4945 53.678C62.9905 53.3793 62.5985 52.9547 62.3185 52.404C62.0479 51.8533 61.9125 51.2 61.9125 50.444C61.9125 49.6787 62.0525 49.03 62.3325 48.498C62.6125 47.9567 63.0045 47.546 63.5085 47.266C64.0219 46.986 64.6192 46.846 65.3005 46.846C65.7485 46.846 66.1825 46.9253 66.6025 47.084C67.0319 47.2427 67.3865 47.4667 67.6665 47.756L67.2605 48.568C66.9805 48.2973 66.6725 48.0967 66.3365 47.966C66.0099 47.8353 65.6879 47.77 65.3705 47.77C64.6425 47.77 64.0779 47.9987 63.6765 48.456C63.2752 48.9133 63.0745 49.5807 63.0745 50.458C63.0745 51.326 63.2752 51.998 63.6765 52.474C64.0779 52.95 64.6425 53.188 65.3705 53.188C65.6785 53.188 65.9959 53.1273 66.3225 53.006C66.6585 52.8847 66.9712 52.684 67.2605 52.404L67.6665 53.202C67.3772 53.5007 67.0179 53.7293 66.5885 53.888C66.1592 54.0467 65.7299 54.126 65.3005 54.126ZM72.0502 54.126C71.3595 54.126 70.8322 53.93 70.4682 53.538C70.1042 53.1367 69.9222 52.5347 69.9222 51.732V47.854H68.5502V46.972H69.9222V45.054L71.0562 44.732V46.972H73.0722V47.854H71.0562V51.606C71.0562 52.166 71.1495 52.5673 71.3362 52.81C71.5322 53.0433 71.8215 53.16 72.2042 53.16C72.3815 53.16 72.5402 53.146 72.6802 53.118C72.8202 53.0807 72.9462 53.0387 73.0582 52.992V53.944C72.9275 54 72.7689 54.042 72.5822 54.07C72.4049 54.1073 72.2275 54.126 72.0502 54.126ZM74.7327 54V46.972H75.8667V54H74.7327ZM74.5927 45.376V44.102H75.9927V45.376H74.5927ZM80.4207 54L77.4107 46.972H78.6427L81.1627 53.16H80.7847L83.3327 46.972H84.5087L81.4987 54H80.4207ZM86.0662 54V46.972H87.2002V54H86.0662ZM85.9262 45.376V44.102H87.3262V45.376H85.9262ZM92.1741 54.126C91.4834 54.126 90.9561 53.93 90.5921 53.538C90.2281 53.1367 90.0461 52.5347 90.0461 51.732V47.854H88.6741V46.972H90.0461V45.054L91.1801 44.732V46.972H93.1961V47.854H91.1801V51.606C91.1801 52.166 91.2734 52.5673 91.4601 52.81C91.6561 53.0433 91.9454 53.16 92.3281 53.16C92.5054 53.16 92.6641 53.146 92.8041 53.118C92.9441 53.0807 93.0701 53.0387 93.1821 52.992V53.944C93.0514 54 92.8928 54.042 92.7061 54.07C92.5288 54.1073 92.3514 54.126 92.1741 54.126ZM94.8566 54V46.972H95.9906V54H94.8566ZM94.7166 45.376V44.102H96.1166V45.376H94.7166ZM101.595 54.126C100.493 54.126 99.6252 53.8087 98.9906 53.174C98.3559 52.53 98.0386 51.6387 98.0386 50.5C98.0386 49.7627 98.1786 49.1233 98.4586 48.582C98.7386 48.0313 99.1306 47.6067 99.6346 47.308C100.139 47 100.717 46.846 101.371 46.846C102.015 46.846 102.556 46.9813 102.995 47.252C103.433 47.5227 103.769 47.91 104.003 48.414C104.236 48.9087 104.353 49.4967 104.353 50.178V50.598H98.9066V49.884H103.611L103.373 50.066C103.373 49.3193 103.205 48.736 102.869 48.316C102.533 47.896 102.033 47.686 101.371 47.686C100.671 47.686 100.125 47.9333 99.7326 48.428C99.3406 48.9133 99.1446 49.5713 99.1446 50.402V50.528C99.1446 51.4053 99.3592 52.0727 99.7886 52.53C100.227 52.978 100.839 53.202 101.623 53.202C102.043 53.202 102.435 53.1413 102.799 53.02C103.172 52.8893 103.527 52.6793 103.863 52.39L104.255 53.188C103.947 53.4867 103.555 53.72 103.079 53.888C102.612 54.0467 102.117 54.126 101.595 54.126ZM108.706 54.126C108.146 54.126 107.623 54.0513 107.138 53.902C106.652 53.7433 106.251 53.524 105.934 53.244L106.326 52.446C106.671 52.7167 107.044 52.9173 107.446 53.048C107.856 53.1787 108.281 53.244 108.72 53.244C109.28 53.244 109.7 53.146 109.98 52.95C110.269 52.7447 110.414 52.4647 110.414 52.11C110.414 51.8393 110.32 51.6247 110.134 51.466C109.956 51.298 109.662 51.1673 109.252 51.074L107.95 50.808C107.352 50.6773 106.904 50.458 106.606 50.15C106.307 49.8327 106.158 49.4313 106.158 48.946C106.158 48.5353 106.265 48.176 106.48 47.868C106.694 47.5507 107.007 47.3033 107.418 47.126C107.828 46.9393 108.309 46.846 108.86 46.846C109.373 46.846 109.844 46.9253 110.274 47.084C110.712 47.2333 111.076 47.4527 111.366 47.742L110.96 48.526C110.68 48.2553 110.358 48.0547 109.994 47.924C109.639 47.784 109.27 47.714 108.888 47.714C108.337 47.714 107.922 47.826 107.642 48.05C107.371 48.2647 107.236 48.5493 107.236 48.904C107.236 49.1747 107.32 49.3987 107.488 49.576C107.665 49.744 107.936 49.87 108.3 49.954L109.602 50.22C110.236 50.36 110.708 50.5793 111.016 50.878C111.333 51.1673 111.492 51.5593 111.492 52.054C111.492 52.474 111.375 52.8427 111.142 53.16C110.908 53.468 110.582 53.706 110.162 53.874C109.751 54.042 109.266 54.126 108.706 54.126Z" fill="#FFB770"/>
</svg>
